<?xml version="1.0" encoding="UTF-8" standalone="no"?>
<!-- Created with Inkscape (http://www.inkscape.org/) -->

<svg
   version="1.1"
   id="svg1"
   width="2184"
   height="1976"
   viewBox="0 0 2184 1976"
   sodipodi:docname="first_aligned_shapes.svg"
   inkscape:version="1.3.2 (091e20e, 2023-11-25, custom)"
   xmlns:inkscape="http://www.inkscape.org/namespaces/inkscape"
   xmlns:sodipodi="http://sodipodi.sourceforge.net/DTD/sodipodi-0.dtd"
   xmlns:xlink="http://www.w3.org/1999/xlink"
   xmlns="http://www.w3.org/2000/svg"
   xmlns:svg="http://www.w3.org/2000/svg">
  <defs
     id="defs1" />
  <sodipodi:namedview
     id="namedview1"
     pagecolor="#ffffff"
     bordercolor="#000000"
     borderopacity="0.25"
     inkscape:showpageshadow="2"
     inkscape:pageopacity="0.0"
     inkscape:pagecheckerboard="0"
     inkscape:deskcolor="#d1d1d1"
     showgrid="false"
     inkscape:zoom="0.41143725"
     inkscape:cx="678.1107"
     inkscape:cy="951.54244"
     inkscape:window-width="1920"
     inkscape:window-height="1009"
     inkscape:window-x="-8"
     inkscape:window-y="-8"
     inkscape:window-maximized="1"
     inkscape:current-layer="g1" />
  <g
     inkscape:groupmode="layer"
     inkscape:label="Image"
     id="g1">
    <image
       width="2184"
       height="1976"
       preserveAspectRatio="none"
       xlink:href="first_aligned.png"
       id="image1"
       style="display:none"
       sodipodi:insensitive="true" />
    <g
       id="g32">
      <path
         style="display:inline;fill:#000000;fill-opacity:1;stroke:none;stroke-width:8;stroke-dasharray:none;stroke-opacity:1"
         d="m 417.1353,45.723862 h -9.2663 l 2.88623,283.305658 -195.50369,0.45572 10.93727,428.98401 7.1396,273.58365 2.43051,85.6753 2.58241,154.337 1.82288,75.4975 2.73431,99.9545 24.76077,94.6378 13.06396,41.6224 78.38376,92.6629 88.86532,32.8119 120.15805,11.5449 123.04428,12.7601 85.82719,7.5953 119.24661,5.7725 105.27124,5.6205 113.778,5.7725 92.2072,5.4686 96.0049,5.4686 92.8149,4.1015 90.2325,-2.2786 70.1808,-2.4305 70.1808,-27.1913 18.6845,-7.4434 50.433,-31.1408 31.2927,-20.2036 25.976,-25.0646 53.4711,-52.2558 53.4711,3.9496 14.1273,-75.6495 11.2411,-70.3327 10.9373,-72.7632 9.4182,-72.3075 8.051,-60.155 10.6335,-74.738 6.0763,-53.3192 8.8105,-59.6993 8.6587,-63.4969 8.0511,-59.54735 9.2663,-71.39606 11.3929,-89.77675 11.0892,-84.30812 16.5578,-124.10763 10.9373,-79.14329 9.5701,-77.47233 14.1273,-104.05596 11.5449,-85.67528 7.5953,-59.24354 11.393,-88.865317 3.9496,-34.48278 -241.2276,-1.974785 -2.8862,-0.151907 1.0634,-39.3437881 -11.8487,-0.1519065 0.7595,39.0399756 -41.7743,0.607626 -0.7595,248.670972 -1310.71776,-3.7214 0.10741,10.09693 1319.72475,2.89077 -0.5718,-248.869132 277.1935,2.780568 -78.6876,592.131614 -65.9274,501.13957 -30.2294,226.1888 -35.0005,221.5153 -49.8401,-4.404 -83.4608,81.3125 -76.2681,48.3788 -88.8653,33.8752 -150.1271,6.0405 -446.84275,-23.4163 -200.21993,-11.3859 -177.01849,-16.327 -130.18593,-13.9638 -85.07199,-30.5056 -77.12334,-91.7317 -35.01701,-131.6897 -28.48693,-1106.73885 195.6556,-0.45572 z"
         id="outside-walls"
         inkscape:label="Outside walls" />
      <path
         style="fill:#000000;fill-opacity:1;stroke:none;stroke-width:8;stroke-dasharray:none;stroke-opacity:1"
         d="m 598.78007,639.3289 v -7.73382 h 4.67251 v 20.03274 h -4.6188 v -8.16347 H 411.50353 v 7.03562 h -3.97432 v -18.52894 h 4.18915 v 8.27089 z"
         id="path2" />
      <path
         style="fill:#000000;fill-opacity:1;stroke:none;stroke-width:8;stroke-dasharray:none;stroke-opacity:1"
         d="m 599.57558,584.18646 v -7.73382 h 4.67251 v 20.03274 h -4.6188 v -8.16347 H 412.29904 v 7.03562 h -3.97432 v -18.52894 h 4.18915 v 8.27089 z"
         id="path2-1" />
      <path
         style="fill:#000000;fill-opacity:1;stroke:none;stroke-width:8;stroke-dasharray:none;stroke-opacity:1"
         d="m 600.44868,697.01883 v -7.73382 h 4.67251 v 20.03274 h -4.6188 v -8.16347 H 413.17214 v 7.03562 h -3.97432 v -18.52894 h 4.18915 v 8.27089 z"
         id="path2-2" />
      <path
         style="fill:#000000;fill-opacity:1;stroke:none;stroke-width:8;stroke-dasharray:none;stroke-opacity:1"
         d="m 598.36876,753.86691 v -7.73382 h 4.67251 v 20.03274 h -4.6188 v -8.16347 H 411.09222 v 7.03562 h -3.97432 v -18.52894 h 4.18915 v 8.27089 z"
         id="path2-2-9" />
      <path
         style="fill:#000000;fill-opacity:1;stroke:none;stroke-width:8;stroke-dasharray:none;stroke-opacity:1"
         d="m 598.50185,810.24703 v -7.73382 h 4.67251 v 20.03274 h -4.6188 v -8.16347 H 411.22531 v 7.03562 h -3.97432 v -18.52894 h 4.18915 v 8.27089 z"
         id="path2-2-8" />
      <path
         style="fill:#000000;fill-opacity:1;stroke:none;stroke-width:8;stroke-dasharray:none;stroke-opacity:1"
         d="m 601.31559,866.36493 v -7.73382 h 4.67251 v 20.03274 h -4.6188 v -8.16347 H 414.03905 v 7.03562 h -3.97432 v -18.52894 h 4.18915 v 8.27089 z"
         id="path2-2-5" />
      <path
         style="fill:#000000;fill-opacity:1;stroke:none;stroke-width:8;stroke-dasharray:none;stroke-opacity:1"
         d="m 602.39155,924.34214 v -7.73382 h 4.67251 v 20.03274 h -4.6188 v -8.16347 H 415.11501 v 7.03562 h -3.97432 v -18.52894 h 4.18915 v 8.27089 z"
         id="path2-2-6" />
      <path
         style="fill:#000000;fill-opacity:1;stroke:none;stroke-width:8;stroke-dasharray:none;stroke-opacity:1"
         d="m 600.35357,979.49802 v -7.73382 h 4.67251 v 20.03274 h -4.6188 v -8.16347 H 413.07703 v 7.03562 h -3.97432 v -18.52894 h 4.18915 v 8.27089 z"
         id="path2-2-2" />
      <path
         style="fill:#000000;fill-opacity:1;stroke:none;stroke-width:8;stroke-dasharray:none;stroke-opacity:1"
         d="m 600.9467,1035.749 v -7.7338 h 4.67251 v 20.0327 h -4.6188 v -8.1634 H 413.67016 v 7.0356 h -3.97432 v -18.529 h 4.18915 v 8.2709 z"
         id="path2-2-57" />
      <path
         style="fill:#000000;fill-opacity:1;stroke:none;stroke-width:8;stroke-dasharray:none;stroke-opacity:1"
         d="m 600.79842,1093.9201 v -7.7338 h 4.67251 v 20.0327 h -4.6188 v -8.1634 H 413.52188 v 7.0356 h -3.97432 v -18.529 h 4.18915 v 8.2709 z"
         id="path2-2-94" />
      <path
         style="fill:#000000;fill-opacity:1;stroke:none;stroke-width:8;stroke-dasharray:none;stroke-opacity:1"
         d="m 601.78323,1148.7186 v -7.7338 h 4.67251 v 20.0327 h -4.6188 v -8.1634 H 414.50669 v 7.0356 h -3.97432 v -18.529 h 4.18915 v 8.2709 z"
         id="path2-2-84" />
      <path
         style="fill:#000000;fill-opacity:1;stroke:none;stroke-width:8;stroke-dasharray:none;stroke-opacity:1"
         d="m 601.35357,1207.8897 v -7.7338 h 4.67251 v 20.0327 h -4.6188 v -8.1634 H 414.07703 v 7.0356 h -3.97432 v -18.529 h 4.18915 v 8.2709 z"
         id="path2-2-3" />
      <path
         style="fill:#000000;fill-opacity:1;stroke:none;stroke-width:8;stroke-dasharray:none;stroke-opacity:1"
         d="m 599.66533,1265.1635 v -7.7338 h 4.67251 v 20.0327 h -4.6188 v -8.1634 H 412.38879 v 7.0356 h -3.97432 v -18.529 h 4.18915 v 8.2709 z"
         id="path2-2-34" />
      <path
         style="fill:#000000;fill-opacity:1;stroke:none;stroke-width:8;stroke-dasharray:none;stroke-opacity:1"
         d="m 599.63494,1319.1331 v -7.7338 h 4.67251 v 20.0327 h -4.6188 v -8.1634 H 412.3584 v 7.0356 h -3.97432 v -18.529 h 4.18915 v 8.2709 z"
         id="path2-2-1" />
      <path
         style="fill:#000000;fill-opacity:1;stroke:none;stroke-width:8;stroke-dasharray:none;stroke-opacity:1"
         d="m 601.61975,1377.2965 v -7.7338 h 4.67251 v 20.0327 h -4.6188 v -8.1634 H 414.34321 v 7.0356 h -3.97432 v -18.529 h 4.18915 v 8.2709 z"
         id="path2-2-19" />
      <path
         style="fill:#000000;fill-opacity:1;stroke:none;stroke-width:8;stroke-dasharray:none;stroke-opacity:1"
         d="m 600.79082,1433.7034 v -7.7338 h 4.67251 v 20.0327 h -4.6188 v -8.1634 H 413.51428 v 7.0356 h -3.97432 v -18.529 h 4.18915 v 8.2709 z"
         id="path2-2-29" />
      <path
         style="fill:#000000;fill-opacity:1;stroke:none;stroke-width:8;stroke-dasharray:none;stroke-opacity:1"
         d="m 601.8899,1490.8705 v -7.7338 h 4.67251 v 20.0327 h -4.6188 v -8.1634 H 414.61336 v 7.0356 h -3.97432 v -18.529 h 4.18915 v 8.2709 z"
         id="path2-2-29-1" />
      <path
         style="fill:#000000;fill-opacity:1;stroke:none;stroke-width:8;stroke-dasharray:none;stroke-opacity:1"
         d="m 913.21764,753.21352 v -7.73382 h 4.6725 v 20.03274 h -4.6188 v -8.16347 H 725.94108 v 7.03562 h -3.97432 v -18.52894 h 4.18915 v 8.27089 z"
         id="path2-2-4" />
      <path
         style="fill:#000000;fill-opacity:1;stroke:none;stroke-width:8;stroke-dasharray:none;stroke-opacity:1"
         d="m 911.13774,810.0616 v -7.73382 h 4.6725 v 20.03274 h -4.6188 v -8.16347 H 723.86116 v 7.03562 h -3.97432 v -18.52894 h 4.18915 v 8.27089 z"
         id="path2-2-9-2" />
      <path
         style="fill:#000000;fill-opacity:1;stroke:none;stroke-width:8;stroke-dasharray:none;stroke-opacity:1"
         d="m 911.27084,866.44172 v -7.73382 h 4.6725 v 20.03274 h -4.6188 v -8.16347 H 723.99425 v 7.03562 h -3.97432 v -18.52894 h 4.18915 v 8.27089 z"
         id="path2-2-8-9" />
      <path
         style="fill:#000000;fill-opacity:1;stroke:none;stroke-width:8;stroke-dasharray:none;stroke-opacity:1"
         d="m 914.08454,922.55962 v -7.73382 h 4.6725 v 20.03274 h -4.6188 v -8.16347 H 726.80799 v 7.03562 h -3.97432 v -18.52894 h 4.18915 v 8.27089 z"
         id="path2-2-5-5" />
      <path
         style="fill:#000000;fill-opacity:1;stroke:none;stroke-width:8;stroke-dasharray:none;stroke-opacity:1"
         d="m 915.16054,980.5368 v -7.73379 h 4.6725 v 20.03269 h -4.6188 v -8.1634 H 727.88395 v 7.0356 h -3.97432 v -18.52894 h 4.18915 v 8.27084 z"
         id="path2-2-6-0" />
      <path
         style="fill:#000000;fill-opacity:1;stroke:none;stroke-width:8;stroke-dasharray:none;stroke-opacity:1"
         d="m 913.12254,1035.6927 v -7.7338 h 4.6725 v 20.0327 h -4.6188 v -8.1634 H 725.84597 v 7.0356 h -3.97432 v -18.529 h 4.18915 v 8.2709 z"
         id="path2-2-2-9" />
      <path
         style="fill:#000000;fill-opacity:1;stroke:none;stroke-width:8;stroke-dasharray:none;stroke-opacity:1"
         d="m 913.71564,1091.9437 v -7.7338 h 4.6725 v 20.0327 h -4.6188 v -8.1634 H 726.4391 v 7.0356 h -3.97432 v -18.529 h 4.18915 v 8.2709 z"
         id="path2-2-57-6" />
      <path
         style="fill:#000000;fill-opacity:1;stroke:none;stroke-width:8;stroke-dasharray:none;stroke-opacity:1"
         d="m 913.56734,1150.1148 v -7.7338 h 4.6725 v 20.0327 h -4.6188 v -8.1634 H 726.29082 v 7.0356 h -3.97432 v -18.529 h 4.18915 v 8.2709 z"
         id="path2-2-94-5" />
      <path
         style="fill:#000000;fill-opacity:1;stroke:none;stroke-width:8;stroke-dasharray:none;stroke-opacity:1"
         d="m 914.55214,1204.9133 v -7.7338 h 4.6725 v 20.0327 h -4.6188 v -8.1634 H 727.27563 v 7.0356 h -3.97432 v -18.529 h 4.18915 v 8.2709 z"
         id="path2-2-84-3" />
      <path
         style="fill:#000000;fill-opacity:1;stroke:none;stroke-width:8;stroke-dasharray:none;stroke-opacity:1"
         d="m 914.12254,1264.0844 v -7.7338 h 4.6725 v 20.0327 h -4.6188 v -8.1634 H 726.84597 v 7.0356 h -3.97432 v -18.529 h 4.18915 v 8.2709 z"
         id="path2-2-3-8" />
      <path
         style="fill:#000000;fill-opacity:1;stroke:none;stroke-width:8;stroke-dasharray:none;stroke-opacity:1"
         d="m 912.43424,1321.3582 v -7.7338 h 4.6725 v 20.0327 h -4.6188 v -8.1634 H 725.15773 v 7.0356 h -3.97432 v -18.529 h 4.18915 v 8.2709 z"
         id="path2-2-34-0" />
      <path
         style="fill:#000000;fill-opacity:1;stroke:none;stroke-width:8;stroke-dasharray:none;stroke-opacity:1"
         d="m 912.40384,1375.3278 v -7.7338 h 4.6726 v 20.0327 h -4.6188 v -8.1634 h -187.3303 v 7.0356 h -3.97432 v -18.529 h 4.18915 v 8.2709 z"
         id="path2-2-1-0" />
      <path
         style="fill:#000000;fill-opacity:1;stroke:none;stroke-width:8;stroke-dasharray:none;stroke-opacity:1"
         d="m 914.38874,1433.4912 v -7.7338 h 4.6725 v 20.0327 h -4.6188 v -8.1634 H 727.11215 v 7.0356 h -3.97432 v -18.529 h 4.18915 v 8.2709 z"
         id="path2-2-19-5" />
      <path
         style="fill:#000000;fill-opacity:1;stroke:none;stroke-width:8;stroke-dasharray:none;stroke-opacity:1"
         d="m 1227.6223,641.55546 v -7.73382 h 4.6725 v 20.03274 h -4.6188 v -8.16347 h -187.3303 v 7.03562 h -3.9743 v -18.52894 h 4.1892 v 8.27089 z"
         id="path2-2-14" />
      <path
         style="fill:#000000;fill-opacity:1;stroke:none;stroke-width:8;stroke-dasharray:none;stroke-opacity:1"
         d="m 1225.5424,698.40354 v -7.73382 h 4.6725 v 20.03274 h -4.6188 v -8.16347 h -187.3303 v 7.03562 h -3.9743 v -18.52894 h 4.1892 v 8.27089 z"
         id="path2-2-9-6" />
      <path
         style="fill:#000000;fill-opacity:1;stroke:none;stroke-width:8;stroke-dasharray:none;stroke-opacity:1"
         d="m 1225.6755,754.78364 v -7.7338 h 4.6725 v 20.0327 h -4.6188 v -8.1634 h -187.3303 v 7.0356 h -3.9743 v -18.529 h 4.1891 v 8.2709 z"
         id="path2-2-8-5" />
      <path
         style="fill:#000000;fill-opacity:1;stroke:none;stroke-width:8;stroke-dasharray:none;stroke-opacity:1"
         d="m 1228.4892,810.90154 v -7.7338 h 4.6725 v 20.0327 h -4.6188 v -8.1634 h -187.3302 v 7.0356 h -3.9744 v -18.529 h 4.1892 v 8.2709 z"
         id="path2-2-5-0" />
      <path
         style="fill:#000000;fill-opacity:1;stroke:none;stroke-width:8;stroke-dasharray:none;stroke-opacity:1"
         d="m 1229.5652,868.87874 v -7.7338 h 4.6725 v 20.0327 h -4.6188 v -8.1634 h -187.3303 v 7.0356 h -3.9743 v -18.5289 h 4.1891 v 8.2708 z"
         id="path2-2-6-1" />
      <path
         style="fill:#000000;fill-opacity:1;stroke:none;stroke-width:8;stroke-dasharray:none;stroke-opacity:1"
         d="m 1227.5272,924.03464 v -7.7338 h 4.6725 v 20.0327 h -4.6188 v -8.1634 h -187.3303 v 7.0356 h -3.9743 v -18.529 h 4.1892 v 8.2709 z"
         id="path2-2-2-1" />
      <path
         style="fill:#000000;fill-opacity:1;stroke:none;stroke-width:8;stroke-dasharray:none;stroke-opacity:1"
         d="m 1228.1203,980.28564 v -7.7338 h 4.6725 v 20.0327 h -4.6188 v -8.1634 h -187.3302 v 7.0356 h -3.9744 v -18.529 h 4.1892 v 8.2709 z"
         id="path2-2-57-2" />
      <path
         style="fill:#000000;fill-opacity:1;stroke:none;stroke-width:8;stroke-dasharray:none;stroke-opacity:1"
         d="m 1227.972,1038.4568 v -7.7338 h 4.6725 v 20.0327 h -4.6188 v -8.1634 h -187.3302 v 7.0356 h -3.9743 v -18.529 h 4.1891 v 8.2709 z"
         id="path2-2-94-9" />
      <path
         style="fill:#000000;fill-opacity:1;stroke:none;stroke-width:8;stroke-dasharray:none;stroke-opacity:1"
         d="m 1228.9568,1093.2553 v -7.7338 h 4.6725 v 20.0327 h -4.6188 v -8.1634 h -187.3302 v 7.0356 h -3.9743 v -18.529 h 4.1891 v 8.2709 z"
         id="path2-2-84-8" />
      <path
         style="fill:#000000;fill-opacity:1;stroke:none;stroke-width:8;stroke-dasharray:none;stroke-opacity:1"
         d="m 1228.5272,1152.4264 v -7.7338 h 4.6725 v 20.0327 h -4.6188 v -8.1634 h -187.3303 v 7.0356 h -3.9743 v -18.529 h 4.1892 v 8.2709 z"
         id="path2-2-3-2" />
      <path
         style="fill:#000000;fill-opacity:1;stroke:none;stroke-width:8;stroke-dasharray:none;stroke-opacity:1"
         d="m 1226.8389,1209.7002 v -7.7338 h 4.6725 v 20.0327 h -4.6188 v -8.1634 h -187.3302 v 7.0356 h -3.9743 v -18.529 h 4.1891 v 8.2709 z"
         id="path2-2-34-4" />
      <path
         style="fill:#000000;fill-opacity:1;stroke:none;stroke-width:8;stroke-dasharray:none;stroke-opacity:1"
         d="m 1226.8085,1263.6698 v -7.7338 h 4.6726 v 20.0327 h -4.6188 v -8.1634 H 1039.532 v 7.0356 h -3.9743 v -18.529 h 4.1891 v 8.2709 z"
         id="path2-2-1-9" />
      <path
         style="fill:#000000;fill-opacity:1;stroke:none;stroke-width:8;stroke-dasharray:none;stroke-opacity:1"
         d="m 1228.7934,1321.8332 v -7.7338 h 4.6725 v 20.0327 h -4.6188 v -8.1634 h -187.3303 v 7.0356 h -3.9743 v -18.529 h 4.1891 v 8.2709 z"
         id="path2-2-19-9" />
      <path
         style="fill:#000000;fill-opacity:1;stroke:none;stroke-width:8;stroke-dasharray:none;stroke-opacity:1"
         d="m 1227.9644,1378.2401 v -7.7338 h 4.6725 v 20.0327 h -4.6188 v -8.1634 h -187.3302 v 7.0356 h -3.9743 v -18.529 h 4.1891 v 8.2709 z"
         id="path2-2-29-6" />
      <path
         style="fill:#000000;fill-opacity:1;stroke:none;stroke-width:8;stroke-dasharray:none;stroke-opacity:1"
         d="m 1544.781,700.39065 v -7.73382 h 4.6725 v 20.03274 h -4.6188 v -8.16347 h -187.3303 v 7.03562 h -3.9743 v -18.52894 h 4.1892 v 8.27089 z"
         id="path2-2-11" />
      <path
         style="fill:#000000;fill-opacity:1;stroke:none;stroke-width:8;stroke-dasharray:none;stroke-opacity:1"
         d="m 1542.7011,757.23873 v -7.73382 h 4.6725 v 20.03274 h -4.6188 v -8.16347 h -187.3303 v 7.03562 h -3.9743 v -18.52894 h 4.1892 v 8.27089 z"
         id="path2-2-9-5" />
      <path
         style="fill:#000000;fill-opacity:1;stroke:none;stroke-width:8;stroke-dasharray:none;stroke-opacity:1"
         d="m 1542.8342,813.61885 v -7.73382 h 4.6725 v 20.03274 h -4.6188 v -8.16347 h -187.3303 v 7.03562 h -3.9743 v -18.52894 h 4.1891 v 8.27089 z"
         id="path2-2-8-3" />
      <path
         style="fill:#000000;fill-opacity:1;stroke:none;stroke-width:8;stroke-dasharray:none;stroke-opacity:1"
         d="m 1545.6479,869.73675 v -7.73382 h 4.6725 v 20.03274 h -4.6188 v -8.16347 h -187.3302 v 7.03562 h -3.9744 v -18.52894 h 4.1892 v 8.27089 z"
         id="path2-2-5-9" />
      <path
         style="fill:#000000;fill-opacity:1;stroke:none;stroke-width:8;stroke-dasharray:none;stroke-opacity:1"
         d="m 1546.7239,927.71396 v -7.73382 h 4.6725 v 20.03274 h -4.6188 v -8.16347 h -187.3303 v 7.03562 h -3.9743 v -18.52894 h 4.1891 v 8.27089 z"
         id="path2-2-6-8" />
      <path
         style="fill:#000000;fill-opacity:1;stroke:none;stroke-width:8;stroke-dasharray:none;stroke-opacity:1"
         d="m 1544.6859,982.86983 v -7.7338 h 4.6725 v 20.0327 h -4.6188 v -8.1634 h -187.3303 v 7.0356 h -3.9743 v -18.529 h 4.1892 v 8.2709 z"
         id="path2-2-2-11" />
      <path
         style="fill:#000000;fill-opacity:1;stroke:none;stroke-width:8;stroke-dasharray:none;stroke-opacity:1"
         d="m 1545.279,1039.1208 v -7.7338 h 4.6725 v 20.0327 h -4.6188 v -8.1634 h -187.3302 v 7.0356 h -3.9744 v -18.529 h 4.1892 v 8.2709 z"
         id="path2-2-57-64" />
      <path
         style="fill:#000000;fill-opacity:1;stroke:none;stroke-width:8;stroke-dasharray:none;stroke-opacity:1"
         d="m 1545.1307,1097.2919 v -7.7338 h 4.6725 v 20.0327 h -4.6188 v -8.1634 h -187.3302 v 7.0356 h -3.9743 v -18.529 h 4.1891 v 8.2709 z"
         id="path2-2-94-7" />
      <path
         style="fill:#000000;fill-opacity:1;stroke:none;stroke-width:8;stroke-dasharray:none;stroke-opacity:1"
         d="m 1546.1155,1152.0904 v -7.7338 h 4.6725 v 20.0327 h -4.6188 v -8.1634 H 1358.839 v 7.0356 h -3.9743 v -18.529 h 4.1891 v 8.2709 z"
         id="path2-2-84-5" />
      <path
         style="fill:#000000;fill-opacity:1;stroke:none;stroke-width:8;stroke-dasharray:none;stroke-opacity:1"
         d="m 1545.6859,1211.2615 v -7.7338 h 4.6725 v 20.0327 h -4.6188 v -8.1634 h -187.3303 v 7.0356 h -3.9743 v -18.529 h 4.1892 v 8.2709 z"
         id="path2-2-3-1" />
      <path
         style="fill:#000000;fill-opacity:1;stroke:none;stroke-width:8;stroke-dasharray:none;stroke-opacity:1"
         d="m 1543.9976,1268.5353 v -7.7338 h 4.6725 v 20.0327 h -4.6188 v -8.1634 h -187.3302 v 7.0356 h -3.9743 v -18.529 h 4.1891 v 8.2709 z"
         id="path2-2-34-2" />
      <path
         style="fill:#000000;fill-opacity:1;stroke:none;stroke-width:8;stroke-dasharray:none;stroke-opacity:1"
         d="m 1543.9672,1322.5049 v -7.7338 h 4.6726 v 20.0327 h -4.6188 v -8.1634 h -187.3303 v 7.0356 h -3.9743 v -18.529 h 4.1891 v 8.2709 z"
         id="path2-2-1-1" />
      <path
         style="fill:#000000;fill-opacity:1;stroke:none;stroke-width:8;stroke-dasharray:none;stroke-opacity:1"
         d="m 1545.9521,1380.6683 v -7.7338 h 4.6725 v 20.0327 h -4.6188 v -8.1634 h -187.3303 v 7.0356 h -3.9743 v -18.529 h 4.1891 v 8.2709 z"
         id="path2-2-19-4" />
      <path
         style="fill:#000000;fill-opacity:1;stroke:none;stroke-width:8;stroke-dasharray:none;stroke-opacity:1"
         d="m 1545.1231,1437.0752 v -7.7338 h 4.6725 v 20.0327 h -4.6188 v -8.1634 h -187.3302 v 7.0356 h -3.9743 v -18.529 h 4.1891 v 8.2709 z"
         id="path2-2-29-5" />
      <path
         style="fill:#000000;fill-opacity:1;stroke:none;stroke-width:8;stroke-dasharray:none;stroke-opacity:1"
         d="m 503.66486,585.62184 2.79148,901.39106 h 5.08886 l -2.1874,-901.44477 z"
         id="path3" />
      <path
         style="fill:#000000;fill-opacity:1;stroke:none;stroke-width:8;stroke-dasharray:none;stroke-opacity:1"
         d="m 816.34564,703.631 1.9352,784.2695 6.19179,0.024 -1.06334,-784.36936 z"
         id="path4" />
      <path
         style="fill:#000000;fill-opacity:1;stroke:none;stroke-width:8;stroke-dasharray:none;stroke-opacity:1"
         d="m 1132.682,643.19581 0.2368,796.11849 h 6.532 l -2.0507,-796.1421 z"
         id="path5" />
      <path
         style="fill:#000000;fill-opacity:1;stroke:none;stroke-width:8;stroke-dasharray:none;stroke-opacity:1"
         d="m 1449.124,703.56255 -0.2396,788.31135 h 5.7724 l -1.2362,-788.52618 z"
         id="path6" />
      <path
         style="fill:#000000;fill-opacity:1;stroke:none;stroke-width:8;stroke-dasharray:none;stroke-opacity:1"
         d="m 1352.8089,1490.1324 197.0304,0.4634 c 3.6591,6.9877 4.0696,13.3309 -1.378,20.3186 l -195.8304,-2.2341 c -2.1221,-6.1673 -4.8039,-10.802 0.178,-18.5479 z"
         id="path7"
         sodipodi:nodetypes="ccccc" />
      <path
         style="fill:#000000;fill-opacity:1;stroke:none;stroke-width:8;stroke-dasharray:none;stroke-opacity:1"
         d="m 1351.0137,686.62945 197.0304,0.4634 c 3.6591,6.9877 4.0696,13.3309 -1.378,20.3186 l -195.8304,-2.2341 c -2.1221,-6.1673 -4.8039,-10.802 0.178,-18.5479 z"
         id="path7-3"
         sodipodi:nodetypes="ccccc" />
      <path
         style="fill:#000000;fill-opacity:1;stroke:none;stroke-width:8;stroke-dasharray:none;stroke-opacity:1"
         d="m 1034.6129,1436.3417 203.2275,1.7187 -2.8404,16.5964 -5.4686,9.4182 -6.0763,9.7221 -7.5953,8.8105 -7.5953,6.9877 -6.6839,5.1648 -15.1907,5.7725 -13.9754,5.1648 -18.5326,1.8229 -39.7995,-0.3038 -14.583,-0.9115 -18.8364,-6.0762 -12.4564,-6.9877 -16.102,-12.7602 -10.3297,-14.8868 -6.9877,-15.4945 -2.1267,-8.5067 -0.4107,-5.3854 z"
         id="path8" />
      <path
         style="fill:#000000;fill-opacity:1;stroke:none;stroke-width:8;stroke-dasharray:none;stroke-opacity:1"
         d="m 725.04538,1485.9671 195.06406,0.6445 2.36311,2.7927 1.28897,7.519 -1.07414,14.1787 -3.65208,17.6159 -4.29657,9.0228 -6.44485,10.9562 -11.3859,11.3859 -12.24521,8.5932 -17.83074,9.0227 -7.94865,3.0076 -65.95227,0.4297 -14.82315,-3.4373 -14.82315,-6.8745 -14.17867,-9.8821 -15.46763,-17.1862 -6.23002,-12.8897 -4.72622,-11.6007 -1.07415,-8.3783 -0.21482,-9.6673 -0.42966,-9.6673 z"
         id="path9" />
      <path
         style="fill:#000000;fill-opacity:1;stroke:none;stroke-width:8;stroke-dasharray:none;stroke-opacity:1"
         d="m 507.21587,1485.4939 -93.42251,-0.6077 -4.10148,3.9496 -2.2786,5.7724 0.15191,15.3426 1.67097,8.203 5.01292,13.3677 8.20295,14.4311 10.78536,12.4564 17.62116,13.0639 27.34317,7.8992 11.5449,2.2786 30.53321,0.4557 25.36839,-0.1519 c 0,0 38.43235,-0.4557 39.03997,-0.4557 0.60763,0 21.57073,-0.7596 21.57073,-0.7596 l 2.2786,-2.7343 2.73431,-5.3167 -0.60762,-6.9877 -0.15191,-5.3167 -1.67097,-3.1901 -2.4305,-3.6457 -2.88623,-2.7343 -3.03813,-1.2153 -2.73432,-1.3672 -15.19065,-0.7595 -53.623,-0.3038 -15.19065,-0.4557 -1.06335,-51.952 v -9.4942 z"
         id="path10" />
      <path
         style="fill:#000000;fill-opacity:1;stroke:none;stroke-width:8;stroke-dasharray:none;stroke-opacity:1"
         d="m 718.66974,652.13469 1.1393,-2.81027 1.89883,-1.44311 2.35456,-1.21526 4.78505,-0.076 182.89545,0.53167 2.88622,1.21525 1.36716,1.21526 1.06335,1.97478 0.30381,47.54674 -1.67097,3.03813 -2.12669,2.2786 -3.94957,0.91144 -180.31304,-0.75953 -4.7091,-1.06335 -2.12669,-1.67097 -3.03813,-2.12669 -0.45572,-2.43051 z"
         id="path11" />
      <path
         style="fill:#000000;fill-opacity:1;stroke:none;stroke-width:8;stroke-dasharray:none;stroke-opacity:1"
         d="m 508.43112,533.6476 0.91144,51.04059 -89.32103,0.75954 -11.5449,-0.15191 -1.21525,-71.69988 3.19004,-6.9877 4.55719,-8.65867 9.41821,-9.87392 5.62054,-4.5572 7.89914,-4.7091 9.87392,-3.64576 7.59533,-1.06334 458.45387,1.67097 v 57.72448 l -186.23739,0.45572 -3.94957,-0.15191 -1.97479,-1.82288 -2.27859,-3.19004 -0.30382,-39.6476 H 602.76507 l -0.30381,35.84994 -0.30382,4.86101 -2.4305,2.58241 z"
         id="path12" />
      <path
         style="fill:#000000;fill-opacity:1;stroke:none;stroke-width:8;stroke-dasharray:none;stroke-opacity:1"
         d="m 362.41527,335.9914 0.64449,36.09115 6.44485,10.31175 10.09693,6.44485 17.61591,1.93345 13.53418,0.21483 6.65968,-2.14828 6.01519,-6.8745 2.14828,-4.5114 v -77.33817 l -6.44484,-0.21483 0.21482,37.59495 z"
         id="path13" />
      <path
         style="fill:#000000;fill-opacity:1;stroke:none;stroke-width:8;stroke-dasharray:none;stroke-opacity:1"
         d="m 530.45757,301.07872 v 99.65068 h 14.27921 v -99.65068 z"
         id="path14" />
      <path
         style="fill:#000000;fill-opacity:1;stroke:none;stroke-width:8;stroke-dasharray:none;stroke-opacity:1"
         d="m 646.21033,301.99016 v 101.77737 h 116.3604 V 300.77491 Z"
         id="path15" />
      <path
         style="fill:#000000;fill-opacity:1;stroke:none;stroke-width:8;stroke-dasharray:none;stroke-opacity:1"
         d="m 793.14593,299.04094 v 103.97688 h 438.24967 l 309.3527,-4.29657 v 151.23909 h -433.9531 l -6.0152,-0.85931 -24.0608,11.17107 -20.6235,15.46764 -13.3193,16.32694 -9.4525,27.49802 -0.4296,18.04557 3.4372,6.65968 100.9693,-2.36311 1.7186,-3.65208 v -48.76601 h 115.3628 l 4.331,-1.16049 4.1288,-4.12877 v -7.81527 l 357.0891,5.11394 84.0043,-1.36716 9.5701,-1.97479 13.5197,-4.55719 12.4564,-6.8358 14.1273,-10.17773 10.0258,-10.78537 8.051,-14.88683 5.7725,-16.254 2.8862,-17.16544 -0.1519,-15.95018 5.6205,-178.03444 z"
         id="path16" />
      <path
         style="fill:#000000;fill-opacity:1;stroke:none;stroke-width:8;stroke-dasharray:none;stroke-opacity:1"
         d="m 1767.48,758.29129 h -99.6507 v -7.89914 h -5.1648 v 20.20356 l 5.3158,-0.007 v -8.50002 h 99.8414 z"
         id="path18" />
      <path
         style="fill:#000000;fill-opacity:1;stroke:none;stroke-width:8;stroke-dasharray:none;stroke-opacity:1"
         d="m 1769.2452,813.67094 h -99.6507 v -7.89914 h -5.1648 v 20.20356 l 5.3158,-0.007 v -8.50002 h 99.8414 z"
         id="path18-0" />
      <path
         style="fill:#000000;fill-opacity:1;stroke:none;stroke-width:8;stroke-dasharray:none;stroke-opacity:1"
         d="m 1767.9106,872.52265 h -99.6507 v -7.89914 h -5.1648 v 20.20356 l 5.3158,-0.007 v -8.50002 h 99.8414 z"
         id="path18-9" />
      <path
         style="fill:#000000;fill-opacity:1;stroke:none;stroke-width:8;stroke-dasharray:none;stroke-opacity:1"
         d="m 1768.652,927.65574 h -99.6507 v -7.89914 h -5.1648 v 20.20356 l 5.3158,-0.007 v -8.50002 h 99.8414 z"
         id="path18-9-6" />
      <path
         style="fill:#000000;fill-opacity:1;stroke:none;stroke-width:8;stroke-dasharray:none;stroke-opacity:1"
         d="m 1767.8079,984.49987 h -99.6507 v -7.89914 h -5.1648 v 20.20356 l 5.3158,-0.007 v -8.50002 h 99.8414 z"
         id="path18-9-3" />
      <path
         style="fill:#000000;fill-opacity:1;stroke:none;stroke-width:8;stroke-dasharray:none;stroke-opacity:1"
         d="m 1768.23,1040.1957 h -99.6507 v -7.8991 h -5.1648 v 20.2036 l 5.3158,-0.01 v -8.5001 h 99.8414 z"
         id="path18-9-32" />
      <path
         style="fill:#000000;fill-opacity:1;stroke:none;stroke-width:8;stroke-dasharray:none;stroke-opacity:1"
         d="m 1767.8079,1099.1805 h -99.6507 v -7.8991 h -5.1648 v 20.2036 l 5.3158,-0.01 v -8.5001 h 99.8414 z"
         id="path18-9-5" />
      <path
         style="fill:#000000;fill-opacity:1;stroke:none;stroke-width:8;stroke-dasharray:none;stroke-opacity:1"
         d="m 1767.7927,1155.3288 h -99.6507 v -7.8991 h -5.1648 v 20.2036 l 5.3158,-0.01 v -8.5001 h 99.8414 z"
         id="path18-9-0" />
      <path
         style="fill:#000000;fill-opacity:1;stroke:none;stroke-width:8;stroke-dasharray:none;stroke-opacity:1"
         d="m 1767.5341,1210.6329 h -99.6507 v -7.8991 h -5.1648 v 20.2036 l 5.3158,-0.01 v -8.5001 h 99.8414 z"
         id="path18-9-00" />
      <path
         style="fill:#000000;fill-opacity:1;stroke:none;stroke-width:8;stroke-dasharray:none;stroke-opacity:1"
         d="m 1768.2452,1268.2984 h -99.6507 v -7.8991 h -5.1648 v 20.2036 l 5.3158,-0.01 v -8.5001 h 99.8414 z"
         id="path18-9-4" />
      <path
         style="fill:#000000;fill-opacity:1;stroke:none;stroke-width:8;stroke-dasharray:none;stroke-opacity:1"
         d="m 1995.6596,509.00185 h -99.6507 v -7.89914 h -5.1648 v 20.20356 l 5.3158,-0.007 v -8.50002 h 99.8414 z"
         id="path18-9-2" />
      <path
         style="fill:#000000;fill-opacity:1;stroke:none;stroke-width:8;stroke-dasharray:none;stroke-opacity:1"
         d="m 1995.0969,458.57979 h -99.6507 v -7.89914 h -5.1648 v 20.20356 l 5.3158,-0.007 v -8.50002 h 99.8414 z"
         id="path18-9-7" />
      <path
         style="fill:#000000;fill-opacity:1;stroke:none;stroke-width:8;stroke-dasharray:none;stroke-opacity:1"
         d="m 1992.0969,398.88395 h -99.6507 v -7.89914 h -5.1648 v 20.20356 l 5.3158,-0.007 v -8.50002 h 99.8414 z"
         id="path18-9-9" />
      <path
         style="fill:#000000;fill-opacity:1;stroke:none;stroke-width:8;stroke-dasharray:none;stroke-opacity:1"
         d="m 1993.8611,341.75086 h -99.6507 v -7.89914 h -5.1648 v 20.20356 l 5.3158,-0.007 v -8.50002 h 99.8414 z"
         id="path18-9-37" />
      <path
         style="fill:#000000;fill-opacity:1;stroke:none;stroke-width:8;stroke-dasharray:none;stroke-opacity:1"
         d="m 1993.979,285.25284 h -99.6507 v -7.89914 h -5.1648 v 20.20356 l 5.3158,-0.007 v -8.50002 h 99.8414 z"
         id="path18-9-49" />
      <path
         style="fill:#000000;fill-opacity:1;stroke:none;stroke-width:8;stroke-dasharray:none;stroke-opacity:1"
         d="m 1993.5493,232.28322 h -99.6507 v -7.89914 h -5.1648 v 20.20356 l 5.3158,-0.007 v -8.50002 h 99.8414 z"
         id="path18-9-78" />
      <path
         style="fill:#000000;fill-opacity:1;stroke:none;stroke-width:8;stroke-dasharray:none;stroke-opacity:1"
         d="m 1993.2679,176.86116 h -99.6507 v -7.89914 h -5.1648 v 20.20356 l 5.3158,-0.007 v -8.50002 h 99.8414 z"
         id="path18-9-03" />
      <path
         style="fill:#000000;fill-opacity:1;stroke:none;stroke-width:8;stroke-dasharray:none;stroke-opacity:1"
         d="m 592.926,300.65215 1.07414,97.3172 h -8.36253 v 3.92113 h 20.01368 v -3.87361 h -7.40544 v -97.90179 z"
         id="path19" />
      <path
         style="fill:#000000;fill-opacity:1;stroke:none;stroke-width:8;stroke-dasharray:none;stroke-opacity:1"
         d="m 288.39453,338.90344 -0.076,13.8235 c 0,0 -0.19536,7.25304 -3.45733,12.90295 -3.26197,5.6499 -15.53098,11.40209 -18.11339,11.554 -2.58241,0.1519 -15.34256,0.30381 -15.34256,0.30381 l 1.01792,50.87985 1.50379,112.14035 0.42966,142.43114 1.28897,98.821 0.85931,107.84378 -0.21483,126.53388 -0.55548,86.8555 16.18424,-0.011 h 4.94105 c 0,0 9.56475,5.3286 11.97668,9.5061 2.41192,4.1776 5.58553,12.2453 5.58553,12.2453 l 0.96673,4.941 -0.10742,19.6031 1.39639,366.7655 3.75949,25.1349 4.83364,16.6492 8.3783,19.6568 8.27089,14.1787 8.91537,14.2861 4.61881,7.0893 7.73382,9.9895 10.09692,10.0969 6.01519,5.5856 6.65968,7.8412 1.28897,4.0817 0.53707,8.1635 -1.82604,9.0228 -0.85931,2.6853 -77.38968,-91.2843 -38.58426,-138.8426 -6.07626,-264.925 -5.77245,-285.2804 -8.20295,-236.06273 -7.59532,-318.24416 z"
         id="path20" />
      <path
         style="fill:#000000;fill-opacity:1;stroke:none;stroke-width:8;stroke-dasharray:none;stroke-opacity:1"
         d="m 251.40529,495.44311 h 36.15375 v -8.58272 h 5.31673 v 21.72264 h -5.46864 v -8.43081 H 251.5572 Z"
         id="path21" />
      <path
         style="fill:#000000;fill-opacity:1;stroke:none;stroke-width:8;stroke-dasharray:none;stroke-opacity:1"
         d="m 249.25215,374.31089 h 36.15375 v -8.58272 h 5.31673 v 21.72264 h -5.46864 V 379.02 h -35.84993 z"
         id="path21-3" />
      <path
         style="fill:#000000;fill-opacity:1;stroke:none;stroke-width:8;stroke-dasharray:none;stroke-opacity:1"
         d="m 251.83518,617.72171 h 36.15375 v -8.58272 h 5.31673 v 21.72264 h -5.46864 v -8.43081 h -35.84993 z"
         id="path21-9" />
      <path
         style="fill:#000000;fill-opacity:1;stroke:none;stroke-width:8;stroke-dasharray:none;stroke-opacity:1"
         d="m 253.32841,737.81027 h 36.15375 v -8.58272 h 5.31673 v 21.72264 h -5.46864 v -8.43081 h -35.84993 z"
         id="path21-2" />
      <path
         style="fill:#000000;fill-opacity:1;stroke:none;stroke-width:8;stroke-dasharray:none;stroke-opacity:1"
         d="m 253.64453,858.53106 h 36.15375 v -8.58272 h 5.31673 v 21.72264 h -5.46864 v -8.43081 h -35.84993 z"
         id="path21-96" />
      <path
         style="fill:#000000;fill-opacity:1;stroke:none;stroke-width:8;stroke-dasharray:none;stroke-opacity:1"
         d="m 254.80935,979.54459 h 36.15375 v -8.58272 h 5.31673 v 21.72264 h -5.46864 v -8.43081 h -35.84993 z"
         id="path21-8" />
      <path
         style="fill:#000000;fill-opacity:1;stroke:none;stroke-width:8;stroke-dasharray:none;stroke-opacity:1"
         d="m 253.06273,1099.2408 h 36.15375 v -8.5827 h 5.31673 v 21.7226 h -5.46864 v -8.4308 h -35.84993 z"
         id="path21-4" />
      <path
         style="fill:#000000;fill-opacity:1;stroke:none;stroke-width:8;stroke-dasharray:none;stroke-opacity:1"
         d="m 449.94711,1700.8973 -0.15191,-6.3801 3.34195,-5.0129 4.7091,-5.0129 4.10148,-2.1267 15.34255,-0.1519 1076.56252,4.8335 4.6188,1.0742 7.4116,2.9001 6.0152,2.9002 7.1967,5.2633 5.0485,4.1892 5.1559,5.8003 4.941,7.8413 3.8669,7.8412 3.0076,9.6673 2.2557,6.7671 -46.8325,20.0864 -132.8713,6.4449 -137.6263,-4.7947 -271.6089,-15.1907 -295.61005,-17.925 -209.32718,-18.5326 z"
         id="path22" />
      <path
         style="fill:#000000;fill-opacity:1;stroke:none;stroke-width:8;stroke-dasharray:none;stroke-opacity:1"
         d="m 1666.6376,1710.8923 -0.4296,-13.749 0.4296,-8.808 3.4373,-9.8821 5.8004,-10.5266 8.8079,-8.1635 13.9639,-7.7338 25.3497,-12.8897 26.4239,-16.9714 26.209,-20.8384 c 0,0 16.7566,-15.0379 17.6159,-15.6824 0.8593,-0.6445 19.7642,-21.268 19.7642,-21.268 l 18.0456,-21.6977 17.4011,-26.209 17.8307,-32.4391 4.2966,-7.0893 -19.3345,123.5262 -48.9809,-4.5114 -82.0644,80.5606 z"
         id="path23" />
      <path
         style="fill:#000000;fill-opacity:1;stroke:none;stroke-width:8;stroke-dasharray:none;stroke-opacity:1"
         d="m 1764.8142,1326.3497 h -80.3458 l -6.8745,3.0076 -6.23,5.3707 -7.0894,8.3783 -3.2224,8.8079 1.5038,135.9863 0.6445,10.3118 3.0076,4.0817 3.6521,2.3631 4.941,1.7187 4.5114,0.2148 6.6597,-2.7928 9.0228,-8.3783 24.2756,-25.1349 15.8973,-21.4828 19.5493,-38.8839 5.1559,-16.7566 8.1635,-26.4239 0.4296,-18.6901 0.6445,-22.1273 z"
         id="path24" />
      <path
         style="fill:#000000;fill-opacity:1;stroke:none;stroke-width:8;stroke-dasharray:none;stroke-opacity:1"
         d="m 1764.698,1326.5996 -0.5283,-619.38497 5.2633,0.21483 -0.026,619.32204 z"
         id="path25" />
      <path
         style="fill:#000000;fill-opacity:1;stroke:none;stroke-width:8;stroke-dasharray:none;stroke-opacity:1"
         d="m 1785.4377,56.285004 0.4296,24.70525 100.5838,0.05187 0.9874,28.406526 0.9114,2.50645 2.2027,4.10148 3.6457,3.26599 5.2408,3.11408 9.1904,1.82288 80.4654,-0.51845 0.2148,436.10137 -97.9617,0.64448 h -2.1626 l -0.2278,3.76984 0.6835,5.69649 2.3546,5.16482 4.3293,5.62054 5.4687,4.10148 6.9877,3.87362 58.7118,0.68358 0.9781,101.49038 -298.3964,-1.28897 -3.3566,1.19619 -3.0381,2.12669 -1.671,2.58241 -0.6076,4.55719 0.6076,4.40529 1.747,3.26599 3.19,1.21526 95.3213,0.60762 142.6403,0.45572 0.3038,549.29393 46.4834,-332.67523 35.8499,-271.60886 25.5203,-193.83272 32.8118,-250.34194 21.8745,-155.552281 -281.6346,-2.126691 z"
         id="path26" />
      <path
         style="fill:#000000;fill-opacity:1;stroke:none;stroke-width:8;stroke-dasharray:none;stroke-opacity:1"
         d="m 467.78854,1682.7498 v -34.6948 h -7.84124 v -4.8336 h 20.62352 v 5.0484 h -7.84123 v 34.5874 z"
         id="path27" />
      <path
         style="fill:#000000;fill-opacity:1;stroke:none;stroke-width:8;stroke-dasharray:none;stroke-opacity:1"
         d="m 587.68011,1683.0475 v -34.6948 h -7.84124 v -4.8336 h 20.62352 v 5.0484 h -7.84123 v 34.5874 z"
         id="path27-0" />
      <path
         style="fill:#000000;fill-opacity:1;stroke:none;stroke-width:8;stroke-dasharray:none;stroke-opacity:1"
         d="m 707.30987,1683.8322 v -34.6948 h -7.84124 v -4.8336 h 20.62352 v 5.0484 h -7.84123 v 34.5874 z"
         id="path27-7" />
      <path
         style="fill:#000000;fill-opacity:1;stroke:none;stroke-width:8;stroke-dasharray:none;stroke-opacity:1"
         d="m 826.34801,1683.6551 v -34.6948 h -7.84124 v -4.8336 h 20.62352 v 5.0484 h -7.84123 v 34.5874 z"
         id="path27-3" />
      <path
         style="fill:#000000;fill-opacity:1;stroke:none;stroke-width:8;stroke-dasharray:none;stroke-opacity:1"
         d="m 945.90397,1684.617 v -34.6948 h -7.84124 v -4.8336 h 20.62352 v 5.0484 h -7.84123 v 34.5874 z"
         id="path27-8" />
      <path
         style="fill:#000000;fill-opacity:1;stroke:none;stroke-width:8;stroke-dasharray:none;stroke-opacity:1"
         d="m 1065.9052,1685.4398 v -34.6948 h -7.8412 v -4.8336 h 20.6235 v 5.0484 h -7.8412 v 34.5874 z"
         id="path27-2" />
      <path
         style="fill:#000000;fill-opacity:1;stroke:none;stroke-width:8;stroke-dasharray:none;stroke-opacity:1"
         d="m 1187.423,1686.136 v -34.6948 h -7.8412 v -4.8336 h 20.6235 v 5.0484 h -7.8412 v 34.5874 z"
         id="path27-03" />
      <path
         style="fill:#000000;fill-opacity:1;stroke:none;stroke-width:8;stroke-dasharray:none;stroke-opacity:1"
         d="m 1306.8166,1686.5666 v -34.6948 h -7.8412 v -4.8336 h 20.6235 v 5.0484 h -7.8412 v 34.5874 z"
         id="path27-4" />
      <path
         style="fill:#000000;fill-opacity:1;stroke:none;stroke-width:8;stroke-dasharray:none;stroke-opacity:1"
         d="m 1428.1585,1687.2246 v -34.6948 h -7.8412 v -4.8336 h 20.6235 v 5.0484 h -7.8412 v 34.5874 z"
         id="path27-36" />
      <path
         style="fill:#000000;fill-opacity:1;stroke:none;stroke-width:8;stroke-dasharray:none;stroke-opacity:1"
         d="m 1548.0442,1688.7068 v -34.6948 h -7.8412 v -4.8336 h 20.6235 v 5.0484 h -7.8412 v 34.5874 z"
         id="path27-6" />
    </g>
  </g>
</svg>
