<?xml version="1.0" encoding="UTF-8" standalone="no"?>
<!-- Created with Inkscape (http://www.inkscape.org/) -->

<svg
   version="1.1"
   id="svg1"
   width="2184"
   height="1976"
   viewBox="0 0 2184 1976"
   sodipodi:docname="first_aligned_shapes.svg"
   inkscape:version="1.3.2 (091e20e, 2023-11-25, custom)"
   xmlns:inkscape="http://www.inkscape.org/namespaces/inkscape"
   xmlns:sodipodi="http://sodipodi.sourceforge.net/DTD/sodipodi-0.dtd"
   xmlns:xlink="http://www.w3.org/1999/xlink"
   xmlns="http://www.w3.org/2000/svg"
   xmlns:svg="http://www.w3.org/2000/svg">
  <defs
     id="defs1" />
  <sodipodi:namedview
     id="namedview1"
     pagecolor="#ffffff"
     bordercolor="#000000"
     borderopacity="0.25"
     inkscape:showpageshadow="2"
     inkscape:pageopacity="0.0"
     inkscape:pagecheckerboard="0"
     inkscape:deskcolor="#d1d1d1"
     showgrid="false"
     inkscape:zoom="0.27690271"
     inkscape:cx="687.96727"
     inkscape:cy="940.76365"
     inkscape:window-width="1920"
     inkscape:window-height="1009"
     inkscape:window-x="-8"
     inkscape:window-y="-8"
     inkscape:window-maximized="1"
     inkscape:current-layer="walls-g" />
  <g
     inkscape:groupmode="layer"
     inkscape:label="Image"
     id="g1">
    <image
       width="2184"
       height="1976"
       preserveAspectRatio="none"
       xlink:href="first_aligned.png"
       id="image1"
       style="display:none"
       sodipodi:insensitive="true" />
    <g
       id="walls-g"
       style="display:inline"
       inkscape:label="walls">
      <path
         id="outside-walls"
         style="display:inline;fill:#000000;fill-opacity:1;stroke:none;stroke-width:8;stroke-dasharray:none;stroke-opacity:1"
         inkscape:label="Outside walls"
         d="M 1818.7773 7.1386719 L 1819.5371 46.179688 L 1777.7617 46.787109 L 1777.002 295.45898 L 466.28516 291.73633 L 466.39258 301.83398 L 530.45703 301.97461 L 530.45703 400.72852 L 544.73633 400.72852 L 544.73633 302.00586 L 599.61914 302.125 L 600.68359 398.57617 L 592.32227 398.57617 L 592.32227 402.49805 L 612.33594 402.49805 L 612.33594 398.625 L 604.92969 398.625 L 604.92969 302.13672 L 660.18555 302.25781 L 660.18555 403.76758 L 762.57031 403.76758 L 762.57031 302.48242 L 793.14648 302.54883 L 793.14648 403.01758 L 1231.3965 403.01758 L 1540.748 398.7207 L 1540.748 549.96094 L 1106.7949 549.96094 L 1100.7793 549.10156 L 1076.7188 560.27148 L 1056.0957 575.74023 L 1042.7773 592.06641 L 1033.3242 619.56445 L 1032.8945 637.60938 L 1036.332 644.26953 L 1036.3711 644.26953 L 1036.3711 652.72656 L 1040.3457 652.72656 L 1040.3457 645.69141 L 1132.6816 645.69141 L 1132.6973 698.85742 L 1038.4805 699.31641 L 1038.4805 691.04492 L 1034.291 691.04492 L 1034.291 709.57422 L 1038.2656 709.57422 L 1038.2656 702.53906 L 1132.6992 702.53906 L 1132.7148 755.23828 L 1038.6133 755.69727 L 1038.6133 747.42578 L 1034.4238 747.42578 L 1034.4238 765.95508 L 1038.3984 765.95508 L 1038.3984 758.91992 L 1132.7168 758.91992 L 1132.7324 811.36914 L 1041.4277 811.81445 L 1041.4277 803.54297 L 1037.2383 803.54297 L 1037.2383 822.07227 L 1041.2129 822.07227 L 1041.2129 815.03711 L 1132.7324 815.03711 L 1132.748 869.35156 L 1042.5039 869.79102 L 1042.5039 861.52148 L 1038.3145 861.52148 L 1038.3145 880.05078 L 1042.2891 880.05078 L 1042.2891 873.01367 L 1132.75 873.01367 L 1132.7656 924.49805 L 1040.4648 924.94727 L 1040.4648 916.67578 L 1036.2754 916.67578 L 1036.2754 935.20508 L 1040.25 935.20508 L 1040.25 928.16992 L 1132.7656 928.16992 L 1132.7812 980.75195 L 1041.0586 981.19922 L 1041.0586 972.92773 L 1036.8691 972.92773 L 1036.8691 991.45703 L 1040.8438 991.45703 L 1040.8438 984.42188 L 1132.7832 984.42188 L 1132.7988 1038.9219 L 1040.9102 1039.3691 L 1040.9102 1031.0996 L 1036.7207 1031.0996 L 1036.7207 1049.627 L 1040.6953 1049.627 L 1040.6953 1042.5918 L 1132.8008 1042.5918 L 1132.8145 1093.7246 L 1041.8945 1094.168 L 1041.8945 1085.8965 L 1037.7051 1085.8965 L 1037.7051 1104.4258 L 1041.6797 1104.4258 L 1041.6797 1097.3906 L 1132.8164 1097.3906 L 1132.832 1152.8926 L 1041.4648 1153.3398 L 1041.4648 1145.0684 L 1037.2754 1145.0684 L 1037.2754 1163.5977 L 1041.25 1163.5977 L 1041.25 1156.5625 L 1132.834 1156.5625 L 1132.8496 1210.1602 L 1039.7773 1210.6133 L 1039.7773 1202.3418 L 1035.5879 1202.3418 L 1035.5879 1220.8711 L 1039.5625 1220.8711 L 1039.5625 1213.8359 L 1132.8516 1213.8359 L 1132.8652 1264.1289 L 1039.7461 1264.582 L 1039.7461 1256.3125 L 1035.5586 1256.3125 L 1035.5586 1274.8418 L 1039.5312 1274.8418 L 1039.5312 1267.8047 L 1132.8672 1267.8047 L 1132.8828 1322.3008 L 1041.7324 1322.7461 L 1041.7324 1314.4746 L 1037.543 1314.4746 L 1037.543 1333.0039 L 1041.5176 1333.0039 L 1041.5176 1325.9688 L 1132.8848 1325.9688 L 1132.9004 1378.7031 L 1040.9023 1379.1523 L 1040.9023 1370.8828 L 1036.7129 1370.8828 L 1036.7129 1389.4121 L 1040.6875 1389.4121 L 1040.6875 1382.375 L 1132.9004 1382.375 L 1132.918 1437.1738 L 1034.6133 1436.3418 L 1032.25 1436.207 L 1032.6602 1441.5938 L 1034.7871 1450.0996 L 1041.7754 1465.5938 L 1052.1055 1480.4805 L 1068.207 1493.2402 L 1080.6621 1500.2285 L 1099.5 1506.3047 L 1114.082 1507.2168 L 1153.8828 1507.5195 L 1172.4141 1505.6973 L 1186.3906 1500.5332 L 1201.5801 1494.7598 L 1208.2637 1489.5957 L 1215.8594 1482.6074 L 1223.4551 1473.7969 L 1229.5312 1464.0742 L 1235 1454.6562 L 1237.8398 1438.0605 L 1139.4453 1437.2285 L 1139.3047 1382.375 L 1228.0176 1382.375 L 1228.0176 1390.5391 L 1232.6367 1390.5391 L 1232.6367 1370.5059 L 1227.9648 1370.5059 L 1227.9648 1378.2402 L 1139.2949 1378.6719 L 1139.1602 1325.9688 L 1228.8477 1325.9688 L 1228.8477 1334.1328 L 1233.4668 1334.1328 L 1233.4668 1314.0996 L 1228.793 1314.0996 L 1228.793 1321.834 L 1139.1504 1322.2715 L 1139.0098 1267.8047 L 1226.8613 1267.8047 L 1226.8613 1275.9688 L 1231.4805 1275.9688 L 1231.4805 1255.9355 L 1226.8086 1255.9355 L 1226.8086 1263.6699 L 1139 1264.0977 L 1138.8711 1213.8359 L 1226.8926 1213.8359 L 1226.8926 1222 L 1231.5117 1222 L 1231.5117 1201.9668 L 1226.8398 1201.9668 L 1226.8398 1209.7012 L 1138.8613 1210.1309 L 1138.7227 1156.5625 L 1228.5801 1156.5625 L 1228.5801 1164.7246 L 1233.1992 1164.7246 L 1233.1992 1144.6934 L 1228.5273 1144.6934 L 1228.5273 1152.4258 L 1138.7129 1152.8652 L 1138.5703 1097.3906 L 1229.0098 1097.3906 L 1229.0098 1105.5547 L 1233.6289 1105.5547 L 1233.6289 1085.5215 L 1228.957 1085.5215 L 1228.957 1093.2559 L 1138.5605 1093.6973 L 1138.4297 1042.5918 L 1228.0254 1042.5918 L 1228.0254 1050.7559 L 1232.6445 1050.7559 L 1232.6445 1030.7227 L 1227.9727 1030.7227 L 1227.9727 1038.457 L 1138.4199 1038.8945 L 1138.2793 984.42188 L 1228.1738 984.42188 L 1228.1738 992.58398 L 1232.793 992.58398 L 1232.793 972.55273 L 1228.1211 972.55273 L 1228.1211 980.28516 L 1138.2695 980.72461 L 1138.1348 928.16992 L 1227.5801 928.16992 L 1227.5801 936.33398 L 1232.1992 936.33398 L 1232.1992 916.30078 L 1227.5273 916.30078 L 1227.5273 924.03516 L 1138.125 924.4707 L 1137.9922 873.01367 L 1229.6191 873.01367 L 1229.6191 881.17773 L 1234.2383 881.17773 L 1234.2383 861.14453 L 1229.5645 861.14453 L 1229.5645 868.87891 L 1137.9824 869.32617 L 1137.8438 815.03711 L 1228.543 815.03711 L 1228.543 823.20117 L 1233.1621 823.20117 L 1233.1621 803.16797 L 1228.4883 803.16797 L 1228.4883 810.90234 L 1137.834 811.34375 L 1137.6992 758.91992 L 1225.7285 758.91992 L 1225.7285 767.08203 L 1230.3477 767.08203 L 1230.3477 747.05078 L 1225.6758 747.05078 L 1225.6758 754.7832 L 1137.6895 755.21289 L 1137.5527 702.53906 L 1225.5957 702.53906 L 1225.5957 710.70312 L 1230.2148 710.70312 L 1230.2148 690.66992 L 1225.543 690.66992 L 1225.543 698.4043 L 1137.543 698.83398 L 1137.4062 645.69141 L 1227.6758 645.69141 L 1227.6758 653.85352 L 1232.2949 653.85352 L 1232.2949 633.82227 L 1227.623 633.82227 L 1227.623 641.55469 L 1132.4531 642.01953 L 1137.3008 641.90625 L 1139.0195 638.25391 L 1139.0195 589.48828 L 1254.3828 589.48828 L 1258.7129 588.32812 L 1262.8418 584.19922 L 1262.8418 576.38477 L 1619.9316 581.49805 L 1703.9355 580.13086 L 1713.5059 578.15625 L 1727.0254 573.59961 L 1739.4824 566.76367 L 1753.6094 556.58594 L 1763.6348 545.80078 L 1771.6855 530.91406 L 1777.459 514.66016 L 1780.3438 497.49414 L 1780.1934 481.54297 L 1785.7734 304.72461 L 1786.1172 304.72461 L 1785.5625 63.46875 L 1785.8672 80.990234 L 1886.4512 81.042969 L 1887.4395 109.44922 L 1888.3496 111.95508 L 1890.5527 116.05664 L 1894.1992 119.32227 L 1899.4395 122.4375 L 1908.6289 124.25977 L 1989.0957 123.74023 L 1989.1211 176.86133 L 1893.6172 176.86133 L 1893.6172 168.96289 L 1888.4531 168.96289 L 1888.4531 189.16602 L 1893.7676 189.1582 L 1893.7676 180.6582 L 1989.123 180.6582 L 1989.1484 232.2832 L 1893.8984 232.2832 L 1893.8984 224.38477 L 1888.7344 224.38477 L 1888.7344 244.58789 L 1894.0488 244.58008 L 1894.0488 236.08008 L 1989.1504 236.08008 L 1989.1758 285.25195 L 1894.3281 285.25195 L 1894.3281 277.35352 L 1889.1641 277.35352 L 1889.1641 297.55664 L 1894.4785 297.55078 L 1894.4785 289.05078 L 1989.1777 289.05078 L 1989.2031 341.75 L 1894.2109 341.75 L 1894.2109 333.85156 L 1889.0449 333.85156 L 1889.0449 354.05469 L 1894.3613 354.04883 L 1894.3613 345.54883 L 1989.2051 345.54883 L 1989.2305 398.88477 L 1892.4453 398.88477 L 1892.4453 390.98438 L 1887.2812 390.98438 L 1887.2812 411.1875 L 1892.5977 411.18164 L 1892.5977 402.68164 L 1989.2324 402.68164 L 1989.2598 458.58008 L 1895.4453 458.58008 L 1895.4453 450.67969 L 1890.2812 450.67969 L 1890.2812 470.88477 L 1895.5977 470.87695 L 1895.5977 462.37695 L 1989.2617 462.37695 L 1989.2852 509.00195 L 1896.0098 509.00195 L 1896.0098 501.10352 L 1890.8438 501.10352 L 1890.8438 521.30664 L 1896.1602 521.29883 L 1896.1602 512.79883 L 1989.2871 512.79883 L 1989.3105 559.8418 L 1891.3477 560.48633 L 1889.1855 560.48633 L 1888.957 564.25586 L 1889.6406 569.95312 L 1891.9961 575.11719 L 1896.3242 580.73828 L 1901.793 584.83984 L 1908.7812 588.71289 L 1967.4941 589.39648 L 1968.4707 690.88672 L 1670.0742 689.59961 L 1666.7188 690.79492 L 1663.6797 692.92188 L 1662.0098 695.50391 L 1661.4023 700.06055 L 1662.0098 704.4668 L 1663.7559 707.73242 L 1666.9453 708.94727 L 1762.2676 709.55469 L 1764.1719 709.56055 L 1764.2129 758.29102 L 1667.8301 758.29102 L 1667.8301 750.39258 L 1662.6641 750.39258 L 1662.6641 770.5957 L 1667.9805 770.58789 L 1667.9805 762.08789 L 1764.2168 762.08789 L 1764.2598 813.67188 L 1669.5938 813.67188 L 1669.5938 805.77148 L 1664.4297 805.77148 L 1664.4297 825.97461 L 1669.7461 825.96875 L 1669.7461 817.46875 L 1764.2637 817.46875 L 1764.3105 872.52344 L 1668.2598 872.52344 L 1668.2598 864.62305 L 1663.0957 864.62305 L 1663.0957 884.82617 L 1668.4102 884.82031 L 1668.4102 876.32031 L 1764.3145 876.32031 L 1764.3574 927.65625 L 1669.002 927.65625 L 1669.002 919.75586 L 1663.8359 919.75586 L 1663.8359 939.96094 L 1669.1523 939.95312 L 1669.1523 931.45312 L 1764.3613 931.45312 L 1764.4062 984.5 L 1668.1562 984.5 L 1668.1562 976.60156 L 1662.9922 976.60156 L 1662.9922 996.80469 L 1668.3086 996.79688 L 1668.3086 988.29688 L 1764.4102 988.29688 L 1764.4531 1040.1953 L 1668.5801 1040.1953 L 1668.5801 1032.2969 L 1663.4141 1032.2969 L 1663.4141 1052.5 L 1668.7305 1052.4902 L 1668.7305 1043.9902 L 1764.457 1043.9902 L 1764.5039 1099.1797 L 1668.1562 1099.1797 L 1668.1562 1091.2812 L 1662.9922 1091.2812 L 1662.9922 1111.4844 L 1668.3086 1111.4746 L 1668.3086 1102.9746 L 1764.5078 1102.9746 L 1764.5508 1155.3281 L 1668.1426 1155.3281 L 1668.1426 1147.4297 L 1662.9766 1147.4297 L 1662.9766 1167.6328 L 1668.293 1167.623 L 1668.293 1159.123 L 1764.5547 1159.123 L 1764.5977 1210.6328 L 1667.8828 1210.6328 L 1667.8828 1202.7344 L 1662.7188 1202.7344 L 1662.7188 1222.9375 L 1668.0352 1222.9277 L 1668.0352 1214.4277 L 1764.6016 1214.4277 L 1764.6484 1268.2988 L 1668.5938 1268.2988 L 1668.5938 1260.3984 L 1663.4297 1260.3984 L 1663.4297 1280.6035 L 1668.7461 1280.5938 L 1668.7461 1272.0938 L 1764.6504 1272.0938 L 1764.6973 1326.3496 L 1684.4688 1326.3496 L 1677.5938 1329.3574 L 1671.3633 1334.7285 L 1664.2754 1343.1055 L 1661.0527 1351.9141 L 1662.5566 1487.9004 L 1663.2012 1498.2129 L 1666.207 1502.2949 L 1669.8594 1504.6562 L 1674.8008 1506.375 L 1679.3125 1506.5898 L 1685.9727 1503.7969 L 1694.9941 1495.4199 L 1719.2715 1470.2852 L 1735.168 1448.8027 L 1754.7168 1409.918 L 1759.873 1393.1621 L 1768.0371 1366.7383 L 1768.4668 1348.0469 L 1769.0879 1326.7422 L 1769.4062 1326.752 L 1769.4297 817.46875 L 1769.5859 817.46875 L 1769.4297 815.71289 L 1769.4336 709.57812 L 1904.9082 710.01172 L 1905.2051 1248.5664 L 1887.8945 1378.0957 L 1852.8945 1599.6113 L 1852.3906 1599.5664 L 1871.584 1476.9434 L 1867.2871 1484.0332 L 1849.457 1516.4727 L 1832.0547 1542.6816 L 1814.0098 1564.3789 C 1814.0098 1564.3789 1795.1054 1585.002 1794.2461 1585.6465 C 1793.3868 1586.291 1776.6289 1601.3301 1776.6289 1601.3301 L 1750.4199 1622.168 L 1723.9961 1639.1387 L 1698.6465 1652.0293 L 1684.6836 1659.7637 L 1675.875 1667.9258 L 1670.0742 1678.4531 L 1666.6367 1688.3359 L 1666.207 1697.1426 L 1666.6133 1710.127 L 1643.3242 1724.8984 L 1603.0273 1740.2598 L 1601.1152 1734.5234 L 1598.1074 1724.8555 L 1594.2402 1717.0156 L 1589.2988 1709.1738 L 1584.1445 1703.373 L 1579.0957 1699.1836 L 1571.8984 1693.9199 L 1565.8828 1691.0215 L 1558.4707 1688.1211 L 1553.8535 1687.0469 L 1552.9844 1687.043 L 1552.9844 1654.2266 L 1560.8262 1654.2266 L 1560.8262 1649.1777 L 1540.2031 1649.1777 L 1540.2031 1654.0117 L 1548.0449 1654.0117 L 1548.0449 1687.0215 L 1433.0996 1686.5039 L 1433.0996 1652.7441 L 1440.9414 1652.7441 L 1440.9414 1647.6953 L 1420.3164 1647.6953 L 1420.3164 1652.5293 L 1428.1582 1652.5293 L 1428.1582 1686.4824 L 1311.7578 1685.959 L 1311.7578 1652.0859 L 1319.5996 1652.0859 L 1319.5996 1647.0391 L 1298.9746 1647.0391 L 1298.9746 1651.8711 L 1306.8164 1651.8711 L 1306.8164 1685.9375 L 1192.3633 1685.4238 L 1192.3633 1651.6562 L 1200.2051 1651.6562 L 1200.2051 1646.6074 L 1179.582 1646.6074 L 1179.582 1651.4414 L 1187.4238 1651.4414 L 1187.4238 1685.4023 L 1070.8457 1684.8789 L 1070.8457 1650.959 L 1078.6875 1650.959 L 1078.6875 1645.9121 L 1058.0645 1645.9121 L 1058.0645 1650.7441 L 1065.9043 1650.7441 L 1065.9043 1684.8555 L 950.8457 1684.3398 L 950.8457 1650.1367 L 958.68555 1650.1367 L 958.68555 1645.0879 L 938.0625 1645.0879 L 938.0625 1649.9219 L 945.9043 1649.9219 L 945.9043 1684.3164 L 712.25 1683.2676 L 712.25 1649.3516 L 720.0918 1649.3516 L 720.0918 1644.3047 L 699.46875 1644.3047 L 699.46875 1649.1367 L 707.31055 1649.1367 L 707.31055 1683.2461 L 592.62109 1682.7305 L 592.62109 1648.5684 L 600.46289 1648.5684 L 600.46289 1643.5195 L 579.83984 1643.5195 L 579.83984 1648.3535 L 587.67969 1648.3535 L 587.67969 1682.709 L 477.29102 1682.2129 L 472.73047 1682.2578 L 472.73047 1648.2695 L 480.57031 1648.2695 L 480.57031 1643.2207 L 459.94727 1643.2207 L 459.94727 1648.0547 L 467.78906 1648.0547 L 467.78906 1682.3066 L 461.94727 1682.3652 L 457.8457 1684.4922 L 453.13672 1689.5039 L 449.79492 1694.5176 L 449.91797 1699.668 L 365.46094 1669.3828 L 365.95898 1667.8203 L 367.78516 1658.7969 L 367.24805 1650.6328 L 365.95898 1646.5508 L 359.30078 1638.7109 L 353.28516 1633.125 L 343.1875 1623.0273 L 335.45508 1613.0391 L 330.83594 1605.9492 L 321.91992 1591.6621 L 313.64844 1577.4844 L 305.27148 1557.8281 L 300.4375 1541.1777 L 296.67773 1516.043 L 295.28125 1149.2773 L 295.38867 1129.6738 L 294.42188 1124.7344 C 294.42188 1124.7344 291.24786 1116.6659 288.83594 1112.4883 C 286.79001 1108.9447 280.53815 1105.1944 278.40234 1103.9492 L 289.06445 1103.9492 L 289.06445 1112.3809 L 294.5332 1112.3809 L 294.5332 1090.6582 L 289.2168 1090.6582 L 289.2168 1099.2402 L 255.75781 1099.2402 L 256.29102 1016.1387 L 256.3457 984.25391 L 290.81055 984.25391 L 290.81055 992.68359 L 296.2793 992.68359 L 296.2793 970.96094 L 290.96289 970.96094 L 290.96289 979.54492 L 256.35352 979.54492 L 256.50586 889.60352 L 256.29492 863.24023 L 289.64648 863.24023 L 289.64648 871.67188 L 295.11523 871.67188 L 295.11523 849.94922 L 289.79883 849.94922 L 289.79883 858.53125 L 256.25781 858.53125 L 255.64648 781.75977 L 255.13477 742.51953 L 289.33008 742.51953 L 289.33008 750.94922 L 294.79883 750.94922 L 294.79883 729.22852 L 289.48242 729.22852 L 289.48242 737.81055 L 255.07227 737.81055 L 254.35742 682.93945 L 254.17578 622.43164 L 287.83789 622.43164 L 287.83789 630.86133 L 293.30469 630.86133 L 293.30469 609.13867 L 287.98828 609.13867 L 287.98828 617.72266 L 254.16016 617.72266 L 253.92773 540.50781 L 253.38672 500.15234 L 287.40625 500.15234 L 287.40625 508.58398 L 292.875 508.58398 L 292.875 486.86133 L 287.55859 486.86133 L 287.55859 495.44336 L 253.32422 495.44336 L 252.42383 428.36719 L 251.43555 379.01953 L 285.25391 379.01953 L 285.25391 387.45117 L 290.72266 387.45117 L 290.72266 365.72852 L 285.40625 365.72852 L 285.40625 374.31055 L 273.8457 374.31055 C 278.14879 372.07746 282.97027 368.90627 284.86133 365.63086 C 288.12329 359.98096 288.31836 352.72656 288.31836 352.72656 L 288.39453 338.90625 L 362.46484 338.73438 L 363.06055 372.08203 L 369.50391 382.39453 L 379.60156 388.83984 L 397.2168 390.77344 L 410.75195 390.98828 L 417.41211 388.83984 L 423.42578 381.96484 L 425.57422 377.45312 L 425.57422 300.11523 L 419.64062 299.91797 L 417.13477 45.724609 L 407.86914 45.724609 L 410.75586 329.0293 L 215.25195 329.48438 L 226.18945 758.46875 L 233.32812 1032.0527 L 235.75977 1117.7285 L 238.3418 1272.0645 L 240.16406 1347.5625 L 242.89844 1447.5176 L 267.66016 1542.1543 L 280.72266 1583.7773 L 359.10742 1676.4395 L 447.97266 1709.252 L 568.13086 1720.7969 L 691.17383 1733.5566 L 777.00195 1741.1523 L 896.24805 1746.9258 L 1001.5195 1752.5449 L 1115.2969 1758.3184 L 1207.5059 1763.7871 L 1303.5098 1769.2559 L 1396.3242 1773.3574 L 1486.5566 1771.0781 L 1556.7383 1768.6484 L 1626.918 1741.457 L 1645.6035 1734.0137 L 1696.0371 1702.873 L 1727.3281 1682.668 L 1753.3047 1657.6035 L 1806.7754 1605.3477 L 1860.248 1609.2969 L 1874.375 1533.6484 L 1885.6152 1463.3164 L 1896.5527 1390.5527 L 1905.9707 1318.2441 L 1914.0215 1258.0898 L 1924.6562 1183.3516 L 1930.7324 1130.0332 L 1939.543 1070.334 L 1948.2012 1006.8359 L 1956.252 947.28906 L 1965.5176 875.89258 L 1976.9121 786.11719 L 1988 701.80859 L 2004.5586 577.70117 L 2015.4961 498.55664 L 2025.0664 421.08398 L 2039.1934 317.0293 L 2050.7383 231.35352 L 2058.334 172.10938 L 2069.7266 83.244141 L 2073.6758 48.761719 L 1832.4492 46.787109 L 1829.5625 46.634766 L 1830.625 7.2910156 L 1818.7773 7.1386719 z M 455.41602 474.09961 L 447.82031 475.16406 L 437.94727 478.80859 L 430.04688 483.51758 L 424.42773 488.07617 L 415.00781 497.94922 L 410.45117 506.60742 L 407.26172 513.5957 L 408.33398 576.82812 L 408.32422 576.82812 L 408.32422 595.35742 L 412.29883 595.35742 L 412.29883 588.32227 L 503.67188 588.32227 L 503.83203 639.79297 L 411.71875 640.24219 L 411.71875 631.9707 L 407.5293 631.9707 L 407.5293 650.5 L 411.50391 650.5 L 411.50391 643.46484 L 503.84375 643.46484 L 504.00977 697.49023 L 413.38672 697.93164 L 413.38672 689.66016 L 409.19727 689.66016 L 409.19727 708.18945 L 413.17188 708.18945 L 413.17188 701.1543 L 504.02148 701.1543 L 504.1875 754.32617 L 411.30664 754.7793 L 411.30664 746.50977 L 407.11719 746.50977 L 407.11719 765.03711 L 411.0918 765.03711 L 411.0918 758.00195 L 504.19727 758.00195 L 504.36133 810.70703 L 411.43945 811.16016 L 411.43945 802.88867 L 407.25195 802.88867 L 407.25195 821.41797 L 411.22461 821.41797 L 411.22461 814.38281 L 504.37305 814.38281 L 504.53516 866.83789 L 414.25391 867.27734 L 414.25391 859.00781 L 410.06445 859.00781 L 410.06445 877.53516 L 414.03906 877.53516 L 414.03906 870.5 L 504.54688 870.5 L 504.71484 924.81836 L 415.33008 925.25586 L 415.33008 916.98438 L 411.14062 916.98438 L 411.14062 935.51367 L 415.11523 935.51367 L 415.11523 928.47852 L 504.72656 928.47852 L 504.88672 979.96289 L 413.29102 980.41016 L 413.29102 972.14062 L 409.10352 972.14062 L 409.10352 990.66992 L 413.07617 990.66992 L 413.07617 983.63281 L 504.89648 983.63281 L 505.06055 1036.2168 L 413.88477 1036.6621 L 413.88477 1028.3906 L 409.69531 1028.3906 L 409.69531 1046.9199 L 413.66992 1046.9199 L 413.66992 1039.8848 L 505.07227 1039.8848 L 505.24023 1094.3867 L 413.73633 1094.834 L 413.73633 1086.5625 L 409.54688 1086.5625 L 409.54688 1105.0918 L 413.52148 1105.0918 L 413.52148 1098.0547 L 505.25195 1098.0547 L 505.41016 1149.1895 L 414.7207 1149.6309 L 414.7207 1141.3613 L 410.5332 1141.3613 L 410.5332 1159.8906 L 414.50586 1159.8906 L 414.50586 1152.8535 L 505.42188 1152.8535 L 505.59375 1208.3574 L 414.29102 1208.8027 L 414.29102 1200.5312 L 410.10352 1200.5312 L 410.10352 1219.0605 L 414.07617 1219.0605 L 414.07617 1212.0254 L 505.60547 1212.0254 L 505.77148 1265.6211 L 412.60352 1266.0762 L 412.60352 1257.8047 L 408.41406 1257.8047 L 408.41406 1276.334 L 412.38867 1276.334 L 412.38867 1269.2988 L 505.7832 1269.2988 L 505.9375 1319.5898 L 412.57227 1320.0469 L 412.57227 1311.7754 L 408.38477 1311.7754 L 408.38477 1330.3047 L 412.35938 1330.3047 L 412.35938 1323.2695 L 505.94922 1323.2695 L 506.11914 1377.7617 L 414.55859 1378.209 L 414.55859 1369.9395 L 410.36914 1369.9395 L 410.36914 1388.4668 L 414.34375 1388.4668 L 414.34375 1381.4316 L 506.13086 1381.4316 L 506.29297 1434.1641 L 413.72852 1434.6172 L 413.72852 1426.3457 L 409.53906 1426.3457 L 409.53906 1444.875 L 413.51367 1444.875 L 413.51367 1437.8398 L 506.30469 1437.8398 L 506.45312 1485.4883 L 414.82812 1484.8926 L 414.82812 1483.5117 L 410.63867 1483.5117 L 410.63867 1487.9238 L 409.69141 1488.8359 L 407.41406 1494.6074 L 407.56445 1509.9512 L 409.23633 1518.1543 L 414.25 1531.5215 L 422.45117 1545.9531 L 433.23828 1558.4082 L 450.85938 1571.4727 L 478.20117 1579.373 L 489.74609 1581.6504 L 520.2793 1582.1055 L 545.64844 1581.9551 C 545.64844 1581.9551 584.07988 1581.498 584.6875 1581.498 C 585.29513 1581.498 606.25977 1580.7383 606.25977 1580.7383 L 608.53711 1578.0059 L 611.27148 1572.6875 L 610.66406 1565.7012 L 610.51172 1560.3848 L 608.8418 1557.1934 L 606.41016 1553.5488 L 603.52539 1550.8145 L 600.48633 1549.5977 L 597.75195 1548.2305 L 582.56055 1547.4727 L 528.93945 1547.168 L 513.74805 1546.7129 L 512.68945 1495.0059 L 601.94336 1495.0059 L 601.94336 1503.1699 L 606.5625 1503.1699 L 606.5625 1483.1367 L 601.89062 1483.1367 L 601.89062 1490.8711 L 512.68359 1491.3066 L 512.68359 1485.2656 L 511.54102 1485.3125 L 511.42578 1437.8398 L 600.84375 1437.8398 L 600.84375 1446.002 L 605.46289 1446.002 L 605.46289 1425.9688 L 600.79102 1425.9688 L 600.79102 1433.7031 L 511.41602 1434.1406 L 511.28906 1381.4316 L 601.67383 1381.4316 L 601.67383 1389.5957 L 606.29297 1389.5957 L 606.29297 1369.5625 L 601.61914 1369.5625 L 601.61914 1377.2969 L 511.2793 1377.7383 L 511.14844 1323.2695 L 599.68945 1323.2695 L 599.68945 1331.4316 L 604.30664 1331.4316 L 604.30664 1311.3984 L 599.63477 1311.3984 L 599.63477 1319.1328 L 511.13867 1319.5645 L 511.01758 1269.2988 L 599.71875 1269.2988 L 599.71875 1277.4629 L 604.33789 1277.4629 L 604.33789 1257.4297 L 599.66602 1257.4297 L 599.66602 1265.1641 L 511.00781 1265.5957 L 510.87695 1212.0254 L 601.4082 1212.0254 L 601.4082 1220.1895 L 606.02539 1220.1895 L 606.02539 1200.1562 L 601.35352 1200.1562 L 601.35352 1207.8906 L 510.86914 1208.332 L 510.73438 1152.8535 L 601.83789 1152.8535 L 601.83789 1161.0176 L 606.45508 1161.0176 L 606.45508 1140.9844 L 601.7832 1140.9844 L 601.7832 1148.7188 L 510.72461 1149.1621 L 510.60156 1098.0547 L 600.85156 1098.0547 L 600.85156 1106.2188 L 605.4707 1106.2188 L 605.4707 1086.1855 L 600.79883 1086.1855 L 600.79883 1093.9199 L 510.5918 1094.3613 L 510.45898 1039.8848 L 601 1039.8848 L 601 1048.0488 L 605.61914 1048.0488 L 605.61914 1028.0156 L 600.94727 1028.0156 L 600.94727 1035.748 L 510.45117 1036.1895 L 510.32422 983.63281 L 600.4082 983.63281 L 600.4082 991.79688 L 605.02539 991.79688 L 605.02539 971.76367 L 600.35352 971.76367 L 600.35352 979.49805 L 510.31445 979.9375 L 510.18945 928.47852 L 602.44531 928.47852 L 602.44531 936.64062 L 607.06445 936.64062 L 607.06445 916.60742 L 602.39062 916.60742 L 602.39062 924.3418 L 510.17969 924.79297 L 510.04883 870.5 L 601.36914 870.5 L 601.36914 878.66406 L 605.98828 878.66406 L 605.98828 858.63086 L 601.31641 858.63086 L 601.31641 866.36523 L 510.03906 866.81055 L 509.91211 814.38281 L 598.55469 814.38281 L 598.55469 822.54688 L 603.17383 822.54688 L 603.17383 802.51367 L 598.50195 802.51367 L 598.50195 810.24609 L 509.9043 810.67969 L 509.77539 758.00195 L 598.42188 758.00195 L 598.42188 766.16602 L 603.04102 766.16602 L 603.04102 746.13281 L 598.36914 746.13281 L 598.36914 753.86719 L 509.76758 754.29883 L 509.63867 701.1543 L 600.50195 701.1543 L 600.50195 709.31836 L 605.12109 709.31836 L 605.12109 689.28516 L 600.44922 689.28516 L 600.44922 697.01953 L 509.62891 697.46289 L 509.49805 643.46484 L 598.83398 643.46484 L 598.83398 651.62695 L 603.45312 651.62695 L 603.45312 631.5957 L 598.7793 631.5957 L 598.7793 639.32812 L 509.48828 639.76367 L 509.36328 588.32227 L 599.62891 588.32227 L 599.62891 596.48633 L 604.24805 596.48633 L 604.24805 576.45312 L 599.57617 576.45312 L 599.57617 584.18555 L 509.33984 584.62695 L 508.43164 533.64844 L 599.72656 532.43164 L 602.1582 529.84961 L 602.46094 524.98828 L 602.76562 489.13867 L 719.125 489.13867 L 719.42969 528.78711 L 721.70703 531.97656 L 723.68359 533.79883 L 727.63281 533.95117 L 913.86914 533.49609 L 913.86914 475.77148 L 455.41602 474.09961 z M 728.84766 646.58984 L 724.0625 646.66602 L 721.70703 647.88086 L 719.80859 649.32422 L 718.66992 652.13477 L 718.97266 697.25 L 719.42969 699.68164 L 722.4668 701.80859 L 724.59375 703.47852 L 729.30273 704.54297 L 816.34961 704.91016 L 816.46875 753.68555 L 726.15625 754.12695 L 726.15625 745.85547 L 721.9668 745.85547 L 721.9668 764.38477 L 725.94141 764.38477 L 725.94141 757.34961 L 816.47852 757.34961 L 816.60938 810.52344 L 724.07617 810.97461 L 724.07617 802.70312 L 719.88672 802.70312 L 719.88672 821.23242 L 723.86133 821.23242 L 723.86133 814.19727 L 816.61914 814.19727 L 816.74805 866.90234 L 724.20898 867.35547 L 724.20898 859.08398 L 720.01953 859.08398 L 720.01953 877.61328 L 723.99414 877.61328 L 723.99414 870.57812 L 816.75781 870.57812 L 816.88672 923.03516 L 727.02344 923.47266 L 727.02344 915.20117 L 722.83398 915.20117 L 722.83398 933.73047 L 726.80859 933.73047 L 726.80859 926.69531 L 816.89648 926.69531 L 817.03125 981.01562 L 728.09961 981.44922 L 728.09961 973.17969 L 723.91016 973.17969 L 723.91016 991.70703 L 727.88477 991.70703 L 727.88477 984.67188 L 817.03906 984.67188 L 817.16602 1036.1621 L 726.06055 1036.6055 L 726.06055 1028.334 L 721.87109 1028.334 L 721.87109 1046.8633 L 725.8457 1046.8633 L 725.8457 1039.8281 L 817.17578 1039.8281 L 817.30469 1092.4141 L 726.6543 1092.8574 L 726.6543 1084.5859 L 722.46484 1084.5859 L 722.46484 1103.1152 L 726.43945 1103.1152 L 726.43945 1096.0801 L 817.31445 1096.0801 L 817.44922 1150.584 L 726.50586 1151.0273 L 726.50586 1142.7578 L 722.31641 1142.7578 L 722.31641 1161.2852 L 726.29102 1161.2852 L 726.29102 1154.25 L 817.45703 1154.25 L 817.58398 1205.3867 L 727.49023 1205.8262 L 727.49023 1197.5547 L 723.30078 1197.5547 L 723.30078 1216.084 L 727.27539 1216.084 L 727.27539 1209.0488 L 817.59375 1209.0488 L 817.73047 1264.5547 L 727.06055 1264.998 L 727.06055 1256.7266 L 722.87109 1256.7266 L 722.87109 1275.2559 L 726.8457 1275.2559 L 726.8457 1268.2207 L 817.73828 1268.2207 L 817.87109 1321.8203 L 725.37305 1322.2715 L 725.37305 1314 L 721.18359 1314 L 721.18359 1332.5293 L 725.1582 1332.5293 L 725.1582 1325.4941 L 817.88086 1325.4941 L 818.00391 1375.7891 L 725.3418 1376.2402 L 725.3418 1367.9707 L 721.15234 1367.9707 L 721.15234 1386.498 L 725.12695 1386.498 L 725.12695 1379.4629 L 818.01367 1379.4629 L 818.14844 1433.9609 L 727.32617 1434.4043 L 727.32617 1426.1328 L 723.13867 1426.1328 L 723.13867 1444.6621 L 727.11133 1444.6621 L 727.11133 1437.627 L 818.15625 1437.627 L 818.27734 1486.2754 L 725.04492 1485.9668 L 720.96289 1491.5527 L 721.39258 1501.2207 L 721.60742 1510.8867 L 722.68164 1519.2656 L 727.4082 1530.8652 L 733.63867 1543.7559 L 749.10547 1560.9414 L 763.28516 1570.8242 L 778.10742 1577.6992 L 792.93164 1581.1367 L 858.88281 1580.707 L 866.83203 1577.6992 L 884.66211 1568.6758 L 896.9082 1560.082 L 908.29297 1548.6973 L 914.73828 1537.7402 L 919.03516 1528.7188 L 922.6875 1511.1016 L 923.76172 1496.9238 L 922.47266 1489.4043 L 920.10938 1486.6113 L 824.4707 1486.2949 L 824.4043 1437.627 L 914.44336 1437.627 L 914.44336 1445.791 L 919.06055 1445.791 L 919.06055 1425.7578 L 914.38867 1425.7578 L 914.38867 1433.4902 L 824.40039 1433.9297 L 824.32617 1379.4629 L 912.45703 1379.4629 L 912.45703 1387.627 L 917.07617 1387.627 L 917.07617 1367.5938 L 912.4043 1367.5938 L 912.4043 1375.3281 L 824.32031 1375.7578 L 824.25195 1325.4941 L 912.48828 1325.4941 L 912.48828 1333.6562 L 917.10742 1333.6562 L 917.10742 1313.625 L 912.43359 1313.625 L 912.43359 1321.3574 L 824.24805 1321.7891 L 824.17578 1268.2207 L 914.17578 1268.2207 L 914.17578 1276.3828 L 918.79492 1276.3828 L 918.79492 1256.3516 L 914.12305 1256.3516 L 914.12305 1264.084 L 824.16992 1264.5234 L 824.0957 1209.0488 L 914.60547 1209.0488 L 914.60547 1217.2129 L 919.22461 1217.2129 L 919.22461 1197.1797 L 914.55273 1197.1797 L 914.55273 1204.9141 L 824.08984 1205.3555 L 824.02148 1154.25 L 913.62109 1154.25 L 913.62109 1162.4141 L 918.24023 1162.4141 L 918.24023 1142.3809 L 913.56641 1142.3809 L 913.56641 1150.1152 L 824.01562 1150.5527 L 823.94141 1096.0801 L 913.76953 1096.0801 L 913.76953 1104.2422 L 918.38867 1104.2422 L 918.38867 1084.209 L 913.71484 1084.209 L 913.71484 1091.9434 L 823.9375 1092.3828 L 823.86523 1039.8281 L 913.17578 1039.8281 L 913.17578 1047.9922 L 917.79492 1047.9922 L 917.79492 1027.959 L 913.12305 1027.959 L 913.12305 1035.6934 L 823.86133 1036.1289 L 823.79102 984.67188 L 915.21484 984.67188 L 915.21484 992.83594 L 919.83398 992.83594 L 919.83398 972.80273 L 915.16016 972.80273 L 915.16016 980.53711 L 823.78516 980.98242 L 823.71289 926.69531 L 914.13867 926.69531 L 914.13867 934.85938 L 918.75781 934.85938 L 918.75781 914.82617 L 914.08398 914.82617 L 914.08398 922.56055 L 823.70703 923.00195 L 823.63672 870.57812 L 911.32422 870.57812 L 911.32422 878.74023 L 915.94336 878.74023 L 915.94336 858.70703 L 911.27148 858.70703 L 911.27148 866.44141 L 823.63086 866.86914 L 823.56055 814.19727 L 911.19141 814.19727 L 911.19141 822.36133 L 915.81055 822.36133 L 915.81055 802.32812 L 911.13867 802.32812 L 911.13867 810.0625 L 823.55469 810.49023 L 823.48242 757.34961 L 913.27148 757.34961 L 913.27148 765.51172 L 917.89062 765.51172 L 917.89062 745.48047 L 913.2168 745.48047 L 913.2168 753.21289 L 823.47852 753.65234 L 823.41211 704.93945 L 909.61719 705.30273 L 913.56641 704.39062 L 915.69336 702.11133 L 917.36328 699.07422 L 917.06055 651.52734 L 915.99609 649.55273 L 914.62891 648.33789 L 911.74219 647.12109 L 728.84766 646.58984 z M 1351.0137 686.62891 C 1346.0318 694.3748 1348.7138 699.01044 1350.8359 705.17773 L 1353.5293 705.20898 L 1353.5293 711.5625 L 1357.5039 711.5625 L 1357.5039 705.25391 L 1449.123 706.29883 L 1449.1074 757.69531 L 1355.6387 758.15234 L 1355.6387 749.88086 L 1351.4512 749.88086 L 1351.4512 768.41016 L 1355.4238 768.41016 L 1355.4238 761.375 L 1449.1055 761.375 L 1449.0898 814.07617 L 1355.7715 814.53125 L 1355.7715 806.26172 L 1351.584 806.26172 L 1351.584 824.78906 L 1355.5566 824.78906 L 1355.5566 817.75391 L 1449.0879 817.75391 L 1449.0723 870.20898 L 1358.5859 870.65039 L 1358.5859 862.37891 L 1354.3965 862.37891 L 1354.3965 880.9082 L 1358.3711 880.9082 L 1358.3711 873.87305 L 1449.0723 873.87305 L 1449.0547 928.19141 L 1359.6621 928.62695 L 1359.6621 920.35547 L 1355.4727 920.35547 L 1355.4727 938.88477 L 1359.4473 938.88477 L 1359.4473 931.84961 L 1449.0547 931.84961 L 1449.0391 983.33594 L 1357.625 983.7832 L 1357.625 975.51172 L 1353.4355 975.51172 L 1353.4355 994.04102 L 1357.4102 994.04102 L 1357.4102 987.00586 L 1449.0371 987.00586 L 1449.0215 1039.5898 L 1358.2168 1040.0332 L 1358.2168 1031.7637 L 1354.0273 1031.7637 L 1354.0273 1050.291 L 1358.002 1050.291 L 1358.002 1043.2559 L 1449.0195 1043.2559 L 1449.0039 1097.7598 L 1358.0684 1098.2051 L 1358.0684 1089.9336 L 1353.8809 1089.9336 L 1353.8809 1108.4629 L 1357.8535 1108.4629 L 1357.8535 1101.4277 L 1449.002 1101.4277 L 1448.9883 1152.5645 L 1359.0547 1153.0039 L 1359.0547 1144.7324 L 1354.8652 1144.7324 L 1354.8652 1163.2617 L 1358.8398 1163.2617 L 1358.8398 1156.2266 L 1448.9863 1156.2266 L 1448.9688 1211.7324 L 1358.625 1212.1738 L 1358.625 1203.9043 L 1354.4355 1203.9043 L 1354.4355 1222.4316 L 1358.4102 1222.4316 L 1358.4102 1215.3965 L 1448.9688 1215.3965 L 1448.9512 1269 L 1356.9355 1269.4492 L 1356.9355 1261.1777 L 1352.7461 1261.1777 L 1352.7461 1279.707 L 1356.7207 1279.707 L 1356.7207 1272.6699 L 1448.9512 1272.6699 L 1448.9355 1322.9688 L 1356.9062 1323.418 L 1356.9062 1315.1465 L 1352.7168 1315.1465 L 1352.7168 1333.6758 L 1356.6914 1333.6758 L 1356.6914 1326.6406 L 1448.9355 1326.6406 L 1448.918 1381.1426 L 1358.8906 1381.582 L 1358.8906 1373.3105 L 1354.7012 1373.3105 L 1354.7012 1391.8398 L 1358.6758 1391.8398 L 1358.6758 1384.8047 L 1448.918 1384.8047 L 1448.9004 1437.5449 L 1358.0605 1437.9883 L 1358.0605 1429.7168 L 1353.873 1429.7168 L 1353.873 1448.2461 L 1357.8457 1448.2461 L 1357.8457 1441.2109 L 1448.9004 1441.2109 L 1448.8848 1490.3594 L 1352.8086 1490.1328 C 1347.8267 1497.8787 1350.5088 1502.5124 1352.6309 1508.6797 L 1548.4609 1510.9141 C 1553.9085 1503.9264 1553.4989 1497.5834 1549.8398 1490.5957 L 1454.6543 1490.373 L 1454.5762 1441.2109 L 1545.1777 1441.2109 L 1545.1777 1449.375 L 1549.7949 1449.375 L 1549.7949 1429.3418 L 1545.123 1429.3418 L 1545.123 1437.0762 L 1454.5703 1437.5176 L 1454.4883 1384.8047 L 1546.0059 1384.8047 L 1546.0059 1392.9668 L 1550.625 1392.9668 L 1550.625 1372.9336 L 1545.9512 1372.9336 L 1545.9512 1380.668 L 1454.4824 1381.1152 L 1454.3965 1326.6406 L 1544.0215 1326.6406 L 1544.0215 1334.8047 L 1548.6406 1334.8047 L 1548.6406 1314.7715 L 1543.9668 1314.7715 L 1543.9668 1322.5059 L 1454.3906 1322.9434 L 1454.3125 1272.6699 L 1544.0508 1272.6699 L 1544.0508 1280.834 L 1548.6699 1280.834 L 1548.6699 1260.8008 L 1543.998 1260.8008 L 1543.998 1268.5352 L 1454.3066 1268.9727 L 1454.2227 1215.3965 L 1545.7402 1215.3965 L 1545.7402 1223.5605 L 1550.3594 1223.5605 L 1550.3594 1203.5273 L 1545.6855 1203.5273 L 1545.6855 1211.2617 L 1454.2168 1211.707 L 1454.1309 1156.2266 L 1546.1699 1156.2266 L 1546.1699 1164.3887 L 1550.7871 1164.3887 L 1550.7871 1144.3574 L 1546.1152 1144.3574 L 1546.1152 1152.0898 L 1454.125 1152.5391 L 1454.0449 1101.4277 L 1545.1836 1101.4277 L 1545.1836 1109.5898 L 1549.8027 1109.5898 L 1549.8027 1089.5586 L 1545.1309 1089.5586 L 1545.1309 1097.291 L 1454.0391 1097.7363 L 1453.9531 1043.2559 L 1545.332 1043.2559 L 1545.332 1051.4199 L 1549.9512 1051.4199 L 1549.9512 1031.3867 L 1545.2793 1031.3867 L 1545.2793 1039.1211 L 1453.9473 1039.5664 L 1453.8652 987.00586 L 1544.7402 987.00586 L 1544.7402 995.16797 L 1549.3594 995.16797 L 1549.3594 975.13672 L 1544.6855 975.13672 L 1544.6855 982.86914 L 1453.8594 983.3125 L 1453.7773 931.84961 L 1546.7773 931.84961 L 1546.7773 940.01367 L 1551.3965 940.01367 L 1551.3965 919.98047 L 1546.7246 919.98047 L 1546.7246 927.71484 L 1453.7715 928.16797 L 1453.6875 873.87305 L 1545.7012 873.87305 L 1545.7012 882.03516 L 1550.3203 882.03516 L 1550.3203 862.00391 L 1545.6484 862.00391 L 1545.6484 869.73633 L 1453.6816 870.18555 L 1453.5996 817.75391 L 1542.8887 817.75391 L 1542.8887 825.91797 L 1547.5059 825.91797 L 1547.5059 805.88477 L 1542.834 805.88477 L 1542.834 813.61914 L 1453.5938 814.05469 L 1453.5117 761.375 L 1542.7539 761.375 L 1542.7539 769.53711 L 1547.373 769.53711 L 1547.373 749.50586 L 1542.7012 749.50586 L 1542.7012 757.23828 L 1453.5059 757.67383 L 1453.4238 706.34766 L 1544.834 707.39062 L 1544.834 712.68945 L 1549.4531 712.68945 L 1549.4531 702.8125 C 1551.7525 697.55932 1550.8867 692.52059 1548.0449 687.09375 L 1351.0137 686.62891 z M 1037.8203 1570.2715 L 1036.2402 1571.627 L 1034.207 1573.4316 L 1033.3047 1576.1406 L 1033.7559 1579.0742 L 1035.7871 1580.8809 L 1038.9473 1582.2344 L 1229.2227 1584.4922 L 1232.3828 1582.2344 L 1233.2852 1579.9766 L 1233.9629 1577.043 L 1231.9316 1573.4316 L 1229.6738 1571.627 L 1037.8203 1570.2715 z M 1392.8633 1572.5293 L 1389.9277 1574.5605 L 1387.8965 1578.1719 L 1389.252 1582.2344 L 1391.0566 1584.2656 L 1392.8633 1585.3945 L 1503.9121 1586.748 L 1507.5234 1585.8457 L 1509.3301 1583.8145 L 1510.6836 1582.2344 L 1510.6836 1577.9453 L 1509.5547 1575.4629 L 1506.8477 1573.2051 L 1392.8633 1572.5293 z M 818.50586 1644.127 L 818.50586 1648.9609 L 826.34766 1648.9609 L 826.34766 1683.6543 L 831.28906 1683.7617 L 831.28906 1649.1758 L 839.13086 1649.1758 L 839.13086 1644.127 L 818.50586 1644.127 z " />
    </g>
    <rect
       style="display:inline;fill:#000000;fill-opacity:1;stroke:none;stroke-width:8;stroke-dasharray:none;stroke-opacity:1"
       id="p-p-1-155"
       width="78.197487"
       height="39.958057"
       x="1906.0422"
       y="128.40028"
       inkscape:label="P155">
      <title
         id="title194">P155</title>
    </rect>
    <rect
       style="display:inline;fill:#000000;fill-opacity:1;stroke:none;stroke-width:8;stroke-dasharray:none;stroke-opacity:1"
       id="p-p-1-154"
       width="78.197487"
       height="39.958057"
       x="1906.4795"
       y="183.54854"
       inkscape:label="P154">
      <title
         id="title193">P154</title>
    </rect>
    <rect
       style="display:inline;fill:#000000;fill-opacity:1;stroke:none;stroke-width:8;stroke-dasharray:none;stroke-opacity:1"
       id="p-p-1-153"
       width="78.197487"
       height="39.958057"
       x="1906.3237"
       y="239.97823"
       inkscape:label="P153">
      <title
         id="title192">P153</title>
    </rect>
    <rect
       style="display:inline;fill:#000000;fill-opacity:1;stroke:none;stroke-width:8;stroke-dasharray:none;stroke-opacity:1"
       id="p-p-1-152"
       width="78.197487"
       height="39.958057"
       x="1907.7534"
       y="296.52576"
       inkscape:label="P152">
      <title
         id="title191">P152</title>
    </rect>
    <rect
       style="display:inline;fill:#000000;fill-opacity:1;stroke:none;stroke-width:8;stroke-dasharray:none;stroke-opacity:1"
       id="p-p-1-151"
       width="78.197487"
       height="39.958057"
       x="1906.6128"
       y="352.79956"
       inkscape:label="P151">
      <title
         id="title190">P151</title>
    </rect>
    <rect
       style="display:inline;fill:#000000;fill-opacity:1;stroke:none;stroke-width:8;stroke-dasharray:none;stroke-opacity:1"
       id="p-p-1-150"
       width="78.197487"
       height="39.958057"
       x="1906.894"
       y="410.68921"
       inkscape:label="P150">
      <title
         id="title189">P150</title>
    </rect>
    <rect
       style="display:inline;fill:#000000;fill-opacity:1;stroke:none;stroke-width:8;stroke-dasharray:none;stroke-opacity:1"
       id="p-p-1-149"
       width="78.197487"
       height="39.958057"
       x="1906.6355"
       y="466.83752"
       inkscape:label="P149">
      <title
         id="title188">P149</title>
    </rect>
    <rect
       style="display:inline;fill:#000000;fill-opacity:1;stroke:none;stroke-width:8;stroke-dasharray:none;stroke-opacity:1"
       id="p-p-1-148"
       width="78.197487"
       height="39.958057"
       x="1907.4728"
       y="517.9165"
       inkscape:label="P148">
      <title
         id="title187">P148</title>
    </rect>
    <rect
       style="display:inline;fill:#000000;fill-opacity:1;stroke:none;stroke-width:8;stroke-dasharray:none;stroke-opacity:1"
       id="p-p-1-147"
       width="78.197487"
       height="39.958057"
       x="1676.031"
       y="715.82166"
       inkscape:label="P147">
      <title
         id="title186">P147</title>
    </rect>
    <rect
       style="display:inline;fill:#000000;fill-opacity:1;stroke:none;stroke-width:8;stroke-dasharray:none;stroke-opacity:1"
       id="p-p-1-146"
       width="78.197487"
       height="39.958057"
       x="1676.4683"
       y="770.96991"
       inkscape:label="P146">
      <title
         id="title185">P146</title>
    </rect>
    <rect
       style="display:inline;fill:#000000;fill-opacity:1;stroke:none;stroke-width:8;stroke-dasharray:none;stroke-opacity:1"
       id="p-p-1-145"
       width="78.197487"
       height="39.958057"
       x="1676.3124"
       y="827.3996"
       inkscape:label="P145">
      <title
         id="title184">P145</title>
    </rect>
    <rect
       style="display:inline;fill:#000000;fill-opacity:1;stroke:none;stroke-width:8;stroke-dasharray:none;stroke-opacity:1"
       id="p-p-1-144"
       width="78.197487"
       height="39.958057"
       x="1677.7421"
       y="883.94714"
       inkscape:label="P144">
      <title
         id="title183">P144</title>
    </rect>
    <rect
       style="display:inline;fill:#000000;fill-opacity:1;stroke:none;stroke-width:8;stroke-dasharray:none;stroke-opacity:1"
       id="p-p-1-143"
       width="78.197487"
       height="39.958057"
       x="1676.6014"
       y="940.22095"
       inkscape:label="P143">
      <title
         id="title182">P143</title>
    </rect>
    <rect
       style="display:inline;fill:#000000;fill-opacity:1;stroke:none;stroke-width:8;stroke-dasharray:none;stroke-opacity:1"
       id="p-p-1-142"
       width="78.197487"
       height="39.958057"
       x="1676.8828"
       y="998.1106"
       inkscape:label="P142">
      <title
         id="title181">P142</title>
    </rect>
    <rect
       style="display:inline;fill:#000000;fill-opacity:1;stroke:none;stroke-width:8;stroke-dasharray:none;stroke-opacity:1"
       id="p-p-1-141"
       width="78.197487"
       height="39.958057"
       x="1676.6241"
       y="1054.2589"
       inkscape:label="P141">
      <title
         id="title180">P141</title>
    </rect>
    <rect
       style="display:inline;fill:#000000;fill-opacity:1;stroke:none;stroke-width:8;stroke-dasharray:none;stroke-opacity:1"
       id="p-p-1-140"
       width="78.197487"
       height="39.958057"
       x="1675.031"
       y="1110.8065"
       inkscape:label="P140">
      <title
         id="title179">P140</title>
    </rect>
    <rect
       style="display:inline;fill:#000000;fill-opacity:1;stroke:none;stroke-width:8;stroke-dasharray:none;stroke-opacity:1"
       id="p-p-1-139"
       width="78.197487"
       height="39.958057"
       x="1675.9132"
       y="1168.2361"
       inkscape:label="P139">
      <title
         id="title178">P139</title>
    </rect>
    <rect
       style="display:inline;fill:#000000;fill-opacity:1;stroke:none;stroke-width:8;stroke-dasharray:none;stroke-opacity:1"
       id="p-p-1-138"
       width="78.197487"
       height="39.958057"
       x="1676.6241"
       y="1225.3807"
       inkscape:label="P138">
      <title
         id="title177">P138</title>
    </rect>
    <rect
       style="display:inline;fill:#000000;fill-opacity:1;stroke:none;stroke-width:8;stroke-dasharray:none;stroke-opacity:1"
       id="p-p-1-137"
       width="78.197487"
       height="39.958057"
       x="1674.4716"
       y="1279.1786"
       inkscape:label="P137">
      <title
         id="title176">P137</title>
    </rect>
    <rect
       style="display:inline;fill:#000000;fill-opacity:1;stroke:none;stroke-width:8;stroke-dasharray:none;stroke-opacity:1"
       id="p-p-1-136"
       width="78.197487"
       height="39.958057"
       x="1459.5432"
       y="1445.7942"
       inkscape:label="P136">
      <title
         id="title175">P136</title>
    </rect>
    <rect
       style="display:inline;fill:#000000;fill-opacity:1;stroke:none;stroke-width:8;stroke-dasharray:none;stroke-opacity:1"
       id="p-p-1-135"
       width="78.197487"
       height="39.958057"
       x="1461.6958"
       y="1391.9963"
       inkscape:label="P135">
      <title
         id="title174">P135</title>
    </rect>
    <rect
       style="display:inline;fill:#000000;fill-opacity:1;stroke:none;stroke-width:8;stroke-dasharray:none;stroke-opacity:1"
       id="p-p-1-134"
       width="78.197487"
       height="39.958057"
       x="1460.9849"
       y="1334.8517"
       inkscape:label="P134">
      <title
         id="title173">P134</title>
    </rect>
    <rect
       style="display:inline;fill:#000000;fill-opacity:1;stroke:none;stroke-width:8;stroke-dasharray:none;stroke-opacity:1"
       id="p-p-1-133"
       width="78.197487"
       height="39.958057"
       x="1460.1027"
       y="1277.4221"
       inkscape:label="P133">
      <title
         id="title172">P133</title>
    </rect>
    <rect
       style="display:inline;fill:#000000;fill-opacity:1;stroke:none;stroke-width:8;stroke-dasharray:none;stroke-opacity:1"
       id="p-p-1-132"
       width="78.197487"
       height="39.958057"
       x="1461.6958"
       y="1220.8745"
       inkscape:label="P132">
      <title
         id="title171">P132</title>
    </rect>
    <rect
       style="display:inline;fill:#000000;fill-opacity:1;stroke:none;stroke-width:8;stroke-dasharray:none;stroke-opacity:1"
       id="p-p-1-131"
       width="78.197487"
       height="39.958057"
       x="1461.9545"
       y="1164.7262"
       inkscape:label="P131">
      <title
         id="title170">P131</title>
    </rect>
    <rect
       style="display:inline;fill:#000000;fill-opacity:1;stroke:none;stroke-width:8;stroke-dasharray:none;stroke-opacity:1"
       id="p-p-1-130"
       width="78.197487"
       height="39.958057"
       x="1461.6731"
       y="1106.8365"
       inkscape:label="P130">
      <title
         id="title169">P130</title>
    </rect>
    <rect
       style="display:inline;fill:#000000;fill-opacity:1;stroke:none;stroke-width:8;stroke-dasharray:none;stroke-opacity:1"
       id="p-p-1-129"
       width="78.197487"
       height="39.958057"
       x="1462.8137"
       y="1050.5627"
       inkscape:label="P129">
      <title
         id="title168">P129</title>
    </rect>
    <rect
       style="display:inline;fill:#000000;fill-opacity:1;stroke:none;stroke-width:8;stroke-dasharray:none;stroke-opacity:1"
       id="p-p-1-128"
       width="78.197487"
       height="39.958057"
       x="1461.384"
       y="994.0152"
       inkscape:label="P128">
      <title
         id="title167">P128</title>
    </rect>
    <rect
       style="display:inline;fill:#000000;fill-opacity:1;stroke:none;stroke-width:8;stroke-dasharray:none;stroke-opacity:1"
       id="p-p-1-127"
       width="78.197487"
       height="39.958057"
       x="1461.5399"
       y="937.58551"
       inkscape:label="P127">
      <title
         id="title166">P127</title>
    </rect>
    <rect
       style="display:inline;fill:#000000;fill-opacity:1;stroke:none;stroke-width:8;stroke-dasharray:none;stroke-opacity:1"
       id="p-p-1-126"
       width="78.197487"
       height="39.958057"
       x="1461.1027"
       y="882.43726"
       inkscape:label="P126">
      <title
         id="title165">P126</title>
    </rect>
    <rect
       style="display:inline;fill:#000000;fill-opacity:1;stroke:none;stroke-width:8;stroke-dasharray:none;stroke-opacity:1"
       id="p-p-1-125"
       width="78.197487"
       height="39.958057"
       x="1461.5627"
       y="823.85931"
       inkscape:label="P125">
      <title
         id="title164">P125</title>
    </rect>
    <rect
       style="display:inline;fill:#000000;fill-opacity:1;stroke:none;stroke-width:8;stroke-dasharray:none;stroke-opacity:1"
       id="p-p-1-124"
       width="78.197487"
       height="39.958057"
       x="1460.7338"
       y="767.85175"
       inkscape:label="P124">
      <title
         id="title163">P124</title>
    </rect>
    <rect
       style="display:inline;fill:#000000;fill-opacity:1;stroke:none;stroke-width:8;stroke-dasharray:none;stroke-opacity:1"
       id="p-p-1-123"
       width="78.197487"
       height="39.958057"
       x="1460.2662"
       y="712.56274"
       inkscape:label="P123">
      <title
         id="title162">P123</title>
    </rect>
    <rect
       style="display:inline;fill:#000000;fill-opacity:1;stroke:none;stroke-width:8;stroke-dasharray:none;stroke-opacity:1"
       id="p-p-1-122"
       width="78.197487"
       height="39.958057"
       x="1365.6543"
       y="713.9201"
       inkscape:label="P122">
      <title
         id="title161">P122</title>
    </rect>
    <rect
       style="display:inline;fill:#000000;fill-opacity:1;stroke:none;stroke-width:8;stroke-dasharray:none;stroke-opacity:1"
       id="p-p-1-121"
       width="78.197487"
       height="39.958057"
       x="1366.1218"
       y="769.20911"
       inkscape:label="P121">
      <title
         id="title160">P121</title>
    </rect>
    <rect
       style="display:inline;fill:#000000;fill-opacity:1;stroke:none;stroke-width:8;stroke-dasharray:none;stroke-opacity:1"
       id="p-p-1-120"
       width="78.197487"
       height="39.958057"
       x="1366.9508"
       y="825.21667"
       inkscape:label="P120">
      <title
         id="title159">P120</title>
    </rect>
    <rect
       style="display:inline;fill:#000000;fill-opacity:1;stroke:none;stroke-width:8;stroke-dasharray:none;stroke-opacity:1"
       id="p-p-1-119"
       width="78.197487"
       height="39.958057"
       x="1366.4907"
       y="883.79462"
       inkscape:label="P119">
      <title
         id="title158">P119</title>
    </rect>
    <rect
       style="display:inline;fill:#000000;fill-opacity:1;stroke:none;stroke-width:8;stroke-dasharray:none;stroke-opacity:1"
       id="p-p-1-118"
       width="78.197487"
       height="39.958057"
       x="1366.928"
       y="938.94287"
       inkscape:label="P118">
      <title
         id="title157">P118</title>
    </rect>
    <rect
       style="display:inline;fill:#000000;fill-opacity:1;stroke:none;stroke-width:8;stroke-dasharray:none;stroke-opacity:1"
       id="p-p-1-117"
       width="78.197487"
       height="39.958057"
       x="1366.7721"
       y="995.37256"
       inkscape:label="P117">
      <title
         id="title156">P117</title>
    </rect>
    <rect
       style="display:inline;fill:#000000;fill-opacity:1;stroke:none;stroke-width:8;stroke-dasharray:none;stroke-opacity:1"
       id="p-p-1-116"
       width="78.197487"
       height="39.958057"
       x="1368.2018"
       y="1051.92"
       inkscape:label="P116">
      <title
         id="title155">P116</title>
    </rect>
    <rect
       style="display:inline;fill:#000000;fill-opacity:1;stroke:none;stroke-width:8;stroke-dasharray:none;stroke-opacity:1"
       id="p-p-1-115"
       width="78.197487"
       height="39.958057"
       x="1367.0612"
       y="1108.1938"
       inkscape:label="P115">
      <title
         id="title154">P115</title>
    </rect>
    <rect
       style="display:inline;fill:#000000;fill-opacity:1;stroke:none;stroke-width:8;stroke-dasharray:none;stroke-opacity:1"
       id="p-p-1-114"
       width="78.197487"
       height="39.958057"
       x="1367.3425"
       y="1166.0835"
       inkscape:label="P114">
      <title
         id="title153">P114</title>
    </rect>
    <rect
       style="display:inline;fill:#000000;fill-opacity:1;stroke:none;stroke-width:8;stroke-dasharray:none;stroke-opacity:1"
       id="p-p-1-113"
       width="78.197487"
       height="39.958057"
       x="1367.0839"
       y="1222.2318"
       inkscape:label="P113">
      <title
         id="title152">P113</title>
    </rect>
    <rect
       style="display:inline;fill:#000000;fill-opacity:1;stroke:none;stroke-width:8;stroke-dasharray:none;stroke-opacity:1"
       id="p-p-1-112"
       width="78.197487"
       height="39.958057"
       x="1365.4907"
       y="1278.7794"
       inkscape:label="P112">
      <title
         id="title151">P112</title>
    </rect>
    <rect
       style="display:inline;fill:#000000;fill-opacity:1;stroke:none;stroke-width:8;stroke-dasharray:none;stroke-opacity:1"
       id="p-p-1-111"
       width="78.197487"
       height="39.958057"
       x="1366.3729"
       y="1336.209"
       inkscape:label="P111">
      <title
         id="title150">P111</title>
    </rect>
    <rect
       style="display:inline;fill:#000000;fill-opacity:1;stroke:none;stroke-width:8;stroke-dasharray:none;stroke-opacity:1"
       id="p-p-1-110"
       width="78.197487"
       height="39.958057"
       x="1367.0839"
       y="1393.3536"
       inkscape:label="P110">
      <title
         id="title149">P110</title>
    </rect>
    <rect
       style="display:inline;fill:#000000;fill-opacity:1;stroke:none;stroke-width:8;stroke-dasharray:none;stroke-opacity:1"
       id="p-p-1-109"
       width="78.197487"
       height="39.958057"
       x="1364.9313"
       y="1447.1515"
       inkscape:label="P109">
      <title
         id="title148">P109</title>
    </rect>
    <rect
       style="display:inline;fill:#000000;fill-opacity:1;stroke:none;stroke-width:8;stroke-dasharray:none;stroke-opacity:1"
       id="p-p-1-108"
       width="78.197487"
       height="39.958057"
       x="1144.0264"
       y="1393.2662"
       inkscape:label="P108">
      <title
         id="title147">P108</title>
    </rect>
    <rect
       style="display:inline;fill:#000000;fill-opacity:1;stroke:none;stroke-width:8;stroke-dasharray:none;stroke-opacity:1"
       id="p-p-1-107"
       width="78.197487"
       height="39.958057"
       x="1143.1119"
       y="1332.3754"
       inkscape:label="P107">
      <title
         id="title146">P107</title>
    </rect>
    <rect
       style="display:inline;fill:#000000;fill-opacity:1;stroke:none;stroke-width:8;stroke-dasharray:none;stroke-opacity:1"
       id="p-p-1-106"
       width="78.197487"
       height="39.958057"
       x="1145.2645"
       y="1278.5775"
       inkscape:label="P106">
      <title
         id="title145">P106</title>
    </rect>
    <rect
       style="display:inline;fill:#000000;fill-opacity:1;stroke:none;stroke-width:8;stroke-dasharray:none;stroke-opacity:1"
       id="p-p-1-105"
       width="78.197487"
       height="39.958057"
       x="1144.5536"
       y="1221.4329"
       inkscape:label="P105">
      <title
         id="title144">P105</title>
    </rect>
    <rect
       style="display:inline;fill:#000000;fill-opacity:1;stroke:none;stroke-width:8;stroke-dasharray:none;stroke-opacity:1"
       id="p-p-1-104"
       width="78.197487"
       height="39.958057"
       x="1143.6714"
       y="1164.0033"
       inkscape:label="P104">
      <title
         id="title143">P104</title>
    </rect>
    <rect
       style="display:inline;fill:#000000;fill-opacity:1;stroke:none;stroke-width:8;stroke-dasharray:none;stroke-opacity:1"
       id="p-p-1-103"
       width="78.197487"
       height="39.958057"
       x="1145.2645"
       y="1107.4557"
       inkscape:label="P103">
      <title
         id="title142">P103</title>
    </rect>
    <rect
       style="display:inline;fill:#000000;fill-opacity:1;stroke:none;stroke-width:8;stroke-dasharray:none;stroke-opacity:1"
       id="p-p-1-102"
       width="78.197487"
       height="39.958057"
       x="1145.5232"
       y="1051.3074"
       inkscape:label="P102">
      <title
         id="title141">P102</title>
    </rect>
    <rect
       style="display:inline;fill:#000000;fill-opacity:1;stroke:none;stroke-width:8;stroke-dasharray:none;stroke-opacity:1"
       id="p-p-1-101"
       width="78.197487"
       height="39.958057"
       x="1145.2418"
       y="993.41772"
       inkscape:label="P101">
      <title
         id="title140">P101</title>
    </rect>
    <rect
       style="display:inline;fill:#000000;fill-opacity:1;stroke:none;stroke-width:8;stroke-dasharray:none;stroke-opacity:1"
       id="p-p-1-100"
       width="78.197487"
       height="39.958057"
       x="1146.3824"
       y="937.14392"
       inkscape:label="P100">
      <title
         id="title139">P100</title>
    </rect>
    <rect
       style="display:inline;fill:#000000;fill-opacity:1;stroke:none;stroke-width:8;stroke-dasharray:none;stroke-opacity:1"
       id="p-p-1-99"
       width="78.197487"
       height="39.958057"
       x="1144.9528"
       y="880.59637"
       inkscape:label="P99">
      <title
         id="title138">P99</title>
    </rect>
    <rect
       style="display:inline;fill:#000000;fill-opacity:1;stroke:none;stroke-width:8;stroke-dasharray:none;stroke-opacity:1"
       id="p-p-1-98"
       width="78.197487"
       height="39.958057"
       x="1145.1086"
       y="824.16669"
       inkscape:label="P98">
      <title
         id="title137">P98</title>
    </rect>
    <rect
       style="display:inline;fill:#000000;fill-opacity:1;stroke:none;stroke-width:8;stroke-dasharray:none;stroke-opacity:1"
       id="p-p-1-97"
       width="78.197487"
       height="39.958057"
       x="1144.6714"
       y="769.01843"
       inkscape:label="P97">
      <title
         id="title136">P97</title>
    </rect>
    <rect
       style="display:inline;fill:#000000;fill-opacity:1;stroke:none;stroke-width:8;stroke-dasharray:none;stroke-opacity:1"
       id="p-p-1-96"
       width="78.197487"
       height="39.958057"
       x="1145.1315"
       y="710.44049"
       inkscape:label="P96">
      <title
         id="title135">P96</title>
    </rect>
    <rect
       style="display:inline;fill:#000000;fill-opacity:1;stroke:none;stroke-width:8;stroke-dasharray:none;stroke-opacity:1"
       id="p-p-1-95"
       width="78.197487"
       height="39.958057"
       x="1144.3025"
       y="654.43292"
       inkscape:label="P95">
      <title
         id="title134">P95</title>
    </rect>
    <rect
       style="display:inline;fill:#000000;fill-opacity:1;stroke:none;stroke-width:8;stroke-dasharray:none;stroke-opacity:1"
       id="p-p-1-94"
       width="78.197487"
       height="39.958057"
       x="1143.835"
       y="599.14392"
       inkscape:label="P94">
      <title
         id="title133">P94</title>
    </rect>
    <rect
       style="display:inline;fill:#000000;fill-opacity:1;stroke:none;stroke-width:8;stroke-dasharray:none;stroke-opacity:1"
       id="p-p-1-93"
       width="78.197487"
       height="39.958057"
       x="1047.1584"
       y="656.87451"
       inkscape:label="P93">
      <title
         id="title132">P93</title>
    </rect>
    <rect
       style="display:inline;fill:#000000;fill-opacity:1;stroke:none;stroke-width:8;stroke-dasharray:none;stroke-opacity:1"
       id="p-p-1-92"
       width="78.197487"
       height="39.958057"
       x="1047.626"
       y="712.16351"
       inkscape:label="P92">
      <title
         id="title131">P92</title>
    </rect>
    <rect
       style="display:inline;fill:#000000;fill-opacity:1;stroke:none;stroke-width:8;stroke-dasharray:none;stroke-opacity:1"
       id="p-p-1-91"
       width="78.197487"
       height="39.958057"
       x="1048.455"
       y="768.17108"
       inkscape:label="P91">
      <title
         id="title130">P91</title>
    </rect>
    <rect
       style="display:inline;fill:#000000;fill-opacity:1;stroke:none;stroke-width:8;stroke-dasharray:none;stroke-opacity:1"
       id="p-p-1-90"
       width="78.197487"
       height="39.958057"
       x="1047.9949"
       y="826.74902"
       inkscape:label="P90">
      <title
         id="title129">P90</title>
    </rect>
    <rect
       style="display:inline;fill:#000000;fill-opacity:1;stroke:none;stroke-width:8;stroke-dasharray:none;stroke-opacity:1"
       id="p-p-1-89"
       width="78.197487"
       height="39.958057"
       x="1048.4321"
       y="881.89728"
       inkscape:label="P89">
      <title
         id="title128">P89</title>
    </rect>
    <rect
       style="display:inline;fill:#000000;fill-opacity:1;stroke:none;stroke-width:8;stroke-dasharray:none;stroke-opacity:1"
       id="p-p-1-88"
       width="78.197487"
       height="39.958057"
       x="1048.2762"
       y="938.32697"
       inkscape:label="P88">
      <title
         id="title127">P88</title>
    </rect>
    <rect
       style="display:inline;fill:#000000;fill-opacity:1;stroke:none;stroke-width:8;stroke-dasharray:none;stroke-opacity:1"
       id="p-p-1-87"
       width="78.197487"
       height="39.958057"
       x="1049.7059"
       y="994.87451"
       inkscape:label="P87">
      <title
         id="title126">P87</title>
    </rect>
    <rect
       style="display:inline;fill:#000000;fill-opacity:1;stroke:none;stroke-width:8;stroke-dasharray:none;stroke-opacity:1"
       id="p-p-1-86"
       width="78.197487"
       height="39.958057"
       x="1048.5653"
       y="1051.1483"
       inkscape:label="P86">
      <title
         id="title125">P86</title>
    </rect>
    <rect
       style="display:inline;fill:#000000;fill-opacity:1;stroke:none;stroke-width:8;stroke-dasharray:none;stroke-opacity:1"
       id="p-p-1-85"
       width="78.197487"
       height="39.958057"
       x="1048.8467"
       y="1109.038"
       inkscape:label="P85">
      <title
         id="title124">P85</title>
    </rect>
    <rect
       style="display:inline;fill:#000000;fill-opacity:1;stroke:none;stroke-width:8;stroke-dasharray:none;stroke-opacity:1"
       id="p-p-1-84"
       width="78.197487"
       height="39.958057"
       x="1048.588"
       y="1165.1863"
       inkscape:label="P84">
      <title
         id="title123">P84</title>
    </rect>
    <rect
       style="display:inline;fill:#000000;fill-opacity:1;stroke:none;stroke-width:8;stroke-dasharray:none;stroke-opacity:1"
       id="p-p-1-83"
       width="78.197487"
       height="39.958057"
       x="1046.9949"
       y="1221.7339"
       inkscape:label="P83">
      <title
         id="title122">P83</title>
    </rect>
    <rect
       style="display:inline;fill:#000000;fill-opacity:1;stroke:none;stroke-width:8;stroke-dasharray:none;stroke-opacity:1"
       id="p-p-1-82"
       width="78.197487"
       height="39.958057"
       x="1047.8771"
       y="1279.1635"
       inkscape:label="P82">
      <title
         id="title121">P82</title>
    </rect>
    <rect
       style="display:inline;fill:#000000;fill-opacity:1;stroke:none;stroke-width:8;stroke-dasharray:none;stroke-opacity:1"
       id="p-p-1-81"
       width="78.197487"
       height="39.958057"
       x="1048.588"
       y="1336.3081"
       inkscape:label="P81">
      <title
         id="title120">P81</title>
    </rect>
    <rect
       style="display:inline;fill:#000000;fill-opacity:1;stroke:none;stroke-width:8;stroke-dasharray:none;stroke-opacity:1"
       id="p-p-1-80"
       width="78.197487"
       height="39.958057"
       x="1046.4354"
       y="1390.106"
       inkscape:label="P80">
      <title
         id="title119">P80</title>
    </rect>
    <rect
       style="display:inline;fill:#000000;fill-opacity:1;stroke:none;stroke-width:8;stroke-dasharray:none;stroke-opacity:1"
       id="p-p-1-79"
       width="78.197487"
       height="39.958057"
       x="827.7171"
       y="1440.6177"
       inkscape:label="P79">
      <title
         id="title118">P79</title>
    </rect>
    <rect
       style="display:inline;fill:#000000;fill-opacity:1;stroke:none;stroke-width:8;stroke-dasharray:none;stroke-opacity:1"
       id="p-p-1-78"
       width="78.197487"
       height="39.958057"
       x="829.86969"
       y="1386.8198"
       inkscape:label="P78">
      <title
         id="title117">P78</title>
    </rect>
    <rect
       style="display:inline;fill:#000000;fill-opacity:1;stroke:none;stroke-width:8;stroke-dasharray:none;stroke-opacity:1"
       id="p-p-1-77"
       width="78.197487"
       height="39.958057"
       x="829.15875"
       y="1329.6752"
       inkscape:label="P77">
      <title
         id="title116">P77</title>
    </rect>
    <rect
       style="display:inline;fill:#000000;fill-opacity:1;stroke:none;stroke-width:8;stroke-dasharray:none;stroke-opacity:1"
       id="p-p-1-76"
       width="78.197487"
       height="39.958057"
       x="828.27655"
       y="1272.2456"
       inkscape:label="P76">
      <title
         id="title115">P76</title>
    </rect>
    <rect
       style="display:inline;fill:#000000;fill-opacity:1;stroke:none;stroke-width:8;stroke-dasharray:none;stroke-opacity:1"
       id="p-p-1-75"
       width="78.197487"
       height="39.958057"
       x="829.86969"
       y="1215.698"
       inkscape:label="P75">
      <title
         id="title114">P75</title>
    </rect>
    <rect
       style="display:inline;fill:#000000;fill-opacity:1;stroke:none;stroke-width:8;stroke-dasharray:none;stroke-opacity:1"
       id="p-p-1-74"
       width="78.197487"
       height="39.958057"
       x="830.12836"
       y="1159.5497"
       inkscape:label="P74">
      <title
         id="title113">P74</title>
    </rect>
    <rect
       style="display:inline;fill:#000000;fill-opacity:1;stroke:none;stroke-width:8;stroke-dasharray:none;stroke-opacity:1"
       id="p-p-1-73"
       width="78.197487"
       height="39.958057"
       x="829.84698"
       y="1101.66"
       inkscape:label="P73">
      <title
         id="title112">P73</title>
    </rect>
    <rect
       style="display:inline;fill:#000000;fill-opacity:1;stroke:none;stroke-width:8;stroke-dasharray:none;stroke-opacity:1"
       id="p-p-1-72"
       width="78.197487"
       height="39.958057"
       x="830.98761"
       y="1045.3862"
       inkscape:label="P72">
      <title
         id="title111">P72</title>
    </rect>
    <rect
       style="display:inline;fill:#000000;fill-opacity:1;stroke:none;stroke-width:8;stroke-dasharray:none;stroke-opacity:1"
       id="p-p-1-71"
       width="78.197487"
       height="39.958057"
       x="829.55792"
       y="988.83868"
       inkscape:label="P71">
      <title
         id="title110">P71</title>
    </rect>
    <rect
       style="display:inline;fill:#000000;fill-opacity:1;stroke:none;stroke-width:8;stroke-dasharray:none;stroke-opacity:1"
       id="p-p-1-70"
       width="78.197487"
       height="39.958057"
       x="829.71381"
       y="932.409"
       inkscape:label="P70">
      <title
         id="title109">P70</title>
    </rect>
    <rect
       style="display:inline;fill:#000000;fill-opacity:1;stroke:none;stroke-width:8;stroke-dasharray:none;stroke-opacity:1"
       id="p-p-1-69"
       width="78.197487"
       height="39.958057"
       x="829.27655"
       y="877.26074"
       inkscape:label="P69">
      <title
         id="title108">P69</title>
    </rect>
    <rect
       style="display:inline;fill:#000000;fill-opacity:1;stroke:none;stroke-width:8;stroke-dasharray:none;stroke-opacity:1"
       id="p-p-1-68"
       width="78.197487"
       height="39.958057"
       x="829.73663"
       y="818.6828"
       inkscape:label="P68">
      <title
         id="title107">P68</title>
    </rect>
    <rect
       style="display:inline;fill:#000000;fill-opacity:1;stroke:none;stroke-width:8;stroke-dasharray:none;stroke-opacity:1"
       id="p-p-1-67"
       width="78.197487"
       height="39.958057"
       x="828.90765"
       y="762.67523"
       inkscape:label="P67">
      <title
         id="title106">P67</title>
    </rect>
    <rect
       style="display:inline;fill:#000000;fill-opacity:1;stroke:none;stroke-width:8;stroke-dasharray:none;stroke-opacity:1"
       id="p-p-1-66"
       width="78.197487"
       height="39.958057"
       x="828.44012"
       y="707.38623"
       inkscape:label="P66">
      <title
         id="title105">P66</title>
    </rect>
    <rect
       style="display:inline;fill:#000000;fill-opacity:1;stroke:none;stroke-width:8;stroke-dasharray:none;stroke-opacity:1"
       id="p-p-1-65"
       width="78.197487"
       height="39.958057"
       x="733.12646"
       y="709.71338"
       inkscape:label="P65">
      <title
         id="title104">P65</title>
    </rect>
    <rect
       style="display:inline;fill:#000000;fill-opacity:1;stroke:none;stroke-width:8;stroke-dasharray:none;stroke-opacity:1"
       id="p-p-1-64"
       width="78.197487"
       height="39.958057"
       x="733.59399"
       y="765.00238"
       inkscape:label="P64">
      <title
         id="title103">P64</title>
    </rect>
    <rect
       style="display:inline;fill:#000000;fill-opacity:1;stroke:none;stroke-width:8;stroke-dasharray:none;stroke-opacity:1"
       id="p-p-1-63"
       width="78.197487"
       height="39.958057"
       x="734.42297"
       y="821.00995"
       inkscape:label="P63">
      <title
         id="title102">P63</title>
    </rect>
    <rect
       style="display:inline;fill:#000000;fill-opacity:1;stroke:none;stroke-width:8;stroke-dasharray:none;stroke-opacity:1"
       id="p-p-1-62"
       width="78.197487"
       height="39.958057"
       x="733.96289"
       y="879.58789"
       inkscape:label="P62">
      <title
         id="title101">P62</title>
    </rect>
    <rect
       style="display:inline;fill:#000000;fill-opacity:1;stroke:none;stroke-width:8;stroke-dasharray:none;stroke-opacity:1"
       id="p-p-1-61"
       width="78.197487"
       height="39.958057"
       x="734.40015"
       y="934.73615"
       inkscape:label="P61">
      <title
         id="title100">P61</title>
    </rect>
    <rect
       style="display:inline;fill:#000000;fill-opacity:1;stroke:none;stroke-width:8;stroke-dasharray:none;stroke-opacity:1"
       id="p-p-1-60"
       width="78.197487"
       height="39.958057"
       x="734.24426"
       y="991.16583"
       inkscape:label="P60">
      <title
         id="title99">P60</title>
    </rect>
    <rect
       style="display:inline;fill:#000000;fill-opacity:1;stroke:none;stroke-width:8;stroke-dasharray:none;stroke-opacity:1"
       id="p-p-1-59"
       width="78.197487"
       height="39.958057"
       x="735.67395"
       y="1047.7134"
       inkscape:label="P59">
      <title
         id="title98">P59</title>
    </rect>
    <rect
       style="display:inline;fill:#000000;fill-opacity:1;stroke:none;stroke-width:8;stroke-dasharray:none;stroke-opacity:1"
       id="p-p-1-58"
       width="78.197487"
       height="39.958057"
       x="734.53333"
       y="1103.9872"
       inkscape:label="P58">
      <title
         id="title97">P58</title>
    </rect>
    <rect
       style="display:inline;fill:#000000;fill-opacity:1;stroke:none;stroke-width:8;stroke-dasharray:none;stroke-opacity:1"
       id="p-p-1-57"
       width="78.197487"
       height="39.958057"
       x="734.8147"
       y="1161.8768"
       inkscape:label="P57">
      <title
         id="title96">P57</title>
    </rect>
    <rect
       style="display:inline;fill:#000000;fill-opacity:1;stroke:none;stroke-width:8;stroke-dasharray:none;stroke-opacity:1"
       id="p-p-1-56"
       width="78.197487"
       height="39.958057"
       x="734.55603"
       y="1218.0251"
       inkscape:label="P56">
      <title
         id="title95">P56</title>
    </rect>
    <rect
       style="display:inline;fill:#000000;fill-opacity:1;stroke:none;stroke-width:8;stroke-dasharray:none;stroke-opacity:1"
       id="p-p-1-55"
       width="78.197487"
       height="39.958057"
       x="732.96289"
       y="1274.5728"
       inkscape:label="P55">
      <title
         id="title94">P55</title>
    </rect>
    <rect
       style="display:inline;fill:#000000;fill-opacity:1;stroke:none;stroke-width:8;stroke-dasharray:none;stroke-opacity:1"
       id="p-p-1-54"
       width="78.197487"
       height="39.958057"
       x="733.84509"
       y="1332.0023"
       inkscape:label="P54">
      <title
         id="title93">P54</title>
    </rect>
    <rect
       style="display:inline;fill:#000000;fill-opacity:1;stroke:none;stroke-width:8;stroke-dasharray:none;stroke-opacity:1"
       id="p-p-1-53"
       width="78.197487"
       height="39.958057"
       x="734.55603"
       y="1389.147"
       inkscape:label="P53">
      <title
         id="title92">P53</title>
    </rect>
    <rect
       style="display:inline;fill:#000000;fill-opacity:1;stroke:none;stroke-width:8;stroke-dasharray:none;stroke-opacity:1"
       id="p-p-1-52"
       width="78.197487"
       height="39.958057"
       x="732.40344"
       y="1442.9448"
       inkscape:label="P52">
      <title
         id="title91">P52</title>
    </rect>
    <rect
       style="display:inline;fill:#000000;fill-opacity:1;stroke:none;stroke-width:8;stroke-dasharray:none;stroke-opacity:1"
       id="p-p-1-51"
       width="78.197487"
       height="39.958057"
       x="517.53235"
       y="1500.8402"
       inkscape:label="P51">
      <title
         id="title90">P51</title>
    </rect>
    <rect
       style="display:inline;fill:#000000;fill-opacity:1;stroke:none;stroke-width:8;stroke-dasharray:none;stroke-opacity:1"
       id="p-p-1-50"
       width="78.197487"
       height="39.958057"
       x="513.71216"
       y="1444.3779"
       inkscape:label="P50">
      <title
         id="title89">P50</title>
    </rect>
    <rect
       style="display:inline;fill:#000000;fill-opacity:1;stroke:none;stroke-width:8;stroke-dasharray:none;stroke-opacity:1"
       id="p-p-1-49"
       width="78.197487"
       height="39.958057"
       x="515.86475"
       y="1390.5801"
       inkscape:label="P49">
      <title
         id="title88">P49</title>
    </rect>
    <rect
       style="display:inline;fill:#000000;fill-opacity:1;stroke:none;stroke-width:8;stroke-dasharray:none;stroke-opacity:1"
       id="p-p-1-48"
       width="78.197487"
       height="39.958057"
       x="515.15381"
       y="1333.4354"
       inkscape:label="P48">
      <title
         id="title87">P48</title>
    </rect>
    <rect
       style="display:inline;fill:#000000;fill-opacity:1;stroke:none;stroke-width:8;stroke-dasharray:none;stroke-opacity:1"
       id="p-p-1-47"
       width="78.197487"
       height="39.958057"
       x="516.3493"
       y="1272.1871"
       inkscape:label="P47">
      <title
         id="title86">P47</title>
    </rect>
    <rect
       style="display:inline;fill:#000000;fill-opacity:1;stroke:none;stroke-width:8;stroke-dasharray:none;stroke-opacity:1"
       id="p-p-1-46"
       width="78.197487"
       height="39.958057"
       x="518.50189"
       y="1218.3893"
       inkscape:label="P46">
      <title
         id="title85">P46</title>
    </rect>
    <rect
       style="display:inline;fill:#000000;fill-opacity:1;stroke:none;stroke-width:8;stroke-dasharray:none;stroke-opacity:1"
       id="p-p-1-45"
       width="78.197487"
       height="39.958057"
       x="517.79095"
       y="1161.2446"
       inkscape:label="P45">
      <title
         id="title84">P45</title>
    </rect>
    <rect
       style="display:inline;fill:#000000;fill-opacity:1;stroke:none;stroke-width:8;stroke-dasharray:none;stroke-opacity:1"
       id="p-p-1-44"
       width="78.197487"
       height="39.958057"
       x="516.90875"
       y="1103.8151"
       inkscape:label="P44">
      <title
         id="title83">P44</title>
    </rect>
    <rect
       style="display:inline;fill:#000000;fill-opacity:1;stroke:none;stroke-width:8;stroke-dasharray:none;stroke-opacity:1"
       id="p-p-1-43"
       width="78.197487"
       height="39.958057"
       x="518.50189"
       y="1047.2675"
       inkscape:label="P43">
      <title
         id="title82">P43</title>
    </rect>
    <rect
       style="display:inline;fill:#000000;fill-opacity:1;stroke:none;stroke-width:8;stroke-dasharray:none;stroke-opacity:1"
       id="p-p-1-42"
       width="78.197487"
       height="39.958057"
       x="518.76056"
       y="991.1192"
       inkscape:label="P42">
      <title
         id="title81">P42</title>
    </rect>
    <rect
       style="display:inline;fill:#000000;fill-opacity:1;stroke:none;stroke-width:8;stroke-dasharray:none;stroke-opacity:1"
       id="p-p-1-41"
       width="78.197487"
       height="39.958057"
       x="518.47919"
       y="933.22955"
       inkscape:label="P41">
      <title
         id="title80">P41</title>
    </rect>
    <rect
       style="display:inline;fill:#000000;fill-opacity:1;stroke:none;stroke-width:8;stroke-dasharray:none;stroke-opacity:1"
       id="p-p-1-40"
       width="78.197487"
       height="39.958057"
       x="519.61981"
       y="876.95575"
       inkscape:label="P40">
      <title
         id="title79">P40</title>
    </rect>
    <rect
       style="display:inline;fill:#000000;fill-opacity:1;stroke:none;stroke-width:8;stroke-dasharray:none;stroke-opacity:1"
       id="p-p-1-39"
       width="78.197487"
       height="39.958057"
       x="518.19012"
       y="820.4082"
       inkscape:label="P39">
      <title
         id="title78">P39</title>
    </rect>
    <rect
       style="display:inline;fill:#000000;fill-opacity:1;stroke:none;stroke-width:8;stroke-dasharray:none;stroke-opacity:1"
       id="p-p-1-38"
       width="78.197487"
       height="39.958057"
       x="518.34601"
       y="763.97852"
       inkscape:label="P38">
      <title
         id="title77">P38</title>
    </rect>
    <rect
       style="display:inline;fill:#000000;fill-opacity:1;stroke:none;stroke-width:8;stroke-dasharray:none;stroke-opacity:1"
       id="p-p-1-37"
       width="78.197487"
       height="39.958057"
       x="517.90875"
       y="708.83026"
       inkscape:label="P37">
      <title
         id="title76">P37</title>
    </rect>
    <rect
       style="display:inline;fill:#000000;fill-opacity:1;stroke:none;stroke-width:8;stroke-dasharray:none;stroke-opacity:1"
       id="p-p-1-36"
       width="78.197487"
       height="39.958057"
       x="518.36884"
       y="650.25232"
       inkscape:label="P36">
      <title
         id="title75">P36</title>
    </rect>
    <rect
       style="display:inline;fill:#000000;fill-opacity:1;stroke:none;stroke-width:8;stroke-dasharray:none;stroke-opacity:1"
       id="p-p-1-35"
       width="78.197487"
       height="39.958057"
       x="517.53986"
       y="594.24475"
       inkscape:label="P35">
      <title
         id="title74">P35</title>
    </rect>
    <rect
       style="display:inline;fill:#000000;fill-opacity:1;stroke:none;stroke-width:8;stroke-dasharray:none;stroke-opacity:1"
       id="p-p-1-34"
       width="78.197487"
       height="39.958057"
       x="517.07233"
       y="538.95575"
       inkscape:label="P34">
      <title
         id="title73">P34</title>
    </rect>
    <rect
       style="display:inline;fill:#000000;fill-opacity:1;stroke:none;stroke-width:8;stroke-dasharray:none;stroke-opacity:1"
       id="p-p-1-33"
       width="78.197487"
       height="39.958057"
       x="421.2962"
       y="597.77612"
       inkscape:label="P33">
      <title
         id="title72">P33</title>
    </rect>
    <rect
       style="display:inline;fill:#000000;fill-opacity:1;stroke:none;stroke-width:8;stroke-dasharray:none;stroke-opacity:1"
       id="p-p-1-32"
       width="78.197487"
       height="39.958057"
       x="421.76373"
       y="653.06512"
       inkscape:label="P32">
      <title
         id="title71">P32</title>
    </rect>
    <rect
       style="display:inline;fill:#000000;fill-opacity:1;stroke:none;stroke-width:8;stroke-dasharray:none;stroke-opacity:1"
       id="p-p-1-31"
       width="78.197487"
       height="39.958057"
       x="422.59271"
       y="709.07269"
       inkscape:label="P31">
      <title
         id="title70">P31</title>
    </rect>
    <rect
       style="display:inline;fill:#000000;fill-opacity:1;stroke:none;stroke-width:8;stroke-dasharray:none;stroke-opacity:1"
       id="p-p-1-30"
       width="78.197487"
       height="39.958057"
       x="422.13263"
       y="767.65063"
       inkscape:label="P30">
      <title
         id="title69">P30</title>
    </rect>
    <rect
       style="display:inline;fill:#000000;fill-opacity:1;stroke:none;stroke-width:8;stroke-dasharray:none;stroke-opacity:1"
       id="p-p-1-29"
       width="78.197487"
       height="39.958057"
       x="422.56989"
       y="822.79889"
       inkscape:label="P29">
      <title
         id="title68">P29</title>
    </rect>
    <rect
       style="display:inline;fill:#000000;fill-opacity:1;stroke:none;stroke-width:8;stroke-dasharray:none;stroke-opacity:1"
       id="p-p-1-28"
       width="78.197487"
       height="39.958057"
       x="422.414"
       y="879.22858"
       inkscape:label="P28">
      <title
         id="title67">P28</title>
    </rect>
    <rect
       style="display:inline;fill:#000000;fill-opacity:1;stroke:none;stroke-width:8;stroke-dasharray:none;stroke-opacity:1"
       id="p-p-1-27"
       width="78.197487"
       height="39.958057"
       x="423.84369"
       y="935.77612"
       inkscape:label="P27">
      <title
         id="title66">P27</title>
    </rect>
    <rect
       style="display:inline;fill:#000000;fill-opacity:1;stroke:none;stroke-width:8;stroke-dasharray:none;stroke-opacity:1"
       id="p-p-1-26"
       width="78.197487"
       height="39.958057"
       x="422.70306"
       y="992.04993"
       inkscape:label="P26">
      <title
         id="title65">P26</title>
    </rect>
    <rect
       style="display:inline;fill:#000000;fill-opacity:1;stroke:none;stroke-width:8;stroke-dasharray:none;stroke-opacity:1"
       id="p-p-1-25"
       width="78.197487"
       height="39.958057"
       x="422.98444"
       y="1049.9396"
       inkscape:label="P25">
      <title
         id="title64">P25</title>
    </rect>
    <rect
       style="display:inline;fill:#000000;fill-opacity:1;stroke:none;stroke-width:8;stroke-dasharray:none;stroke-opacity:1"
       id="p-p-1-24"
       width="78.197487"
       height="39.958057"
       x="422.72577"
       y="1106.0879"
       inkscape:label="P24">
      <title
         id="title63">P24</title>
    </rect>
    <rect
       style="display:inline;fill:#000000;fill-opacity:1;stroke:none;stroke-width:8;stroke-dasharray:none;stroke-opacity:1"
       id="p-p-1-23"
       width="78.197487"
       height="39.958057"
       x="421.13263"
       y="1162.6355"
       inkscape:label="P23">
      <title
         id="title62">P23</title>
    </rect>
    <rect
       style="display:inline;fill:#000000;fill-opacity:1;stroke:none;stroke-width:8;stroke-dasharray:none;stroke-opacity:1"
       id="p-p-1-22"
       width="78.197487"
       height="39.958057"
       x="422.01483"
       y="1220.0651"
       inkscape:label="P22">
      <title
         id="title61">P22</title>
    </rect>
    <rect
       style="display:inline;fill:#000000;fill-opacity:1;stroke:none;stroke-width:8;stroke-dasharray:none;stroke-opacity:1"
       id="p-p-1-21"
       width="78.197487"
       height="39.958057"
       x="422.72577"
       y="1277.2097"
       inkscape:label="P21">
      <title
         id="title60">P21</title>
    </rect>
    <rect
       style="display:inline;fill:#000000;fill-opacity:1;stroke:none;stroke-width:8;stroke-dasharray:none;stroke-opacity:1"
       id="p-p-1-20"
       width="78.197487"
       height="39.958057"
       x="420.57318"
       y="1331.0076"
       inkscape:label="P20">
      <title
         id="title59">P20</title>
    </rect>
    <rect
       style="display:inline;fill:#000000;fill-opacity:1;stroke:none;stroke-width:8;stroke-dasharray:none;stroke-opacity:1"
       id="p-p-1-19"
       width="78.197487"
       height="39.958057"
       x="426.33093"
       y="1387.3099"
       inkscape:label="P19">
      <title
         id="title58">P19</title>
    </rect>
    <rect
       style="display:inline;fill:#000000;fill-opacity:1;stroke:none;stroke-width:8;stroke-dasharray:none;stroke-opacity:1"
       id="p-p-1-18"
       width="78.197487"
       height="39.958057"
       x="424.17834"
       y="1441.1078"
       inkscape:label="P18">
      <title
         id="title57">P18</title>
    </rect>
    <rect
       style="display:inline;fill:#000000;fill-opacity:1;stroke:none;stroke-width:8;stroke-dasharray:none;stroke-opacity:1"
       id="p-p-1-17"
       width="84.156212"
       height="48.00246"
       x="1452.6427"
       y="1632.4221"
       inkscape:label="P17">
      <title
         id="title56">P17</title>
    </rect>
    <rect
       style="display:inline;fill:#000000;fill-opacity:1;stroke:none;stroke-width:8;stroke-dasharray:none;stroke-opacity:1"
       id="p-p-1-16"
       width="84.156212"
       height="48.00246"
       x="1333.2054"
       y="1631.2662"
       inkscape:label="P16">
      <title
         id="title55">P16</title>
    </rect>
    <rect
       style="display:inline;fill:#000000;fill-opacity:1;stroke:none;stroke-width:8;stroke-dasharray:none;stroke-opacity:1"
       id="p-p-1-15"
       width="84.156212"
       height="48.00246"
       x="1210.9241"
       y="1634.5476"
       inkscape:label="P15">
      <title
         id="title54">P15</title>
    </rect>
    <rect
       style="display:inline;fill:#000000;fill-opacity:1;stroke:none;stroke-width:8;stroke-dasharray:none;stroke-opacity:1"
       id="p-p-1-14"
       width="84.156212"
       height="48.00246"
       x="1091.1104"
       y="1634.8441"
       inkscape:label="P14">
      <title
         id="title53">P14</title>
    </rect>
    <rect
       style="display:inline;fill:#000000;fill-opacity:1;stroke:none;stroke-width:8;stroke-dasharray:none;stroke-opacity:1"
       id="p-p-1-13"
       width="84.156212"
       height="48.00246"
       x="968.68823"
       y="1634.5476"
       inkscape:label="P13">
      <title
         id="title52">P13</title>
    </rect>
    <rect
       style="display:inline;fill:#000000;fill-opacity:1;stroke:none;stroke-width:8;stroke-dasharray:none;stroke-opacity:1"
       id="p-p-1-12"
       width="84.156212"
       height="48.00246"
       x="849.82892"
       y="1635.1407"
       inkscape:label="P12">
      <title
         id="title51">P12</title>
    </rect>
    <rect
       style="display:inline;fill:#000000;fill-opacity:1;stroke:none;stroke-width:8;stroke-dasharray:none;stroke-opacity:1"
       id="p-p-1-11"
       width="84.156212"
       height="48.00246"
       x="729.56274"
       y="1634.8593"
       inkscape:label="P11">
      <title
         id="title50">P11</title>
    </rect>
    <rect
       style="display:inline;fill:#000000;fill-opacity:1;stroke:none;stroke-width:8;stroke-dasharray:none;stroke-opacity:1"
       id="p-p-1-10"
       width="84.156212"
       height="48.00246"
       x="608.82892"
       y="1634.8441"
       inkscape:label="P10">
      <title
         id="title49">P10</title>
    </rect>
    <rect
       style="display:inline;fill:#000000;fill-opacity:1;stroke:none;stroke-width:8;stroke-dasharray:none;stroke-opacity:1"
       id="p-p-1-9"
       width="84.156212"
       height="48.00246"
       x="490"
       y="1633.251"
       inkscape:label="P9">
      <title
         id="title48">P9</title>
    </rect>
    <rect
       style="display:inline;fill:#000000;fill-opacity:1;stroke:none;stroke-width:8;stroke-dasharray:none;stroke-opacity:1"
       id="p-p-1-8"
       width="58.939728"
       height="91.751541"
       x="261.75769"
       y="996.53137"
       inkscape:label="P8">
      <title
         id="title47">P8</title>
    </rect>
    <rect
       style="display:inline;fill:#000000;fill-opacity:1;stroke:none;stroke-width:8;stroke-dasharray:none;stroke-opacity:1"
       id="p-p-1-7"
       width="58.939728"
       height="91.751541"
       x="261.71954"
       y="875.49078"
       inkscape:label="P7">
      <title
         id="title46">P7</title>
    </rect>
    <rect
       style="display:inline;fill:#000000;fill-opacity:1;stroke:none;stroke-width:8;stroke-dasharray:none;stroke-opacity:1"
       id="p-p-1-6"
       width="58.939728"
       height="91.751541"
       x="260.01108"
       y="755.30261"
       inkscape:label="P6">
      <title
         id="title45">P6</title>
    </rect>
    <rect
       style="display:inline;fill:#000000;fill-opacity:1;stroke:none;stroke-width:8;stroke-dasharray:none;stroke-opacity:1"
       id="p-p-1-5"
       width="58.939728"
       height="91.751541"
       x="256.69495"
       y="632.6322"
       inkscape:label="P5">
      <title
         id="title44">P5</title>
    </rect>
    <rect
       style="display:inline;fill:#000000;fill-opacity:1;stroke:none;stroke-width:8;stroke-dasharray:none;stroke-opacity:1"
       id="p-p-1-4"
       width="58.939728"
       height="91.751541"
       x="257.20172"
       y="512.6347"
       inkscape:label="P4">
      <title
         id="title43">P4</title>
    </rect>
    <rect
       style="display:inline;fill:#000000;fill-opacity:1;stroke:none;stroke-width:8;stroke-dasharray:none;stroke-opacity:1"
       id="p-p-1-3"
       width="58.939728"
       height="91.751541"
       x="254.59532"
       y="390.70355"
       inkscape:label="P3">
      <title
         id="title42">P3</title>
    </rect>
    <rect
       style="display:inline;fill:#000000;fill-opacity:1;stroke:none;stroke-width:8;stroke-dasharray:none;stroke-opacity:1"
       id="p-p-i-1-2"
       width="45.571957"
       height="79.599014"
       x="549.90161"
       y="308.06641"
       inkscape:label="P2">
      <title
         id="title40">P2</title>
    </rect>
    <rect
       style="display:inline;fill:#000000;fill-opacity:1;stroke:none;stroke-width:8;stroke-dasharray:none;stroke-opacity:1"
       id="p-p-i-1-1"
       width="47.394833"
       height="76.560883"
       x="609.44897"
       y="309.28168"
       inkscape:label="P1">
      <title
         id="title41">P1</title>
    </rect>
  </g>
</svg>
