<?xml version="1.0" encoding="UTF-8" standalone="no"?>
<!-- Created with Inkscape (http://www.inkscape.org/) -->

<svg
   version="1.1"
   id="svg1"
   width="2184"
   height="1976"
   viewBox="0 0 2184 1976"
   sodipodi:docname="third.svg"
   inkscape:version="1.3.2 (091e20e, 2023-11-25, custom)"
   xml:space="preserve"
   xmlns:inkscape="http://www.inkscape.org/namespaces/inkscape"
   xmlns:sodipodi="http://sodipodi.sourceforge.net/DTD/sodipodi-0.dtd"
   xmlns:xlink="http://www.w3.org/1999/xlink"
   xmlns="http://www.w3.org/2000/svg"
   xmlns:svg="http://www.w3.org/2000/svg"><defs
     id="defs1" /><sodipodi:namedview
     id="namedview1"
     pagecolor="#ffffff"
     bordercolor="#000000"
     borderopacity="0.25"
     inkscape:showpageshadow="2"
     inkscape:pageopacity="0.0"
     inkscape:pagecheckerboard="0"
     inkscape:deskcolor="#d1d1d1"
     showgrid="false"
     inkscape:zoom="0.27690271"
     inkscape:cx="655.46487"
     inkscape:cy="749.36067"
     inkscape:window-width="1920"
     inkscape:window-height="1009"
     inkscape:window-x="-8"
     inkscape:window-y="-8"
     inkscape:window-maximized="1"
     inkscape:current-layer="g1" /><g
     inkscape:groupmode="layer"
     inkscape:label="Image"
     id="g1"><image
       width="2097.2197"
       height="2032.1361"
       preserveAspectRatio="none"
       xlink:href="third_aligned.png"
       id="image1-3"
       x="61.888588"
       y="-10.647019"
       style="display:inline" /><g
       id="walls-g"
       style="display:inline"
       inkscape:label="walls"><path
         id="outside-walls"
         style="display:inline;fill:#000000;fill-opacity:1;stroke:none;stroke-width:8;stroke-dasharray:none;stroke-opacity:1"
         inkscape:label="Outside walls"
         d="M 1818.7773 7.1386719 L 1819.5371 46.179688 L 1782.4238 46.71875 L 1782.4336 46.603516 L 417.36914 69.462891 L 417.13477 45.724609 L 407.86914 45.724609 L 410.75586 329.0293 L 215.25195 329.48438 L 226.18945 758.46875 L 233.32812 1032.0527 L 235.75977 1117.7285 L 238.3418 1272.0645 L 240.16406 1347.5625 L 242.89844 1447.5176 L 267.66016 1542.1543 L 280.72266 1583.7773 L 359.10742 1676.4395 L 447.97266 1709.252 L 568.13086 1720.7969 L 691.17383 1733.5566 L 777.00195 1741.1523 L 896.24805 1746.9258 L 1001.5195 1752.5449 L 1115.2969 1758.3184 L 1207.5059 1763.7871 L 1303.5098 1769.2559 L 1396.3242 1773.3574 L 1486.5566 1771.0781 L 1556.7383 1768.6484 L 1626.918 1741.457 L 1645.6035 1734.0137 L 1696.0371 1702.873 L 1727.3281 1682.668 L 1753.3047 1657.6035 L 1806.7754 1605.3477 L 1860.248 1609.2969 L 1874.375 1533.6484 L 1885.6152 1463.3164 L 1896.5527 1390.5527 L 1905.9707 1318.2441 L 1914.0215 1258.0898 L 1924.6562 1183.3516 L 1930.7324 1130.0332 L 1939.543 1070.334 L 1948.2012 1006.8359 L 1956.252 947.28906 L 1965.5176 875.89258 L 1976.9121 786.11719 L 1988 701.80859 L 2004.5586 577.70117 L 2015.4961 498.55664 L 2025.0664 421.08398 L 2039.1934 317.0293 L 2050.7383 231.35352 L 2058.334 172.10938 L 2069.7266 83.244141 L 2073.6758 48.761719 L 1832.4492 46.787109 L 1829.5625 46.634766 L 1830.625 7.2910156 L 1818.7773 7.1386719 z M 1640.6133 65.042969 L 1644.0391 194.2832 L 1643.6191 193.54883 L 1640.1074 191.31445 L 1635.002 191.95312 L 1628.9355 195.7832 L 1630.1641 295.21094 L 1564.7734 295.09961 L 1564.7734 197.66211 L 1562.2207 193.19336 L 1558.709 190.95898 L 1553.6016 191.59766 L 1547.5371 195.42773 L 1548.7676 295.07422 L 1490.5469 294.97461 L 1491.6406 202.76758 L 1490.0605 196.22266 L 1485.7715 192.16016 L 1473.1328 191.25781 L 1464.7812 192.16016 L 1461.6211 194.41797 L 1459.3633 198.70508 L 1459.584 294.92383 L 1409.3125 294.83789 L 1410.0918 197.17383 L 1416.9551 197.17383 L 1416.9551 192.06836 L 1398.6016 192.06836 L 1398.6016 196.85547 L 1406.2617 196.85547 L 1405.3242 294.83203 L 1350.6738 294.74023 L 1351.7832 201.10938 L 1350.2031 194.5625 L 1345.9141 190.5 L 1333.2754 189.59766 L 1324.9238 190.5 L 1321.7637 192.75781 L 1319.5059 197.04492 L 1319.7285 294.6875 L 1265.2598 294.5957 L 1266.0508 195.72656 L 1272.9121 195.72656 L 1272.9121 190.61914 L 1254.5586 190.61914 L 1254.5586 195.40625 L 1262.2188 195.40625 L 1261.2695 294.58984 L 1209.5625 294.50195 L 1210.3438 196.76758 L 1217.207 196.76758 L 1217.207 191.66016 L 1198.8535 191.66016 L 1198.8535 196.44922 L 1206.5137 196.44922 L 1205.5762 294.49609 L 1153.2832 294.4082 L 1153.2832 194.39453 L 1150.7285 189.92578 L 1147.2188 187.69141 L 1142.1113 188.33008 L 1136.0449 192.16016 L 1137.3066 294.38086 L 1084.3125 294.29102 L 1085.0918 196.64062 L 1091.9551 196.64062 L 1091.9551 191.5332 L 1073.6016 191.5332 L 1073.6016 196.32227 L 1081.2617 196.32227 L 1080.3242 294.28516 L 1028.7793 294.19727 L 1028.1543 193.4375 L 1025.6016 190.24609 L 1021.7715 188.33008 L 1017.3027 188.64844 L 1012.1953 191.8418 L 1012.8262 294.17188 L 962.25781 294.08594 L 963.05078 195.17383 L 969.91211 195.17383 L 969.91211 190.06836 L 951.55859 190.06836 L 951.55859 194.85547 L 959.21875 194.85547 L 958.26953 294.07812 L 907.77539 293.99219 L 908.55859 195.83398 L 915.42188 195.83398 L 915.42188 190.72656 L 897.06836 190.72656 L 897.06836 195.51367 L 904.72852 195.51367 L 903.78711 293.98633 L 854.8125 293.9043 L 853.86914 195.67188 L 851.63477 191.20312 L 847.48633 188.96875 L 840.46289 189.60742 L 836.95117 192.79883 L 834.07812 196.94922 L 834.71484 293.86914 L 781.4082 293.7793 L 782.18945 196.08984 L 789.05273 196.08984 L 789.05273 190.98242 L 770.69922 190.98242 L 770.69922 195.77148 L 778.35938 195.77148 L 777.42188 293.77344 L 726.50781 293.6875 L 726.50781 195.0332 L 722.99609 190.24609 L 718.8457 189.28711 L 711.18555 190.24609 L 707.99414 194.07617 L 706.39844 218.01562 L 707.98047 293.65625 L 652.76367 293.5625 L 651.81445 191.8418 L 649.89844 188.64844 L 642.23828 189.28711 L 639.36523 194.39453 L 640.31836 293.54102 L 586.54102 293.45117 L 587.33398 194.23633 L 594.19727 194.23633 L 594.19727 189.12891 L 575.84375 189.12891 L 575.84375 193.91602 L 583.50391 193.91602 L 582.55273 293.44336 L 527.69141 293.35156 L 529.96875 293.19922 L 528.61523 192.30664 L 526.81055 189.82227 L 520.94141 189.14648 L 516.87891 190.72656 L 515.75 194.78906 L 516.42188 293.33203 L 516.40039 293.33203 L 516.50781 303.42969 L 516.80078 303.42969 L 517.42969 396.13086 L 521.25977 399.64258 L 527.00586 402.83594 L 537.53906 401.87695 L 542.00781 397.08984 L 540.75391 303.41211 L 592.8457 303.37305 L 593.91211 399.93164 L 585.55078 399.93164 L 585.55078 403.85156 L 605.56445 403.85156 L 605.56445 399.97852 L 598.1582 399.97852 L 598.1582 303.36914 L 660.18555 303.32422 L 660.18555 403.76758 L 762.57031 403.76758 L 762.57031 303.24805 L 790.46484 303.22656 L 791.34375 405.37695 L 1158.3496 405.37695 L 1158.7871 302.95703 L 1213.8789 302.91602 L 1214.5508 394.54297 L 1216.1309 400.41211 L 1219.7422 403.57227 L 1224.9336 403.11914 L 1228.3203 399.50781 L 1228.3203 302.9043 L 1279.4648 302.86719 L 1280.5312 399.55078 L 1272.1699 399.55078 L 1272.1699 403.4707 L 1292.1836 403.4707 L 1292.1836 399.59766 L 1284.7773 399.59766 L 1284.7773 302.86328 L 1336.8984 302.82422 L 1337.5645 394.76953 L 1338.6914 399.2832 L 1340.9492 401.08789 L 1345.6895 404.02344 L 1354.2656 403.57227 L 1359.0059 400.86328 L 1361.4883 395.67188 L 1360.3926 302.80664 L 1416.2695 302.76562 L 1413.502 303.04492 L 1414.5762 400.36328 L 1406.2148 400.36328 L 1406.2148 404.2832 L 1426.2285 404.2832 L 1426.2285 400.41016 L 1418.8223 400.41016 L 1418.8223 302.76367 L 1468.8477 302.72656 L 1469.9102 399.11719 L 1461.5488 399.11719 L 1461.5488 403.03906 L 1481.5625 403.03906 L 1481.5625 399.16406 L 1474.1562 399.16406 L 1474.1562 302.72266 L 1525.3984 302.68555 L 1527.3867 397.47656 L 1530.0957 401.53906 L 1536.1895 404.69922 L 1542.9609 404.02344 L 1549.0547 401.31445 L 1551.5371 392.96289 L 1549.793 302.66602 L 1603.6895 302.62695 L 1604.6367 405.70703 L 1701.0352 406.3457 L 1718.9121 405.70703 L 1750.1934 406.02734 L 1760.7266 403.1543 L 1768.3887 395.8125 L 1775.0918 385.2793 L 1775.0918 302.60547 L 1758.4238 302.51172 L 1780.1973 302.49609 L 1780.1992 302.60547 L 1884.2598 301.9668 L 1885.2168 338.03711 L 1885.8555 343.14453 L 1889.3652 346.97461 L 1895.75 348.25195 L 1986.4043 348.25195 L 1986.6992 398.88477 L 1892.4453 398.88477 L 1892.4453 390.98438 L 1887.2812 390.98438 L 1887.2812 411.1875 L 1892.5977 411.18164 L 1892.5977 402.68164 L 1986.7227 402.68164 L 1987.0469 458.58008 L 1895.4453 458.58008 L 1895.4453 450.67969 L 1890.2812 450.67969 L 1890.2812 470.88477 L 1895.5977 470.87695 L 1895.5977 462.37695 L 1987.0703 462.37695 L 1987.3418 509.00195 L 1896.0098 509.00195 L 1896.0098 501.10352 L 1890.8438 501.10352 L 1890.8438 521.30664 L 1896.1602 521.29883 L 1896.1602 512.79883 L 1972.0938 512.79883 L 1946.5039 513.59766 L 1926.3945 517.74805 L 1910.1152 528.91992 L 1904.0488 539.13477 L 1899.2617 553.81836 L 1898.623 599.46484 L 1901.1777 694.58789 L 1906.2832 953.78125 L 1902.4531 1037.4121 L 1769.4199 1034.2578 L 1769.4297 817.46875 L 1769.5859 817.46875 L 1769.4297 815.71289 L 1769.4336 707.42969 L 1769.3203 707.42578 L 1767.1113 630.42773 L 1767.75 573.60938 L 1758.8125 546.47656 L 1737.7441 522.2168 L 1711.5703 513.91797 L 1424.2871 511.36328 L 1094.4727 511.6875 L 1080.7051 513.49219 L 1065.1309 519.36133 L 1050.9102 529.29297 L 1040.7539 542.38281 L 1032.8535 556.83008 L 1031.0488 567.4375 L 1030.3887 628.0332 L 1031.1875 636.9707 L 1032.9434 640.16211 L 1034.8574 642.23828 L 1036.3711 642.24805 L 1036.3711 652.72656 L 1040.3457 652.72656 L 1040.3457 645.69141 L 1132.6816 645.69141 L 1132.6973 698.85742 L 1038.4805 699.31641 L 1038.4805 691.04492 L 1034.291 691.04492 L 1034.291 709.57422 L 1038.2656 709.57422 L 1038.2656 702.53906 L 1132.6992 702.53906 L 1132.7148 755.23828 L 1038.6133 755.69727 L 1038.6133 747.42578 L 1034.4238 747.42578 L 1034.4238 765.95508 L 1038.3984 765.95508 L 1038.3984 758.91992 L 1132.7168 758.91992 L 1132.7324 811.36914 L 1041.4277 811.81445 L 1041.4277 803.54297 L 1037.2383 803.54297 L 1037.2383 822.07227 L 1041.2129 822.07227 L 1041.2129 815.03711 L 1132.7324 815.03711 L 1132.748 869.35156 L 1042.5039 869.79102 L 1042.5039 861.52148 L 1038.3145 861.52148 L 1038.3145 880.05078 L 1042.2891 880.05078 L 1042.2891 873.01367 L 1132.75 873.01367 L 1132.7656 924.49805 L 1040.4648 924.94727 L 1040.4648 916.67578 L 1036.2754 916.67578 L 1036.2754 935.20508 L 1040.25 935.20508 L 1040.25 928.16992 L 1132.7656 928.16992 L 1132.7812 980.75195 L 1041.0586 981.19922 L 1041.0586 972.92773 L 1036.8691 972.92773 L 1036.8691 991.45703 L 1040.8438 991.45703 L 1040.8438 984.42188 L 1132.7832 984.42188 L 1132.7988 1038.9219 L 1040.9102 1039.3691 L 1040.9102 1031.0996 L 1036.7207 1031.0996 L 1036.7207 1049.627 L 1040.6953 1049.627 L 1040.6953 1042.5918 L 1132.8008 1042.5918 L 1132.8145 1093.7246 L 1041.8945 1094.168 L 1041.8945 1085.8965 L 1037.7051 1085.8965 L 1037.7051 1104.4258 L 1041.6797 1104.4258 L 1041.6797 1097.3906 L 1132.8164 1097.3906 L 1132.832 1152.8926 L 1041.4648 1153.3398 L 1041.4648 1145.0684 L 1037.2754 1145.0684 L 1037.2754 1163.5977 L 1041.25 1163.5977 L 1041.25 1156.5625 L 1132.834 1156.5625 L 1132.8496 1210.1602 L 1039.7773 1210.6133 L 1039.7773 1202.3418 L 1035.5879 1202.3418 L 1035.5879 1220.8711 L 1039.5625 1220.8711 L 1039.5625 1213.8359 L 1132.8516 1213.8359 L 1132.8652 1264.1289 L 1039.7461 1264.582 L 1039.7461 1256.3125 L 1035.5586 1256.3125 L 1035.5586 1274.8418 L 1039.5312 1274.8418 L 1039.5312 1267.8047 L 1132.8672 1267.8047 L 1132.8828 1322.3008 L 1041.7324 1322.7461 L 1041.7324 1314.4746 L 1037.543 1314.4746 L 1037.543 1333.0039 L 1041.5176 1333.0039 L 1041.5176 1325.9688 L 1132.8848 1325.9688 L 1132.9004 1378.7031 L 1040.9023 1379.1523 L 1040.9023 1370.8828 L 1036.7129 1370.8828 L 1036.7129 1389.4121 L 1040.6875 1389.4121 L 1040.6875 1382.375 L 1132.9004 1382.375 L 1132.918 1437.1738 L 1034.6133 1436.3418 L 1032.25 1436.207 L 1032.6602 1441.5938 L 1034.7871 1450.0996 L 1041.7754 1465.5938 L 1052.1055 1480.4805 L 1068.207 1493.2402 L 1080.6621 1500.2285 L 1099.5 1506.3047 L 1114.082 1507.2168 L 1153.8828 1507.5195 L 1172.4141 1505.6973 L 1186.3906 1500.5332 L 1201.5801 1494.7598 L 1208.2637 1489.5957 L 1215.8594 1482.6074 L 1223.4551 1473.7969 L 1229.5312 1464.0742 L 1235 1454.6562 L 1237.8398 1438.0605 L 1139.4453 1437.2285 L 1139.3047 1382.375 L 1228.0176 1382.375 L 1228.0176 1390.5391 L 1232.6367 1390.5391 L 1232.6367 1370.5059 L 1227.9648 1370.5059 L 1227.9648 1378.2402 L 1139.2949 1378.6719 L 1139.1602 1325.9688 L 1228.8477 1325.9688 L 1228.8477 1334.1328 L 1233.4668 1334.1328 L 1233.4668 1314.0996 L 1228.793 1314.0996 L 1228.793 1321.834 L 1139.1504 1322.2715 L 1139.0098 1267.8047 L 1226.8613 1267.8047 L 1226.8613 1275.9688 L 1231.4805 1275.9688 L 1231.4805 1255.9355 L 1226.8086 1255.9355 L 1226.8086 1263.6699 L 1139 1264.0977 L 1138.8711 1213.8359 L 1226.8926 1213.8359 L 1226.8926 1222 L 1231.5117 1222 L 1231.5117 1201.9668 L 1226.8398 1201.9668 L 1226.8398 1209.7012 L 1138.8613 1210.1309 L 1138.7227 1156.5625 L 1228.5801 1156.5625 L 1228.5801 1164.7246 L 1233.1992 1164.7246 L 1233.1992 1144.6934 L 1228.5273 1144.6934 L 1228.5273 1152.4258 L 1138.7129 1152.8652 L 1138.5703 1097.3906 L 1229.0098 1097.3906 L 1229.0098 1105.5547 L 1233.6289 1105.5547 L 1233.6289 1085.5215 L 1228.957 1085.5215 L 1228.957 1093.2559 L 1138.5605 1093.6973 L 1138.4297 1042.5918 L 1228.0254 1042.5918 L 1228.0254 1050.7559 L 1232.6445 1050.7559 L 1232.6445 1030.7227 L 1227.9727 1030.7227 L 1227.9727 1038.457 L 1138.4199 1038.8945 L 1138.2793 984.42188 L 1228.1738 984.42188 L 1228.1738 992.58398 L 1232.793 992.58398 L 1232.793 972.55273 L 1228.1211 972.55273 L 1228.1211 980.28516 L 1138.2695 980.72461 L 1138.1348 928.16992 L 1227.5801 928.16992 L 1227.5801 936.33398 L 1232.1992 936.33398 L 1232.1992 916.30078 L 1227.5273 916.30078 L 1227.5273 924.03516 L 1138.125 924.4707 L 1137.9922 873.01367 L 1229.6191 873.01367 L 1229.6191 881.17773 L 1234.2383 881.17773 L 1234.2383 861.14453 L 1229.5645 861.14453 L 1229.5645 868.87891 L 1137.9824 869.32617 L 1137.8438 815.03711 L 1228.543 815.03711 L 1228.543 823.20117 L 1233.1621 823.20117 L 1233.1621 803.16797 L 1228.4883 803.16797 L 1228.4883 810.90234 L 1137.834 811.34375 L 1137.6992 758.91992 L 1225.7285 758.91992 L 1225.7285 767.08203 L 1230.3477 767.08203 L 1230.3477 747.05078 L 1225.6758 747.05078 L 1225.6758 754.7832 L 1137.6895 755.21289 L 1137.5527 702.53906 L 1225.5957 702.53906 L 1225.5957 710.70312 L 1230.2148 710.70312 L 1230.2148 690.66992 L 1225.543 690.66992 L 1225.543 698.4043 L 1137.543 698.83398 L 1137.4062 645.69141 L 1227.6758 645.69141 L 1227.6758 653.85352 L 1232.2949 653.85352 L 1232.2949 633.82227 L 1227.623 633.82227 L 1227.623 641.55469 L 1133.5137 642.01367 L 1135.3262 637.4082 L 1134.6484 585.26953 L 1249.6484 586.28516 L 1253.5996 584.5918 L 1255.5176 582.10938 L 1256.6465 579.51367 L 1256.6465 577.03125 L 1256.5332 573.53125 L 1258.3008 573.60938 L 1670.0742 575.20508 L 1670.7109 580.95117 L 1671.3496 586.05859 L 1674.2227 588.61133 L 1681.8848 589.56836 L 1761.3652 589.56836 L 1761.6484 641.58008 L 1667.0352 641.58008 L 1667.0352 633.68164 L 1661.8711 633.68164 L 1661.8711 653.88477 L 1667.1855 653.87695 L 1667.1855 645.37695 L 1761.668 645.37695 L 1761.9648 700.02539 L 1667.123 700.02539 L 1667.123 692.12695 L 1661.957 692.12695 L 1661.957 712.33008 L 1667.2734 712.32422 L 1667.2734 703.82422 L 1761.9863 703.82422 L 1762.0039 707.03516 L 1764.1699 707.41211 L 1764.2129 758.29102 L 1667.8301 758.29102 L 1667.8301 750.39258 L 1662.6641 750.39258 L 1662.6641 770.5957 L 1667.9805 770.58789 L 1667.9805 762.08789 L 1764.2168 762.08789 L 1764.2598 813.67188 L 1669.5938 813.67188 L 1669.5938 805.77148 L 1664.4297 805.77148 L 1664.4297 825.97461 L 1669.7461 825.96875 L 1669.7461 817.46875 L 1764.2637 817.46875 L 1764.3105 872.52344 L 1668.2598 872.52344 L 1668.2598 864.62305 L 1663.0957 864.62305 L 1663.0957 884.82617 L 1668.4102 884.82031 L 1668.4102 876.32031 L 1764.3145 876.32031 L 1764.3574 927.65625 L 1669.002 927.65625 L 1669.002 919.75586 L 1663.8359 919.75586 L 1663.8359 939.96094 L 1669.1523 939.95312 L 1669.1523 931.45312 L 1764.3613 931.45312 L 1764.4062 984.5 L 1668.1562 984.5 L 1668.1562 976.60156 L 1662.9922 976.60156 L 1662.9922 996.80469 L 1668.3086 996.79688 L 1668.3086 988.29688 L 1764.4102 988.29688 L 1764.4531 1040.1953 L 1668.5801 1040.1953 L 1668.5801 1032.2969 L 1663.4141 1032.2969 L 1663.4141 1052.5 L 1668.7305 1052.4902 L 1668.7305 1043.9902 L 1764.457 1043.9902 L 1764.5039 1099.1797 L 1668.1562 1099.1797 L 1668.1562 1091.2812 L 1662.9922 1091.2812 L 1662.9922 1111.4844 L 1668.3086 1111.4746 L 1668.3086 1102.9746 L 1764.5078 1102.9746 L 1764.5508 1155.3281 L 1668.1426 1155.3281 L 1668.1426 1147.4297 L 1662.9766 1147.4297 L 1662.9766 1167.6328 L 1668.293 1167.623 L 1668.293 1159.123 L 1764.5547 1159.123 L 1764.5977 1210.6328 L 1667.8828 1210.6328 L 1667.8828 1202.7344 L 1662.7188 1202.7344 L 1662.7188 1222.9375 L 1668.0352 1222.9277 L 1668.0352 1214.4277 L 1764.6016 1214.4277 L 1764.6484 1268.2988 L 1668.5938 1268.2988 L 1668.5938 1260.3984 L 1663.4297 1260.3984 L 1663.4297 1280.6035 L 1668.7461 1280.5938 L 1668.7461 1272.0938 L 1764.6504 1272.0938 L 1764.6973 1326.3496 L 1684.4688 1326.3496 L 1677.5938 1329.3574 L 1671.3633 1334.7285 L 1664.2754 1343.1055 L 1661.0527 1351.9141 L 1662.5566 1487.9004 L 1663.2012 1498.2129 L 1663.916 1499.1836 L 1665.2969 1508.6523 L 1670.9395 1516.1016 L 1681.3223 1522.873 L 1697.3477 1525.8066 L 1767.7695 1525.3555 L 1767.4492 1576.752 L 1672.0801 1576.752 L 1672.0801 1568.8535 L 1666.916 1568.8535 L 1666.916 1589.0566 L 1672.2305 1589.0469 L 1672.2305 1580.5469 L 1767.4258 1580.5469 L 1767.1172 1630.2188 L 1762.1133 1635.0938 L 1735.2656 1635.7285 L 1649.9473 1635.9531 L 1615.8652 1634.8242 L 1605.9336 1637.7598 L 1599.1621 1642.7246 L 1594.4336 1648.2754 L 1581.0566 1648.2754 L 1581.0566 1653.1094 L 1588.8984 1653.1094 L 1588.8984 1686.7109 L 1511.8125 1686.2871 L 1472.373 1686.1191 L 1472.373 1652.293 L 1480.2148 1652.293 L 1480.2148 1647.2441 L 1459.5918 1647.2441 L 1459.5918 1652.0781 L 1467.4316 1652.0781 L 1467.4316 1686.0977 L 1353.1387 1685.6094 L 1351.0312 1685.5938 L 1351.0312 1652.7637 L 1358.873 1652.7637 L 1358.873 1647.7148 L 1338.25 1647.7148 L 1338.25 1652.5488 L 1346.0898 1652.5488 L 1346.0898 1685.5547 L 1229.832 1684.6465 L 1229.832 1652.334 L 1237.6738 1652.334 L 1237.6738 1647.2852 L 1217.0488 1647.2852 L 1217.0488 1652.1191 L 1224.8906 1652.1191 L 1224.8906 1684.6074 L 1208.9082 1684.4824 C 1208.9082 1684.4824 1155.5835 1684.7126 1109.668 1684.9121 L 1109.668 1651.8633 L 1117.5098 1651.8633 L 1117.5098 1646.8145 L 1096.8867 1646.8145 L 1096.8867 1651.6484 L 1104.7266 1651.6484 L 1104.7266 1684.9336 C 1081.8918 1685.0329 1052.8691 1685.1582 1053.168 1685.1582 C 1053.4892 1685.1582 1019.5215 1685.0717 991.02148 1684.998 L 991.02148 1653.0703 L 998.86328 1653.0703 L 998.86328 1648.0234 L 978.24023 1648.0234 L 978.24023 1652.8555 L 986.08008 1652.8555 L 986.08008 1684.9844 C 935.11698 1684.8528 878.4668 1684.707 878.4668 1684.707 L 871.69141 1684.7188 L 871.69141 1652.5605 L 879.5332 1652.5605 L 879.5332 1647.5117 L 858.9082 1647.5117 L 858.9082 1652.3457 L 866.75 1652.3457 L 866.75 1684.7285 L 755.90625 1684.9336 L 749.26758 1684.9336 L 749.26758 1651.1582 L 757.10938 1651.1582 L 757.10938 1646.1094 L 736.48438 1646.1094 L 736.48438 1650.9434 L 744.32617 1650.9434 L 744.32617 1684.9336 L 630.76562 1684.9336 L 630.76562 1651.502 L 638.60742 1651.502 L 638.60742 1646.4531 L 617.98438 1646.4531 L 617.98438 1651.2871 L 625.82617 1651.2871 L 625.82617 1684.9336 L 548.47852 1684.9336 L 508.84375 1685.4102 L 508.84375 1652.5586 L 516.68555 1652.5586 L 516.68555 1647.5098 L 496.06055 1647.5098 L 496.06055 1652.3438 L 503.90234 1652.3438 L 503.90234 1685.4688 L 435.84766 1686.2871 L 415.48828 1687.3223 L 388.70703 1677.7188 L 389.35156 1646.3359 L 384.16016 1646.3359 L 384.61133 1654.4629 L 378.51758 1650.8516 L 362.04102 1637.9844 L 347.14453 1623.3145 L 327.73242 1599.1621 L 314.64062 1575.9141 L 303.80664 1550.4102 L 297.03516 1522.6465 L 295.45508 1507.0723 L 294.7793 1490.5957 L 294.55273 1416.3359 L 293.875 1325.8262 L 292.74805 1253.8242 L 292.52148 1167.377 L 293.42383 1127.4258 L 291.16797 1121.1074 L 285.75 1113.4316 L 279.20508 1107.7891 L 272.9375 1103.9492 L 289.06445 1103.9492 L 289.06445 1112.3809 L 294.5332 1112.3809 L 294.5332 1090.6582 L 289.2168 1090.6582 L 289.2168 1099.2402 L 254.60352 1099.2402 L 255.50586 1026.7598 L 255.23242 984.25391 L 290.81055 984.25391 L 290.81055 992.68359 L 296.2793 992.68359 L 296.2793 970.96094 L 290.96289 970.96094 L 290.96289 979.54492 L 255.20312 979.54492 L 255.05273 956.11133 L 254.60156 868.08398 L 254.55469 863.24023 L 289.64648 863.24023 L 289.64648 871.67188 L 295.11523 871.67188 L 295.11523 849.94922 L 289.79883 849.94922 L 289.79883 858.53125 L 254.50977 858.53125 L 253.69922 773.51172 L 253.56641 742.51953 L 289.33008 742.51953 L 289.33008 750.94922 L 294.79883 750.94922 L 294.79883 729.22852 L 289.48242 729.22852 L 289.48242 737.81055 L 253.54688 737.81055 L 253.24805 667.87891 L 252.66992 622.43164 L 287.83789 622.43164 L 287.83789 630.86133 L 293.30469 630.86133 L 293.30469 609.13867 L 287.98828 609.13867 L 287.98828 617.72266 L 252.60938 617.72266 L 252.11914 579.17383 L 252.48047 500.15234 L 287.40625 500.15234 L 287.40625 508.58398 L 292.875 508.58398 L 292.875 486.86133 L 287.55859 486.86133 L 287.55859 495.44336 L 252.50195 495.44336 L 252.57031 480.3125 L 251.2168 407.63477 L 251.2168 379.01953 L 285.25391 379.01953 L 285.25391 387.45117 L 290.72266 387.45117 L 290.72266 365.72852 L 285.40625 365.72852 L 285.40625 374.31055 L 276.41406 374.31055 L 283.71875 367.00586 L 287.78125 359.33203 L 288.82422 338.9043 L 362.46484 338.73438 L 363.06055 372.08203 L 369.50391 382.39453 L 379.60156 388.83984 L 397.2168 390.77344 L 410.75195 390.98828 L 417.41211 388.83984 L 423.42578 381.96484 L 425.57422 377.45312 L 425.57422 300.11523 L 419.64062 299.91797 L 417.48242 81.052734 L 1640.6133 65.042969 z M 1646.1738 274.80469 L 1646.7148 295.23828 L 1646.1738 295.23828 L 1646.1738 274.80469 z M 411.77344 511.68359 L 407.30469 514.55664 L 404.43164 518.38672 L 405.38867 574.56641 L 408.58008 580.95117 L 414.32617 586.69531 L 420.71094 588.93164 L 503.38477 588.61133 L 503.67383 588.61328 L 503.83203 639.79297 L 411.71875 640.24219 L 411.71875 631.9707 L 407.5293 631.9707 L 407.5293 650.5 L 411.50391 650.5 L 411.50391 643.46484 L 503.84375 643.46484 L 504.00977 697.49023 L 413.38672 697.93164 L 413.38672 689.66016 L 409.19727 689.66016 L 409.19727 708.18945 L 413.17188 708.18945 L 413.17188 701.1543 L 504.02148 701.1543 L 504.1875 754.32617 L 411.30664 754.7793 L 411.30664 746.50977 L 407.11719 746.50977 L 407.11719 765.03711 L 411.0918 765.03711 L 411.0918 758.00195 L 504.19727 758.00195 L 504.36133 810.70703 L 411.43945 811.16016 L 411.43945 802.88867 L 407.25195 802.88867 L 407.25195 821.41797 L 411.22461 821.41797 L 411.22461 814.38281 L 504.37305 814.38281 L 504.53516 866.83789 L 414.25391 867.27734 L 414.25391 859.00781 L 410.06445 859.00781 L 410.06445 877.53516 L 414.03906 877.53516 L 414.03906 870.5 L 504.54688 870.5 L 504.71484 924.81836 L 415.33008 925.25586 L 415.33008 916.98438 L 411.14062 916.98438 L 411.14062 935.51367 L 415.11523 935.51367 L 415.11523 928.47852 L 504.72656 928.47852 L 504.88672 979.96289 L 413.29102 980.41016 L 413.29102 972.14062 L 409.10352 972.14062 L 409.10352 990.66992 L 413.07617 990.66992 L 413.07617 983.63281 L 504.89648 983.63281 L 505.06055 1036.2168 L 413.88477 1036.6621 L 413.88477 1028.3906 L 409.69531 1028.3906 L 409.69531 1046.9199 L 413.66992 1046.9199 L 413.66992 1039.8848 L 505.07227 1039.8848 L 505.24023 1094.3867 L 413.73633 1094.834 L 413.73633 1086.5625 L 409.54688 1086.5625 L 409.54688 1105.0918 L 413.52148 1105.0918 L 413.52148 1098.0547 L 505.25195 1098.0547 L 505.41016 1149.1895 L 414.7207 1149.6309 L 414.7207 1141.3613 L 410.5332 1141.3613 L 410.5332 1159.8906 L 414.50586 1159.8906 L 414.50586 1152.8535 L 505.42188 1152.8535 L 505.59375 1208.3574 L 414.29102 1208.8027 L 414.29102 1200.5312 L 410.10352 1200.5312 L 410.10352 1219.0605 L 414.07617 1219.0605 L 414.07617 1212.0254 L 505.60547 1212.0254 L 505.77148 1265.6211 L 412.60352 1266.0762 L 412.60352 1257.8047 L 408.41406 1257.8047 L 408.41406 1276.334 L 412.38867 1276.334 L 412.38867 1269.2988 L 505.7832 1269.2988 L 505.9375 1319.5898 L 412.57227 1320.0469 L 412.57227 1311.7754 L 408.38477 1311.7754 L 408.38477 1330.3047 L 412.35938 1330.3047 L 412.35938 1323.2695 L 505.94922 1323.2695 L 506.11914 1377.7617 L 414.55859 1378.209 L 414.55859 1369.9395 L 410.36914 1369.9395 L 410.36914 1388.4668 L 414.34375 1388.4668 L 414.34375 1381.4316 L 506.13086 1381.4316 L 506.29297 1434.1641 L 413.72852 1434.6172 L 413.72852 1426.3457 L 409.53906 1426.3457 L 409.53906 1444.875 L 413.51367 1444.875 L 413.51367 1437.8398 L 506.30469 1437.8398 L 506.45312 1485.4883 L 414.82812 1484.8926 L 414.82812 1483.5117 L 410.63867 1483.5117 L 410.63867 1487.9238 L 409.69141 1488.8359 L 407.41406 1494.6074 L 407.56445 1509.9512 L 409.23633 1518.1543 L 414.25 1531.5215 L 422.45117 1545.9531 L 433.23828 1558.4082 L 450.85938 1571.4727 L 478.20117 1579.373 L 489.74609 1581.6504 L 520.2793 1582.1055 L 545.64844 1581.9551 C 545.64844 1581.9551 584.07988 1581.498 584.6875 1581.498 C 585.29513 1581.498 606.25977 1580.7383 606.25977 1580.7383 L 608.53711 1578.0059 L 611.27148 1572.6875 L 610.66406 1565.7012 L 610.51172 1560.3848 L 608.8418 1557.1934 L 606.41016 1553.5488 L 603.52539 1550.8145 L 600.48633 1549.5977 L 597.75195 1548.2305 L 582.56055 1547.4727 L 528.93945 1547.168 L 513.74805 1546.7129 L 512.68945 1495.0059 L 601.94336 1495.0059 L 601.94336 1503.1699 L 606.5625 1503.1699 L 606.5625 1483.1367 L 601.89062 1483.1367 L 601.89062 1490.8711 L 512.68359 1491.3066 L 512.68359 1485.2656 L 511.54102 1485.3125 L 511.42578 1437.8398 L 600.84375 1437.8398 L 600.84375 1446.002 L 605.46289 1446.002 L 605.46289 1425.9688 L 600.79102 1425.9688 L 600.79102 1433.7031 L 511.41602 1434.1406 L 511.28906 1381.4316 L 601.67383 1381.4316 L 601.67383 1389.5957 L 606.29297 1389.5957 L 606.29297 1369.5625 L 601.61914 1369.5625 L 601.61914 1377.2969 L 511.2793 1377.7383 L 511.14844 1323.2695 L 599.68945 1323.2695 L 599.68945 1331.4316 L 604.30664 1331.4316 L 604.30664 1311.3984 L 599.63477 1311.3984 L 599.63477 1319.1328 L 511.13867 1319.5645 L 511.01758 1269.2988 L 599.71875 1269.2988 L 599.71875 1277.4629 L 604.33789 1277.4629 L 604.33789 1257.4297 L 599.66602 1257.4297 L 599.66602 1265.1641 L 511.00781 1265.5957 L 510.87695 1212.0254 L 601.4082 1212.0254 L 601.4082 1220.1895 L 606.02539 1220.1895 L 606.02539 1200.1562 L 601.35352 1200.1562 L 601.35352 1207.8906 L 510.86914 1208.332 L 510.73438 1152.8535 L 601.83789 1152.8535 L 601.83789 1161.0176 L 606.45508 1161.0176 L 606.45508 1140.9844 L 601.7832 1140.9844 L 601.7832 1148.7188 L 510.72461 1149.1621 L 510.60156 1098.0547 L 600.85156 1098.0547 L 600.85156 1106.2188 L 605.4707 1106.2188 L 605.4707 1086.1855 L 600.79883 1086.1855 L 600.79883 1093.9199 L 510.5918 1094.3613 L 510.45898 1039.8848 L 601 1039.8848 L 601 1048.0488 L 605.61914 1048.0488 L 605.61914 1028.0156 L 600.94727 1028.0156 L 600.94727 1035.748 L 510.45117 1036.1895 L 510.32422 983.63281 L 600.4082 983.63281 L 600.4082 991.79688 L 605.02539 991.79688 L 605.02539 971.76367 L 600.35352 971.76367 L 600.35352 979.49805 L 510.31445 979.9375 L 510.18945 928.47852 L 602.44531 928.47852 L 602.44531 936.64062 L 607.06445 936.64062 L 607.06445 916.60742 L 602.39062 916.60742 L 602.39062 924.3418 L 510.17969 924.79297 L 510.04883 870.5 L 601.36914 870.5 L 601.36914 878.66406 L 605.98828 878.66406 L 605.98828 858.63086 L 601.31641 858.63086 L 601.31641 866.36523 L 510.03906 866.81055 L 509.91211 814.38281 L 598.55469 814.38281 L 598.55469 822.54688 L 603.17383 822.54688 L 603.17383 802.51367 L 598.50195 802.51367 L 598.50195 810.24609 L 509.9043 810.67969 L 509.77539 758.00195 L 598.42188 758.00195 L 598.42188 766.16602 L 603.04102 766.16602 L 603.04102 746.13281 L 598.36914 746.13281 L 598.36914 753.86719 L 509.76758 754.29883 L 509.63867 701.1543 L 600.50195 701.1543 L 600.50195 709.31836 L 605.12109 709.31836 L 605.12109 689.28516 L 600.44922 689.28516 L 600.44922 697.01953 L 509.62891 697.46289 L 509.49805 643.46484 L 598.83398 643.46484 L 598.83398 651.62695 L 603.45312 651.62695 L 603.45312 631.5957 L 598.7793 631.5957 L 598.7793 639.32812 L 509.48828 639.76367 L 509.36523 588.64453 L 592.49219 589.10547 L 596.55469 586.17188 L 600.84375 582.56055 L 604.67969 577.59375 L 605.35742 573.53125 L 605.35742 534.70898 L 897.28125 536.58203 L 912.92188 535.62305 L 916.75195 531.79297 L 916.43359 523.8125 L 915.47656 518.06836 L 910.04883 513.2793 L 900.1543 512.00195 L 786.51758 512.00195 L 618.93555 512.32227 L 411.77344 511.68359 z M 1040.5605 642.27539 L 1057.5527 642.38477 L 1040.5605 642.46875 L 1040.5605 642.27539 z M 728.84766 646.58984 L 724.0625 646.66602 L 721.70703 647.88086 L 719.80859 649.32422 L 718.66992 652.13477 L 718.97266 697.25 L 719.42969 699.68164 L 722.4668 701.80859 L 724.59375 703.47852 L 729.30273 704.54297 L 816.34961 704.91016 L 816.46875 753.68555 L 726.15625 754.12695 L 726.15625 745.85547 L 721.9668 745.85547 L 721.9668 764.38477 L 725.94141 764.38477 L 725.94141 757.34961 L 816.47852 757.34961 L 816.60938 810.52344 L 724.07617 810.97461 L 724.07617 802.70312 L 719.88672 802.70312 L 719.88672 821.23242 L 723.86133 821.23242 L 723.86133 814.19727 L 816.61914 814.19727 L 816.74805 866.90234 L 724.20898 867.35547 L 724.20898 859.08398 L 720.01953 859.08398 L 720.01953 877.61328 L 723.99414 877.61328 L 723.99414 870.57812 L 816.75781 870.57812 L 816.88672 923.03516 L 727.02344 923.47266 L 727.02344 915.20117 L 722.83398 915.20117 L 722.83398 933.73047 L 726.80859 933.73047 L 726.80859 926.69531 L 816.89648 926.69531 L 817.03125 981.01562 L 728.09961 981.44922 L 728.09961 973.17969 L 723.91016 973.17969 L 723.91016 991.70703 L 727.88477 991.70703 L 727.88477 984.67188 L 817.03906 984.67188 L 817.16602 1036.1621 L 726.06055 1036.6055 L 726.06055 1028.334 L 721.87109 1028.334 L 721.87109 1046.8633 L 725.8457 1046.8633 L 725.8457 1039.8281 L 817.17578 1039.8281 L 817.30469 1092.4141 L 726.6543 1092.8574 L 726.6543 1084.5859 L 722.46484 1084.5859 L 722.46484 1103.1152 L 726.43945 1103.1152 L 726.43945 1096.0801 L 817.31445 1096.0801 L 817.44922 1150.584 L 726.50586 1151.0273 L 726.50586 1142.7578 L 722.31641 1142.7578 L 722.31641 1161.2852 L 726.29102 1161.2852 L 726.29102 1154.25 L 817.45703 1154.25 L 817.58398 1205.3867 L 727.49023 1205.8262 L 727.49023 1197.5547 L 723.30078 1197.5547 L 723.30078 1216.084 L 727.27539 1216.084 L 727.27539 1209.0488 L 817.59375 1209.0488 L 817.73047 1264.5547 L 727.06055 1264.998 L 727.06055 1256.7266 L 722.87109 1256.7266 L 722.87109 1275.2559 L 726.8457 1275.2559 L 726.8457 1268.2207 L 817.73828 1268.2207 L 817.87109 1321.8203 L 725.37305 1322.2715 L 725.37305 1314 L 721.18359 1314 L 721.18359 1332.5293 L 725.1582 1332.5293 L 725.1582 1325.4941 L 817.88086 1325.4941 L 818.00391 1375.7891 L 725.3418 1376.2402 L 725.3418 1367.9707 L 721.15234 1367.9707 L 721.15234 1386.498 L 725.12695 1386.498 L 725.12695 1379.4629 L 818.01367 1379.4629 L 818.14844 1433.9609 L 727.32617 1434.4043 L 727.32617 1426.1328 L 723.13867 1426.1328 L 723.13867 1444.6621 L 727.11133 1444.6621 L 727.11133 1437.627 L 818.15625 1437.627 L 818.27734 1486.2754 L 725.04492 1485.9668 L 720.96289 1491.5527 L 721.39258 1501.2207 L 721.60742 1510.8867 L 722.68164 1519.2656 L 727.4082 1530.8652 L 733.63867 1543.7559 L 749.10547 1560.9414 L 763.28516 1570.8242 L 778.10742 1577.6992 L 792.93164 1581.1367 L 858.88281 1580.707 L 866.83203 1577.6992 L 884.66211 1568.6758 L 896.9082 1560.082 L 908.29297 1548.6973 L 914.73828 1537.7402 L 919.03516 1528.7188 L 922.6875 1511.1016 L 923.76172 1496.9238 L 922.47266 1489.4043 L 920.10938 1486.6113 L 824.4707 1486.2949 L 824.4043 1437.627 L 914.44336 1437.627 L 914.44336 1445.791 L 919.06055 1445.791 L 919.06055 1425.7578 L 914.38867 1425.7578 L 914.38867 1433.4902 L 824.40039 1433.9297 L 824.32617 1379.4629 L 912.45703 1379.4629 L 912.45703 1387.627 L 917.07617 1387.627 L 917.07617 1367.5938 L 912.4043 1367.5938 L 912.4043 1375.3281 L 824.32031 1375.7578 L 824.25195 1325.4941 L 912.48828 1325.4941 L 912.48828 1333.6562 L 917.10742 1333.6562 L 917.10742 1313.625 L 912.43359 1313.625 L 912.43359 1321.3574 L 824.24805 1321.7891 L 824.17578 1268.2207 L 914.17578 1268.2207 L 914.17578 1276.3828 L 918.79492 1276.3828 L 918.79492 1256.3516 L 914.12305 1256.3516 L 914.12305 1264.084 L 824.16992 1264.5234 L 824.0957 1209.0488 L 914.60547 1209.0488 L 914.60547 1217.2129 L 919.22461 1217.2129 L 919.22461 1197.1797 L 914.55273 1197.1797 L 914.55273 1204.9141 L 824.08984 1205.3555 L 824.02148 1154.25 L 913.62109 1154.25 L 913.62109 1162.4141 L 918.24023 1162.4141 L 918.24023 1142.3809 L 913.56641 1142.3809 L 913.56641 1150.1152 L 824.01562 1150.5527 L 823.94141 1096.0801 L 913.76953 1096.0801 L 913.76953 1104.2422 L 918.38867 1104.2422 L 918.38867 1084.209 L 913.71484 1084.209 L 913.71484 1091.9434 L 823.9375 1092.3828 L 823.86523 1039.8281 L 913.17578 1039.8281 L 913.17578 1047.9922 L 917.79492 1047.9922 L 917.79492 1027.959 L 913.12305 1027.959 L 913.12305 1035.6934 L 823.86133 1036.1289 L 823.79102 984.67188 L 915.21484 984.67188 L 915.21484 992.83594 L 919.83398 992.83594 L 919.83398 972.80273 L 915.16016 972.80273 L 915.16016 980.53711 L 823.78516 980.98242 L 823.71289 926.69531 L 914.13867 926.69531 L 914.13867 934.85938 L 918.75781 934.85938 L 918.75781 914.82617 L 914.08398 914.82617 L 914.08398 922.56055 L 823.70703 923.00195 L 823.63672 870.57812 L 911.32422 870.57812 L 911.32422 878.74023 L 915.94336 878.74023 L 915.94336 858.70703 L 911.27148 858.70703 L 911.27148 866.44141 L 823.63086 866.86914 L 823.56055 814.19727 L 911.19141 814.19727 L 911.19141 822.36133 L 915.81055 822.36133 L 915.81055 802.32812 L 911.13867 802.32812 L 911.13867 810.0625 L 823.55469 810.49023 L 823.48242 757.34961 L 913.27148 757.34961 L 913.27148 765.51172 L 917.89062 765.51172 L 917.89062 745.48047 L 913.2168 745.48047 L 913.2168 753.21289 L 823.47852 753.65234 L 823.41211 704.93945 L 909.61719 705.30273 L 913.56641 704.39062 L 915.69336 702.11133 L 917.36328 699.07422 L 917.06055 651.52734 L 915.99609 649.55273 L 914.62891 648.33789 L 911.74219 647.12109 L 728.84766 646.58984 z M 1351.0137 686.62891 C 1346.0318 694.3748 1348.7138 699.01044 1350.8359 705.17773 L 1353.5293 705.20898 L 1353.5293 711.5625 L 1357.5039 711.5625 L 1357.5039 705.25391 L 1449.123 706.29883 L 1449.1074 757.69531 L 1355.6387 758.15234 L 1355.6387 749.88086 L 1351.4512 749.88086 L 1351.4512 768.41016 L 1355.4238 768.41016 L 1355.4238 761.375 L 1449.1055 761.375 L 1449.0898 814.07617 L 1355.7715 814.53125 L 1355.7715 806.26172 L 1351.584 806.26172 L 1351.584 824.78906 L 1355.5566 824.78906 L 1355.5566 817.75391 L 1449.0879 817.75391 L 1449.0723 870.20898 L 1358.5859 870.65039 L 1358.5859 862.37891 L 1354.3965 862.37891 L 1354.3965 880.9082 L 1358.3711 880.9082 L 1358.3711 873.87305 L 1449.0723 873.87305 L 1449.0547 928.19141 L 1359.6621 928.62695 L 1359.6621 920.35547 L 1355.4727 920.35547 L 1355.4727 938.88477 L 1359.4473 938.88477 L 1359.4473 931.84961 L 1449.0547 931.84961 L 1449.0391 983.33594 L 1357.625 983.7832 L 1357.625 975.51172 L 1353.4355 975.51172 L 1353.4355 994.04102 L 1357.4102 994.04102 L 1357.4102 987.00586 L 1449.0371 987.00586 L 1449.0215 1039.5898 L 1358.2168 1040.0332 L 1358.2168 1031.7637 L 1354.0273 1031.7637 L 1354.0273 1050.291 L 1358.002 1050.291 L 1358.002 1043.2559 L 1449.0195 1043.2559 L 1449.0039 1097.7598 L 1358.0684 1098.2051 L 1358.0684 1089.9336 L 1353.8809 1089.9336 L 1353.8809 1108.4629 L 1357.8535 1108.4629 L 1357.8535 1101.4277 L 1449.002 1101.4277 L 1448.9883 1152.5645 L 1359.0547 1153.0039 L 1359.0547 1144.7324 L 1354.8652 1144.7324 L 1354.8652 1163.2617 L 1358.8398 1163.2617 L 1358.8398 1156.2266 L 1448.9863 1156.2266 L 1448.9688 1211.7324 L 1358.625 1212.1738 L 1358.625 1203.9043 L 1354.4355 1203.9043 L 1354.4355 1222.4316 L 1358.4102 1222.4316 L 1358.4102 1215.3965 L 1448.9688 1215.3965 L 1448.9512 1269 L 1356.9355 1269.4492 L 1356.9355 1261.1777 L 1352.7461 1261.1777 L 1352.7461 1279.707 L 1356.7207 1279.707 L 1356.7207 1272.6699 L 1448.9512 1272.6699 L 1448.9355 1322.9688 L 1356.9062 1323.418 L 1356.9062 1315.1465 L 1352.7168 1315.1465 L 1352.7168 1333.6758 L 1356.6914 1333.6758 L 1356.6914 1326.6406 L 1448.9355 1326.6406 L 1448.918 1381.1426 L 1358.8906 1381.582 L 1358.8906 1373.3105 L 1354.7012 1373.3105 L 1354.7012 1391.8398 L 1358.6758 1391.8398 L 1358.6758 1384.8047 L 1448.918 1384.8047 L 1448.9004 1437.5449 L 1358.0605 1437.9883 L 1358.0605 1429.7168 L 1353.873 1429.7168 L 1353.873 1448.2461 L 1357.8457 1448.2461 L 1357.8457 1441.2109 L 1448.9004 1441.2109 L 1448.8848 1490.3594 L 1352.8086 1490.1328 C 1350.036 1494.4436 1349.6733 1497.7847 1350.2305 1500.9688 L 1350.2305 1518.7715 L 1353.4238 1529.3047 L 1358.2109 1541.4336 L 1368.1074 1555.4785 L 1381.1934 1568.248 L 1396.5156 1577.1855 L 1424.6055 1586.123 L 1455.25 1586.4414 L 1481.4238 1584.207 L 1498.3418 1580.0586 L 1513.6641 1571.4395 L 1528.0273 1560.2676 L 1539.5195 1544.627 L 1548.1367 1524.1973 L 1550.0527 1513.3438 L 1551.5176 1505.6953 C 1552.2358 1503.8617 1552.5601 1502.0528 1552.5625 1500.2402 L 1552.9258 1498.3418 L 1552.4551 1498.3438 C 1552.1448 1495.8072 1551.2284 1493.2474 1549.8398 1490.5957 L 1454.6543 1490.373 L 1454.5762 1441.2109 L 1545.1777 1441.2109 L 1545.1777 1449.375 L 1549.7949 1449.375 L 1549.7949 1429.3418 L 1545.123 1429.3418 L 1545.123 1437.0762 L 1454.5703 1437.5176 L 1454.4883 1384.8047 L 1546.0059 1384.8047 L 1546.0059 1392.9668 L 1550.625 1392.9668 L 1550.625 1372.9336 L 1545.9512 1372.9336 L 1545.9512 1380.668 L 1454.4824 1381.1152 L 1454.3965 1326.6406 L 1544.0215 1326.6406 L 1544.0215 1334.8047 L 1548.6406 1334.8047 L 1548.6406 1314.7715 L 1543.9668 1314.7715 L 1543.9668 1322.5059 L 1454.3906 1322.9434 L 1454.3125 1272.6699 L 1544.0508 1272.6699 L 1544.0508 1280.834 L 1548.6699 1280.834 L 1548.6699 1260.8008 L 1543.998 1260.8008 L 1543.998 1268.5352 L 1454.3066 1268.9727 L 1454.2227 1215.3965 L 1545.7402 1215.3965 L 1545.7402 1223.5605 L 1550.3594 1223.5605 L 1550.3594 1203.5273 L 1545.6855 1203.5273 L 1545.6855 1211.2617 L 1454.2168 1211.707 L 1454.1309 1156.2266 L 1546.1699 1156.2266 L 1546.1699 1164.3887 L 1550.7871 1164.3887 L 1550.7871 1144.3574 L 1546.1152 1144.3574 L 1546.1152 1152.0898 L 1454.125 1152.5391 L 1454.0449 1101.4277 L 1545.1836 1101.4277 L 1545.1836 1109.5898 L 1549.8027 1109.5898 L 1549.8027 1089.5586 L 1545.1309 1089.5586 L 1545.1309 1097.291 L 1454.0391 1097.7363 L 1453.9531 1043.2559 L 1545.332 1043.2559 L 1545.332 1051.4199 L 1549.9512 1051.4199 L 1549.9512 1031.3867 L 1545.2793 1031.3867 L 1545.2793 1039.1211 L 1453.9473 1039.5664 L 1453.8652 987.00586 L 1544.7402 987.00586 L 1544.7402 995.16797 L 1549.3594 995.16797 L 1549.3594 975.13672 L 1544.6855 975.13672 L 1544.6855 982.86914 L 1453.8594 983.3125 L 1453.7773 931.84961 L 1546.7773 931.84961 L 1546.7773 940.01367 L 1551.3965 940.01367 L 1551.3965 919.98047 L 1546.7246 919.98047 L 1546.7246 927.71484 L 1453.7715 928.16797 L 1453.6875 873.87305 L 1545.7012 873.87305 L 1545.7012 882.03516 L 1550.3203 882.03516 L 1550.3203 862.00391 L 1545.6484 862.00391 L 1545.6484 869.73633 L 1453.6816 870.18555 L 1453.5996 817.75391 L 1542.8887 817.75391 L 1542.8887 825.91797 L 1547.5059 825.91797 L 1547.5059 805.88477 L 1542.834 805.88477 L 1542.834 813.61914 L 1453.5938 814.05469 L 1453.5117 761.375 L 1542.7539 761.375 L 1542.7539 769.53711 L 1547.373 769.53711 L 1547.373 749.50586 L 1542.7012 749.50586 L 1542.7012 757.23828 L 1453.5059 757.67383 L 1453.4238 706.34766 L 1544.834 707.39062 L 1544.834 712.68945 L 1549.4531 712.68945 L 1549.4531 702.8125 C 1551.7525 697.55932 1550.8867 692.52059 1548.0449 687.09375 L 1351.0137 686.62891 z M 1037.8203 1570.2715 L 1036.2402 1571.627 L 1034.207 1573.4316 L 1033.3047 1576.1406 L 1033.7559 1579.0742 L 1035.7871 1580.8809 L 1038.9473 1582.2344 L 1229.2227 1584.4922 L 1232.3828 1582.2344 L 1233.2852 1579.9766 L 1233.9629 1577.043 L 1231.9316 1573.4316 L 1229.6738 1571.627 L 1037.8203 1570.2715 z M 1593.8398 1653.3242 L 1593.9434 1653.3242 L 1593.8398 1670.9102 L 1593.8398 1653.3242 z " /></g><rect
       style="display:inline;fill:#000000;fill-opacity:1;stroke:none;stroke-width:8;stroke-dasharray:none;stroke-opacity:1"
       id="p-p-1-178"
       width="78.197487"
       height="39.958057"
       x="-283.01498"
       y="1576.1256"
       inkscape:label="P178"
       transform="rotate(-90)"><title
         id="title194-6">P178</title></rect><rect
       style="display:inline;fill:#000000;fill-opacity:1;stroke:none;stroke-width:8;stroke-dasharray:none;stroke-opacity:1"
       id="p-p-1-177"
       width="78.197487"
       height="39.958057"
       x="-286.93445"
       y="1495.5142"
       inkscape:label="P177"
       transform="rotate(-90)"><title
         id="title194-0">P177</title></rect><rect
       style="display:inline;fill:#000000;fill-opacity:1;stroke:none;stroke-width:8;stroke-dasharray:none;stroke-opacity:1"
       id="p-p-1-176"
       width="78.197487"
       height="39.958057"
       x="-288.48895"
       y="1415.8744"
       inkscape:label="P176"
       transform="rotate(-90)"><title
         id="title194-55">P176</title></rect><rect
       style="display:inline;fill:#000000;fill-opacity:1;stroke:none;stroke-width:8;stroke-dasharray:none;stroke-opacity:1"
       id="p-p-1-175"
       width="78.197487"
       height="39.958057"
       x="-285.19748"
       y="1358.7369"
       inkscape:label="P175"
       transform="rotate(-90)"><title
         id="title194-7">P175</title></rect><rect
       style="display:inline;fill:#000000;fill-opacity:1;stroke:none;stroke-width:8;stroke-dasharray:none;stroke-opacity:1"
       id="p-p-1-174"
       width="78.197487"
       height="39.958057"
       x="-285.10031"
       y="1274.2915"
       inkscape:label="P174"
       transform="rotate(-90)"><title
         id="title194-08">P174</title></rect><rect
       style="display:inline;fill:#000000;fill-opacity:1;stroke:none;stroke-width:8;stroke-dasharray:none;stroke-opacity:1"
       id="p-p-1-173"
       width="78.197487"
       height="39.958057"
       x="-287.19748"
       y="1218"
       inkscape:label="P173"
       transform="rotate(-90)"><title
         id="title194-01">P173</title></rect><rect
       style="display:inline;fill:#000000;fill-opacity:1;stroke:none;stroke-width:8;stroke-dasharray:none;stroke-opacity:1"
       id="p-p-1-172"
       width="78.197487"
       height="39.958057"
       x="-283.80887"
       y="1159.9313"
       inkscape:label="P172"
       transform="rotate(-90)"><title
         id="title194-56">P172</title></rect><rect
       style="display:inline;fill:#000000;fill-opacity:1;stroke:none;stroke-width:8;stroke-dasharray:none;stroke-opacity:1"
       id="p-p-1-171"
       width="78.197487"
       height="39.958057"
       x="-287.80887"
       y="1090.0284"
       inkscape:label="P171"
       transform="rotate(-90)"><title
         id="title194-57">P171</title></rect><rect
       style="display:inline;fill:#000000;fill-opacity:1;stroke:none;stroke-width:8;stroke-dasharray:none;stroke-opacity:1"
       id="p-p-1-170"
       width="78.197487"
       height="39.958057"
       x="-285.61453"
       y="1035.9028"
       inkscape:label="P170"
       transform="rotate(-90)"><title
         id="title194-62">P170</title></rect><rect
       style="display:inline;fill:#000000;fill-opacity:1;stroke:none;stroke-width:8;stroke-dasharray:none;stroke-opacity:1"
       id="p-p-1-169"
       width="78.197487"
       height="39.958057"
       x="-285.07187"
       y="968.12555"
       inkscape:label="P169"
       transform="rotate(-90)"><title
         id="title194-09">P169</title></rect><rect
       style="display:inline;fill:#000000;fill-opacity:1;stroke:none;stroke-width:8;stroke-dasharray:none;stroke-opacity:1"
       id="p-p-1-168"
       width="78.197487"
       height="39.958057"
       x="-289.44867"
       y="913.61133"
       inkscape:label="P168"
       transform="rotate(-90)"><title
         id="title194-05">P168</title></rect><rect
       style="display:inline;fill:#000000;fill-opacity:1;stroke:none;stroke-width:8;stroke-dasharray:none;stroke-opacity:1"
       id="p-p-1-167"
       width="78.197487"
       height="39.958057"
       x="-288.90601"
       y="860.19427"
       inkscape:label="P167"
       transform="rotate(-90)"><title
         id="title194-33">P167</title></rect><rect
       style="display:inline;fill:#000000;fill-opacity:1;stroke:none;stroke-width:8;stroke-dasharray:none;stroke-opacity:1"
       id="p-p-1-166"
       width="78.197487"
       height="39.958057"
       x="-286.22592"
       y="786.47388"
       inkscape:label="P166"
       transform="rotate(-90)"><title
         id="title194-10">P166</title></rect><rect
       style="display:inline;fill:#000000;fill-opacity:1;stroke:none;stroke-width:8;stroke-dasharray:none;stroke-opacity:1"
       id="p-p-1-165"
       width="78.197487"
       height="39.958057"
       x="-285.80887"
       y="731.95966"
       inkscape:label="P165"
       transform="rotate(-90)"><title
         id="title194-27">P165</title></rect><rect
       style="display:inline;fill:#000000;fill-opacity:1;stroke:none;stroke-width:8;stroke-dasharray:none;stroke-opacity:1"
       id="p-p-1-164"
       width="78.197487"
       height="39.958057"
       x="-286.03162"
       y="658.63977"
       inkscape:label="P164"
       transform="rotate(-90)"><title
         id="title194-46">P164</title></rect><rect
       style="display:inline;fill:#000000;fill-opacity:1;stroke:none;stroke-width:8;stroke-dasharray:none;stroke-opacity:1"
       id="p-p-1-163"
       width="78.197487"
       height="39.958057"
       x="-287.29465"
       y="593.8056"
       inkscape:label="P163"
       transform="rotate(-90)"><title
         id="title194-9">P163</title></rect><rect
       style="display:inline;fill:#000000;fill-opacity:1;stroke:none;stroke-width:8;stroke-dasharray:none;stroke-opacity:1"
       id="p-p-1-162"
       width="78.197487"
       height="39.958057"
       x="-285.93445"
       y="538.22272"
       inkscape:label="P162"
       transform="rotate(-90)"><title
         id="title194-94">P162</title></rect><rect
       style="display:inline;fill:#000000;fill-opacity:1;stroke:none;stroke-width:8;stroke-dasharray:none;stroke-opacity:1"
       id="p-p-1-161"
       width="78.197487"
       height="39.958057"
       x="-394.80887"
       y="1165.8057"
       inkscape:label="P161"
       transform="rotate(-90)"><title
         id="title194-2">P161</title></rect><rect
       style="display:inline;fill:#000000;fill-opacity:1;stroke:none;stroke-width:8;stroke-dasharray:none;stroke-opacity:1"
       id="p-p-1-160"
       width="78.197487"
       height="39.958057"
       x="-391.68326"
       y="1234.1943"
       inkscape:label="P160"
       transform="rotate(-90)"><title
         id="title194-5">P160</title></rect><rect
       style="display:inline;fill:#000000;fill-opacity:1;stroke:none;stroke-width:8;stroke-dasharray:none;stroke-opacity:1"
       id="p-p-1-159"
       width="78.197487"
       height="39.958057"
       x="-390.10031"
       y="1289.5142"
       inkscape:label="P159"
       transform="rotate(-90)"><title
         id="title194-3">P159</title></rect><rect
       style="display:inline;fill:#000000;fill-opacity:1;stroke:none;stroke-width:8;stroke-dasharray:none;stroke-opacity:1"
       id="p-p-1-157"
       width="78.197487"
       height="39.958057"
       x="-390.29465"
       y="1424.3199"
       inkscape:label="P157"
       transform="rotate(-90)"><title
         id="title194-1">P157</title></rect><rect
       style="display:inline;fill:#000000;fill-opacity:1;stroke:none;stroke-width:8;stroke-dasharray:none;stroke-opacity:1"
       id="p-p-1-158"
       width="78.197487"
       height="39.958057"
       x="-391.58609"
       y="1367.9147"
       inkscape:label="P158"
       transform="rotate(-90)"><title
         id="title194-43">P158</title></rect><rect
       style="display:inline;fill:#000000;fill-opacity:1;stroke:none;stroke-width:8;stroke-dasharray:none;stroke-opacity:1"
       id="p-p-1-155"
       width="78.197487"
       height="39.958057"
       x="-389.81686"
       y="1560.7797"
       inkscape:label="P155"
       transform="rotate(-90)"><title
         id="title194">P155</title></rect><rect
       style="display:inline;fill:#000000;fill-opacity:1;stroke:none;stroke-width:8;stroke-dasharray:none;stroke-opacity:1"
       id="p-p-1-156"
       width="78.197487"
       height="39.958057"
       x="-390.04343"
       y="1481.2583"
       inkscape:label="P156"
       transform="rotate(-90)"><title
         id="title194-4">P156</title></rect><rect
       style="display:inline;fill:#000000;fill-opacity:1;stroke:none;stroke-width:8;stroke-dasharray:none;stroke-opacity:1"
       id="p-p-1-154"
       width="78.197487"
       height="39.958057"
       x="1899.6235"
       y="354.28784"
       inkscape:label="P154"><title
         id="title193">P154</title></rect><rect
       style="display:inline;fill:#000000;fill-opacity:1;stroke:none;stroke-width:8;stroke-dasharray:none;stroke-opacity:1"
       id="p-p-1-153"
       width="78.197487"
       height="39.958057"
       x="1898.5649"
       y="411.62036"
       inkscape:label="P153"><title
         id="title192">P153</title></rect><rect
       style="display:inline;fill:#000000;fill-opacity:1;stroke:none;stroke-width:8;stroke-dasharray:none;stroke-opacity:1"
       id="p-p-1-152"
       width="78.197487"
       height="39.958057"
       x="1900.0925"
       y="465.06525"
       inkscape:label="P152"><title
         id="title191">P152</title></rect><rect
       style="display:inline;fill:#000000;fill-opacity:1;stroke:none;stroke-width:8;stroke-dasharray:none;stroke-opacity:1"
       id="p-p-1-151"
       width="78.197487"
       height="39.958057"
       x="1672.9558"
       y="596.67114"
       inkscape:label="P151"><title
         id="title190">P151</title></rect><rect
       style="display:inline;fill:#000000;fill-opacity:1;stroke:none;stroke-width:8;stroke-dasharray:none;stroke-opacity:1"
       id="p-p-1-150"
       width="78.197487"
       height="39.958057"
       x="1675.7906"
       y="653.28394"
       inkscape:label="P150"><title
         id="title189">P150</title></rect><rect
       style="display:inline;fill:#000000;fill-opacity:1;stroke:none;stroke-width:8;stroke-dasharray:none;stroke-opacity:1"
       id="p-p-1-149"
       width="78.197487"
       height="39.958057"
       x="1677.9755"
       y="713.91345"
       inkscape:label="P149"><title
         id="title188">P149</title></rect><rect
       style="display:inline;fill:#000000;fill-opacity:1;stroke:none;stroke-width:8;stroke-dasharray:none;stroke-opacity:1"
       id="p-p-1-148"
       width="78.197487"
       height="39.958057"
       x="1676.9696"
       y="767.86237"
       inkscape:label="P148"><title
         id="title187">P148</title></rect><rect
       style="display:inline;fill:#000000;fill-opacity:1;stroke:none;stroke-width:8;stroke-dasharray:none;stroke-opacity:1"
       id="p-p-1-147"
       width="78.197487"
       height="39.958057"
       x="1679.6423"
       y="825.0658"
       inkscape:label="P147"><title
         id="title186">P147</title></rect><rect
       style="display:inline;fill:#000000;fill-opacity:1;stroke:none;stroke-width:8;stroke-dasharray:none;stroke-opacity:1"
       id="p-p-1-146"
       width="78.197487"
       height="39.958057"
       x="1680.0796"
       y="880.21405"
       inkscape:label="P146"><title
         id="title185">P146</title></rect><rect
       style="display:inline;fill:#000000;fill-opacity:1;stroke:none;stroke-width:8;stroke-dasharray:none;stroke-opacity:1"
       id="p-p-1-145"
       width="78.197487"
       height="39.958057"
       x="1679.9237"
       y="936.64374"
       inkscape:label="P145"><title
         id="title184">P145</title></rect><rect
       style="display:inline;fill:#000000;fill-opacity:1;stroke:none;stroke-width:8;stroke-dasharray:none;stroke-opacity:1"
       id="p-p-1-144"
       width="78.197487"
       height="39.958057"
       x="1681.3534"
       y="993.19128"
       inkscape:label="P144"><title
         id="title183">P144</title></rect><rect
       style="display:inline;fill:#000000;fill-opacity:1;stroke:none;stroke-width:8;stroke-dasharray:none;stroke-opacity:1"
       id="p-p-1-143"
       width="78.197487"
       height="39.958057"
       x="1680.2128"
       y="1049.4651"
       inkscape:label="P143"><title
         id="title182">P143</title></rect><rect
       style="display:inline;fill:#000000;fill-opacity:1;stroke:none;stroke-width:8;stroke-dasharray:none;stroke-opacity:1"
       id="p-p-1-142"
       width="78.197487"
       height="39.958057"
       x="1680.4941"
       y="1107.3547"
       inkscape:label="P142"><title
         id="title181">P142</title></rect><rect
       style="display:inline;fill:#000000;fill-opacity:1;stroke:none;stroke-width:8;stroke-dasharray:none;stroke-opacity:1"
       id="p-p-1-141"
       width="78.197487"
       height="39.958057"
       x="1680.2355"
       y="1163.5031"
       inkscape:label="P141"><title
         id="title180">P141</title></rect><rect
       style="display:inline;fill:#000000;fill-opacity:1;stroke:none;stroke-width:8;stroke-dasharray:none;stroke-opacity:1"
       id="p-p-1-140"
       width="78.197487"
       height="39.958057"
       x="1678.6423"
       y="1220.0507"
       inkscape:label="P140"><title
         id="title179">P140</title></rect><rect
       style="display:inline;fill:#000000;fill-opacity:1;stroke:none;stroke-width:8;stroke-dasharray:none;stroke-opacity:1"
       id="p-p-1-139"
       width="78.197487"
       height="39.958057"
       x="1679.5245"
       y="1277.4802"
       inkscape:label="P139"><title
         id="title178">P139</title></rect><rect
       style="display:inline;fill:#000000;fill-opacity:1;stroke:none;stroke-width:8;stroke-dasharray:none;stroke-opacity:1"
       id="p-p-1-138"
       width="78.197487"
       height="39.958057"
       x="1680.2355"
       y="1531.4449"
       inkscape:label="P138"><title
         id="title177">P138</title></rect><rect
       style="display:inline;fill:#000000;fill-opacity:1;stroke:none;stroke-width:8;stroke-dasharray:none;stroke-opacity:1"
       id="p-p-1-137"
       width="78.197487"
       height="39.958057"
       x="1682.5839"
       y="1590.5664"
       inkscape:label="P137"><title
         id="title176">P137</title></rect><rect
       style="display:inline;fill:#000000;fill-opacity:1;stroke:none;stroke-width:8;stroke-dasharray:none;stroke-opacity:1"
       id="p-p-1-136"
       width="78.197487"
       height="39.958057"
       x="1459.5432"
       y="1445.7942"
       inkscape:label="P136"><title
         id="title175">P136</title></rect><rect
       style="display:inline;fill:#000000;fill-opacity:1;stroke:none;stroke-width:8;stroke-dasharray:none;stroke-opacity:1"
       id="p-p-1-135"
       width="78.197487"
       height="39.958057"
       x="1461.6958"
       y="1391.9963"
       inkscape:label="P135"><title
         id="title174">P135</title></rect><rect
       style="display:inline;fill:#000000;fill-opacity:1;stroke:none;stroke-width:8;stroke-dasharray:none;stroke-opacity:1"
       id="p-p-1-134"
       width="78.197487"
       height="39.958057"
       x="1460.9849"
       y="1334.8517"
       inkscape:label="P134"><title
         id="title173">P134</title></rect><rect
       style="display:inline;fill:#000000;fill-opacity:1;stroke:none;stroke-width:8;stroke-dasharray:none;stroke-opacity:1"
       id="p-p-1-133"
       width="78.197487"
       height="39.958057"
       x="1460.1027"
       y="1277.4221"
       inkscape:label="P133"><title
         id="title172">P133</title></rect><rect
       style="display:inline;fill:#000000;fill-opacity:1;stroke:none;stroke-width:8;stroke-dasharray:none;stroke-opacity:1"
       id="p-p-1-132"
       width="78.197487"
       height="39.958057"
       x="1461.6958"
       y="1220.8745"
       inkscape:label="P132"><title
         id="title171">P132</title></rect><rect
       style="display:inline;fill:#000000;fill-opacity:1;stroke:none;stroke-width:8;stroke-dasharray:none;stroke-opacity:1"
       id="p-p-1-131"
       width="78.197487"
       height="39.958057"
       x="1461.9545"
       y="1164.7262"
       inkscape:label="P131"><title
         id="title170">P131</title></rect><rect
       style="display:inline;fill:#000000;fill-opacity:1;stroke:none;stroke-width:8;stroke-dasharray:none;stroke-opacity:1"
       id="p-p-1-130"
       width="78.197487"
       height="39.958057"
       x="1461.6731"
       y="1106.8365"
       inkscape:label="P130"><title
         id="title169">P130</title></rect><rect
       style="display:inline;fill:#000000;fill-opacity:1;stroke:none;stroke-width:8;stroke-dasharray:none;stroke-opacity:1"
       id="p-p-1-129"
       width="78.197487"
       height="39.958057"
       x="1462.8137"
       y="1050.5627"
       inkscape:label="P129"><title
         id="title168">P129</title></rect><rect
       style="display:inline;fill:#000000;fill-opacity:1;stroke:none;stroke-width:8;stroke-dasharray:none;stroke-opacity:1"
       id="p-p-1-128"
       width="78.197487"
       height="39.958057"
       x="1461.384"
       y="994.0152"
       inkscape:label="P128"><title
         id="title167">P128</title></rect><rect
       style="display:inline;fill:#000000;fill-opacity:1;stroke:none;stroke-width:8;stroke-dasharray:none;stroke-opacity:1"
       id="p-p-1-127"
       width="78.197487"
       height="39.958057"
       x="1461.5399"
       y="937.58551"
       inkscape:label="P127"><title
         id="title166">P127</title></rect><rect
       style="display:inline;fill:#000000;fill-opacity:1;stroke:none;stroke-width:8;stroke-dasharray:none;stroke-opacity:1"
       id="p-p-1-126"
       width="78.197487"
       height="39.958057"
       x="1461.1027"
       y="882.43726"
       inkscape:label="P126"><title
         id="title165">P126</title></rect><rect
       style="display:inline;fill:#000000;fill-opacity:1;stroke:none;stroke-width:8;stroke-dasharray:none;stroke-opacity:1"
       id="p-p-1-125"
       width="78.197487"
       height="39.958057"
       x="1461.5627"
       y="823.85931"
       inkscape:label="P125"><title
         id="title164">P125</title></rect><rect
       style="display:inline;fill:#000000;fill-opacity:1;stroke:none;stroke-width:8;stroke-dasharray:none;stroke-opacity:1"
       id="p-p-1-124"
       width="78.197487"
       height="39.958057"
       x="1460.7338"
       y="767.85175"
       inkscape:label="P124"><title
         id="title163">P124</title></rect><rect
       style="display:inline;fill:#000000;fill-opacity:1;stroke:none;stroke-width:8;stroke-dasharray:none;stroke-opacity:1"
       id="p-p-1-123"
       width="78.197487"
       height="39.958057"
       x="1460.2662"
       y="712.56274"
       inkscape:label="P123"><title
         id="title162">P123</title></rect><rect
       style="display:inline;fill:#000000;fill-opacity:1;stroke:none;stroke-width:8;stroke-dasharray:none;stroke-opacity:1"
       id="p-p-1-122"
       width="78.197487"
       height="39.958057"
       x="1365.6543"
       y="713.9201"
       inkscape:label="P122"><title
         id="title161">P122</title></rect><rect
       style="display:inline;fill:#000000;fill-opacity:1;stroke:none;stroke-width:8;stroke-dasharray:none;stroke-opacity:1"
       id="p-p-1-121"
       width="78.197487"
       height="39.958057"
       x="1366.1218"
       y="769.20911"
       inkscape:label="P121"><title
         id="title160">P121</title></rect><rect
       style="display:inline;fill:#000000;fill-opacity:1;stroke:none;stroke-width:8;stroke-dasharray:none;stroke-opacity:1"
       id="p-p-1-120"
       width="78.197487"
       height="39.958057"
       x="1366.9508"
       y="825.21667"
       inkscape:label="P120"><title
         id="title159">P120</title></rect><rect
       style="display:inline;fill:#000000;fill-opacity:1;stroke:none;stroke-width:8;stroke-dasharray:none;stroke-opacity:1"
       id="p-p-1-119"
       width="78.197487"
       height="39.958057"
       x="1366.4907"
       y="883.79462"
       inkscape:label="P119"><title
         id="title158">P119</title></rect><rect
       style="display:inline;fill:#000000;fill-opacity:1;stroke:none;stroke-width:8;stroke-dasharray:none;stroke-opacity:1"
       id="p-p-1-118"
       width="78.197487"
       height="39.958057"
       x="1366.928"
       y="938.94287"
       inkscape:label="P118"><title
         id="title157">P118</title></rect><rect
       style="display:inline;fill:#000000;fill-opacity:1;stroke:none;stroke-width:8;stroke-dasharray:none;stroke-opacity:1"
       id="p-p-1-117"
       width="78.197487"
       height="39.958057"
       x="1366.7721"
       y="995.37256"
       inkscape:label="P117"><title
         id="title156">P117</title></rect><rect
       style="display:inline;fill:#000000;fill-opacity:1;stroke:none;stroke-width:8;stroke-dasharray:none;stroke-opacity:1"
       id="p-p-1-116"
       width="78.197487"
       height="39.958057"
       x="1368.2018"
       y="1051.92"
       inkscape:label="P116"><title
         id="title155">P116</title></rect><rect
       style="display:inline;fill:#000000;fill-opacity:1;stroke:none;stroke-width:8;stroke-dasharray:none;stroke-opacity:1"
       id="p-p-1-115"
       width="78.197487"
       height="39.958057"
       x="1367.0612"
       y="1108.1938"
       inkscape:label="P115"><title
         id="title154">P115</title></rect><rect
       style="display:inline;fill:#000000;fill-opacity:1;stroke:none;stroke-width:8;stroke-dasharray:none;stroke-opacity:1"
       id="p-p-1-114"
       width="78.197487"
       height="39.958057"
       x="1367.3425"
       y="1166.0835"
       inkscape:label="P114"><title
         id="title153">P114</title></rect><rect
       style="display:inline;fill:#000000;fill-opacity:1;stroke:none;stroke-width:8;stroke-dasharray:none;stroke-opacity:1"
       id="p-p-1-113"
       width="78.197487"
       height="39.958057"
       x="1367.0839"
       y="1222.2318"
       inkscape:label="P113"><title
         id="title152">P113</title></rect><rect
       style="display:inline;fill:#000000;fill-opacity:1;stroke:none;stroke-width:8;stroke-dasharray:none;stroke-opacity:1"
       id="p-p-1-112"
       width="78.197487"
       height="39.958057"
       x="1365.4907"
       y="1278.7794"
       inkscape:label="P112"><title
         id="title151">P112</title></rect><rect
       style="display:inline;fill:#000000;fill-opacity:1;stroke:none;stroke-width:8;stroke-dasharray:none;stroke-opacity:1"
       id="p-p-1-111"
       width="78.197487"
       height="39.958057"
       x="1366.3729"
       y="1336.209"
       inkscape:label="P111"><title
         id="title150">P111</title></rect><rect
       style="display:inline;fill:#000000;fill-opacity:1;stroke:none;stroke-width:8;stroke-dasharray:none;stroke-opacity:1"
       id="p-p-1-110"
       width="78.197487"
       height="39.958057"
       x="1367.0839"
       y="1393.3536"
       inkscape:label="P110"><title
         id="title149">P110</title></rect><rect
       style="display:inline;fill:#000000;fill-opacity:1;stroke:none;stroke-width:8;stroke-dasharray:none;stroke-opacity:1"
       id="p-p-1-109"
       width="78.197487"
       height="39.958057"
       x="1364.9313"
       y="1447.1515"
       inkscape:label="P109"><title
         id="title148">P109</title></rect><rect
       style="display:inline;fill:#000000;fill-opacity:1;stroke:none;stroke-width:8;stroke-dasharray:none;stroke-opacity:1"
       id="p-p-1-108"
       width="78.197487"
       height="39.958057"
       x="1144.0264"
       y="1393.2662"
       inkscape:label="P108"><title
         id="title147">P108</title></rect><rect
       style="display:inline;fill:#000000;fill-opacity:1;stroke:none;stroke-width:8;stroke-dasharray:none;stroke-opacity:1"
       id="p-p-1-107"
       width="78.197487"
       height="39.958057"
       x="1143.1119"
       y="1332.3754"
       inkscape:label="P107"><title
         id="title146">P107</title></rect><rect
       style="display:inline;fill:#000000;fill-opacity:1;stroke:none;stroke-width:8;stroke-dasharray:none;stroke-opacity:1"
       id="p-p-1-106"
       width="78.197487"
       height="39.958057"
       x="1145.2645"
       y="1278.5775"
       inkscape:label="P106"><title
         id="title145">P106</title></rect><rect
       style="display:inline;fill:#000000;fill-opacity:1;stroke:none;stroke-width:8;stroke-dasharray:none;stroke-opacity:1"
       id="p-p-1-105"
       width="78.197487"
       height="39.958057"
       x="1144.5536"
       y="1221.4329"
       inkscape:label="P105"><title
         id="title144">P105</title></rect><rect
       style="display:inline;fill:#000000;fill-opacity:1;stroke:none;stroke-width:8;stroke-dasharray:none;stroke-opacity:1"
       id="p-p-1-104"
       width="78.197487"
       height="39.958057"
       x="1143.6714"
       y="1164.0033"
       inkscape:label="P104"><title
         id="title143">P104</title></rect><rect
       style="display:inline;fill:#000000;fill-opacity:1;stroke:none;stroke-width:8;stroke-dasharray:none;stroke-opacity:1"
       id="p-p-1-103"
       width="78.197487"
       height="39.958057"
       x="1145.2645"
       y="1107.4557"
       inkscape:label="P103"><title
         id="title142">P103</title></rect><rect
       style="display:inline;fill:#000000;fill-opacity:1;stroke:none;stroke-width:8;stroke-dasharray:none;stroke-opacity:1"
       id="p-p-1-102"
       width="78.197487"
       height="39.958057"
       x="1145.5232"
       y="1051.3074"
       inkscape:label="P102"><title
         id="title141">P102</title></rect><rect
       style="display:inline;fill:#000000;fill-opacity:1;stroke:none;stroke-width:8;stroke-dasharray:none;stroke-opacity:1"
       id="p-p-1-101"
       width="78.197487"
       height="39.958057"
       x="1145.2418"
       y="993.41772"
       inkscape:label="P101"><title
         id="title140">P101</title></rect><rect
       style="display:inline;fill:#000000;fill-opacity:1;stroke:none;stroke-width:8;stroke-dasharray:none;stroke-opacity:1"
       id="p-p-1-100"
       width="78.197487"
       height="39.958057"
       x="1146.3824"
       y="937.14392"
       inkscape:label="P100"><title
         id="title139">P100</title></rect><rect
       style="display:inline;fill:#000000;fill-opacity:1;stroke:none;stroke-width:8;stroke-dasharray:none;stroke-opacity:1"
       id="p-p-1-99"
       width="78.197487"
       height="39.958057"
       x="1144.9528"
       y="880.59637"
       inkscape:label="P99"><title
         id="title138">P99</title></rect><rect
       style="display:inline;fill:#000000;fill-opacity:1;stroke:none;stroke-width:8;stroke-dasharray:none;stroke-opacity:1"
       id="p-p-1-98"
       width="78.197487"
       height="39.958057"
       x="1145.1086"
       y="824.16669"
       inkscape:label="P98"><title
         id="title137">P98</title></rect><rect
       style="display:inline;fill:#000000;fill-opacity:1;stroke:none;stroke-width:8;stroke-dasharray:none;stroke-opacity:1"
       id="p-p-1-97"
       width="78.197487"
       height="39.958057"
       x="1144.6714"
       y="769.01843"
       inkscape:label="P97"><title
         id="title136">P97</title></rect><rect
       style="display:inline;fill:#000000;fill-opacity:1;stroke:none;stroke-width:8;stroke-dasharray:none;stroke-opacity:1"
       id="p-p-1-96"
       width="78.197487"
       height="39.958057"
       x="1145.1315"
       y="710.44049"
       inkscape:label="P96"><title
         id="title135">P96</title></rect><rect
       style="display:inline;fill:#000000;fill-opacity:1;stroke:none;stroke-width:8;stroke-dasharray:none;stroke-opacity:1"
       id="p-p-1-95"
       width="78.197487"
       height="39.958057"
       x="1144.3025"
       y="654.43292"
       inkscape:label="P95"><title
         id="title134">P95</title></rect><rect
       style="display:inline;fill:#000000;fill-opacity:1;stroke:none;stroke-width:8;stroke-dasharray:none;stroke-opacity:1"
       id="p-p-1-94"
       width="78.197487"
       height="39.958057"
       x="1143.835"
       y="599.14392"
       inkscape:label="P94"><title
         id="title133">P94</title></rect><rect
       style="display:inline;fill:#000000;fill-opacity:1;stroke:none;stroke-width:8;stroke-dasharray:none;stroke-opacity:1"
       id="p-p-1-93"
       width="78.197487"
       height="39.958057"
       x="1047.1584"
       y="656.87451"
       inkscape:label="P93"><title
         id="title132">P93</title></rect><rect
       style="display:inline;fill:#000000;fill-opacity:1;stroke:none;stroke-width:8;stroke-dasharray:none;stroke-opacity:1"
       id="p-p-1-92"
       width="78.197487"
       height="39.958057"
       x="1047.626"
       y="712.16351"
       inkscape:label="P92"><title
         id="title131">P92</title></rect><rect
       style="display:inline;fill:#000000;fill-opacity:1;stroke:none;stroke-width:8;stroke-dasharray:none;stroke-opacity:1"
       id="p-p-1-91"
       width="78.197487"
       height="39.958057"
       x="1048.455"
       y="768.17108"
       inkscape:label="P91"><title
         id="title130">P91</title></rect><rect
       style="display:inline;fill:#000000;fill-opacity:1;stroke:none;stroke-width:8;stroke-dasharray:none;stroke-opacity:1"
       id="p-p-1-90"
       width="78.197487"
       height="39.958057"
       x="1047.9949"
       y="826.74902"
       inkscape:label="P90"><title
         id="title129">P90</title></rect><rect
       style="display:inline;fill:#000000;fill-opacity:1;stroke:none;stroke-width:8;stroke-dasharray:none;stroke-opacity:1"
       id="p-p-1-89"
       width="78.197487"
       height="39.958057"
       x="1048.4321"
       y="881.89728"
       inkscape:label="P89"><title
         id="title128">P89</title></rect><rect
       style="display:inline;fill:#000000;fill-opacity:1;stroke:none;stroke-width:8;stroke-dasharray:none;stroke-opacity:1"
       id="p-p-1-88"
       width="78.197487"
       height="39.958057"
       x="1048.2762"
       y="938.32697"
       inkscape:label="P88"><title
         id="title127">P88</title></rect><rect
       style="display:inline;fill:#000000;fill-opacity:1;stroke:none;stroke-width:8;stroke-dasharray:none;stroke-opacity:1"
       id="p-p-1-87"
       width="78.197487"
       height="39.958057"
       x="1049.7059"
       y="994.87451"
       inkscape:label="P87"><title
         id="title126">P87</title></rect><rect
       style="display:inline;fill:#000000;fill-opacity:1;stroke:none;stroke-width:8;stroke-dasharray:none;stroke-opacity:1"
       id="p-p-1-86"
       width="78.197487"
       height="39.958057"
       x="1048.5653"
       y="1051.1483"
       inkscape:label="P86"><title
         id="title125">P86</title></rect><rect
       style="display:inline;fill:#000000;fill-opacity:1;stroke:none;stroke-width:8;stroke-dasharray:none;stroke-opacity:1"
       id="p-p-1-85"
       width="78.197487"
       height="39.958057"
       x="1048.8467"
       y="1109.038"
       inkscape:label="P85"><title
         id="title124">P85</title></rect><rect
       style="display:inline;fill:#000000;fill-opacity:1;stroke:none;stroke-width:8;stroke-dasharray:none;stroke-opacity:1"
       id="p-p-1-84"
       width="78.197487"
       height="39.958057"
       x="1048.588"
       y="1165.1863"
       inkscape:label="P84"><title
         id="title123">P84</title></rect><rect
       style="display:inline;fill:#000000;fill-opacity:1;stroke:none;stroke-width:8;stroke-dasharray:none;stroke-opacity:1"
       id="p-p-1-83"
       width="78.197487"
       height="39.958057"
       x="1046.9949"
       y="1221.7339"
       inkscape:label="P83"><title
         id="title122">P83</title></rect><rect
       style="display:inline;fill:#000000;fill-opacity:1;stroke:none;stroke-width:8;stroke-dasharray:none;stroke-opacity:1"
       id="p-p-1-82"
       width="78.197487"
       height="39.958057"
       x="1047.8771"
       y="1279.1635"
       inkscape:label="P82"><title
         id="title121">P82</title></rect><rect
       style="display:inline;fill:#000000;fill-opacity:1;stroke:none;stroke-width:8;stroke-dasharray:none;stroke-opacity:1"
       id="p-p-1-81"
       width="78.197487"
       height="39.958057"
       x="1048.588"
       y="1336.3081"
       inkscape:label="P81"><title
         id="title120">P81</title></rect><rect
       style="display:inline;fill:#000000;fill-opacity:1;stroke:none;stroke-width:8;stroke-dasharray:none;stroke-opacity:1"
       id="p-p-1-80"
       width="78.197487"
       height="39.958057"
       x="1046.4354"
       y="1390.106"
       inkscape:label="P80"><title
         id="title119">P80</title></rect><rect
       style="display:inline;fill:#000000;fill-opacity:1;stroke:none;stroke-width:8;stroke-dasharray:none;stroke-opacity:1"
       id="p-p-1-79"
       width="78.197487"
       height="39.958057"
       x="827.7171"
       y="1440.6177"
       inkscape:label="P79"><title
         id="title118">P79</title></rect><rect
       style="display:inline;fill:#000000;fill-opacity:1;stroke:none;stroke-width:8;stroke-dasharray:none;stroke-opacity:1"
       id="p-p-1-78"
       width="78.197487"
       height="39.958057"
       x="829.86969"
       y="1386.8198"
       inkscape:label="P78"><title
         id="title117">P78</title></rect><rect
       style="display:inline;fill:#000000;fill-opacity:1;stroke:none;stroke-width:8;stroke-dasharray:none;stroke-opacity:1"
       id="p-p-1-77"
       width="78.197487"
       height="39.958057"
       x="829.15875"
       y="1329.6752"
       inkscape:label="P77"><title
         id="title116">P77</title></rect><rect
       style="display:inline;fill:#000000;fill-opacity:1;stroke:none;stroke-width:8;stroke-dasharray:none;stroke-opacity:1"
       id="p-p-1-76"
       width="78.197487"
       height="39.958057"
       x="828.27655"
       y="1272.2456"
       inkscape:label="P76"><title
         id="title115">P76</title></rect><rect
       style="display:inline;fill:#000000;fill-opacity:1;stroke:none;stroke-width:8;stroke-dasharray:none;stroke-opacity:1"
       id="p-p-1-75"
       width="78.197487"
       height="39.958057"
       x="829.86969"
       y="1215.698"
       inkscape:label="P75"><title
         id="title114">P75</title></rect><rect
       style="display:inline;fill:#000000;fill-opacity:1;stroke:none;stroke-width:8;stroke-dasharray:none;stroke-opacity:1"
       id="p-p-1-74"
       width="78.197487"
       height="39.958057"
       x="830.12836"
       y="1159.5497"
       inkscape:label="P74"><title
         id="title113">P74</title></rect><rect
       style="display:inline;fill:#000000;fill-opacity:1;stroke:none;stroke-width:8;stroke-dasharray:none;stroke-opacity:1"
       id="p-p-1-73"
       width="78.197487"
       height="39.958057"
       x="829.84698"
       y="1101.66"
       inkscape:label="P73"><title
         id="title112">P73</title></rect><rect
       style="display:inline;fill:#000000;fill-opacity:1;stroke:none;stroke-width:8;stroke-dasharray:none;stroke-opacity:1"
       id="p-p-1-72"
       width="78.197487"
       height="39.958057"
       x="830.98761"
       y="1045.3862"
       inkscape:label="P72"><title
         id="title111">P72</title></rect><rect
       style="display:inline;fill:#000000;fill-opacity:1;stroke:none;stroke-width:8;stroke-dasharray:none;stroke-opacity:1"
       id="p-p-1-71"
       width="78.197487"
       height="39.958057"
       x="829.55792"
       y="988.83868"
       inkscape:label="P71"><title
         id="title110">P71</title></rect><rect
       style="display:inline;fill:#000000;fill-opacity:1;stroke:none;stroke-width:8;stroke-dasharray:none;stroke-opacity:1"
       id="p-p-1-70"
       width="78.197487"
       height="39.958057"
       x="829.71381"
       y="932.409"
       inkscape:label="P70"><title
         id="title109">P70</title></rect><rect
       style="display:inline;fill:#000000;fill-opacity:1;stroke:none;stroke-width:8;stroke-dasharray:none;stroke-opacity:1"
       id="p-p-1-69"
       width="78.197487"
       height="39.958057"
       x="829.27655"
       y="877.26074"
       inkscape:label="P69"><title
         id="title108">P69</title></rect><rect
       style="display:inline;fill:#000000;fill-opacity:1;stroke:none;stroke-width:8;stroke-dasharray:none;stroke-opacity:1"
       id="p-p-1-68"
       width="78.197487"
       height="39.958057"
       x="829.73663"
       y="818.6828"
       inkscape:label="P68"><title
         id="title107">P68</title></rect><rect
       style="display:inline;fill:#000000;fill-opacity:1;stroke:none;stroke-width:8;stroke-dasharray:none;stroke-opacity:1"
       id="p-p-1-67"
       width="78.197487"
       height="39.958057"
       x="828.90765"
       y="762.67523"
       inkscape:label="P67"><title
         id="title106">P67</title></rect><rect
       style="display:inline;fill:#000000;fill-opacity:1;stroke:none;stroke-width:8;stroke-dasharray:none;stroke-opacity:1"
       id="p-p-1-66"
       width="78.197487"
       height="39.958057"
       x="828.44012"
       y="707.38623"
       inkscape:label="P66"><title
         id="title105">P66</title></rect><rect
       style="display:inline;fill:#000000;fill-opacity:1;stroke:none;stroke-width:8;stroke-dasharray:none;stroke-opacity:1"
       id="p-p-1-65"
       width="78.197487"
       height="39.958057"
       x="733.12646"
       y="709.71338"
       inkscape:label="P65"><title
         id="title104">P65</title></rect><rect
       style="display:inline;fill:#000000;fill-opacity:1;stroke:none;stroke-width:8;stroke-dasharray:none;stroke-opacity:1"
       id="p-p-1-64"
       width="78.197487"
       height="39.958057"
       x="733.59399"
       y="765.00238"
       inkscape:label="P64"><title
         id="title103">P64</title></rect><rect
       style="display:inline;fill:#000000;fill-opacity:1;stroke:none;stroke-width:8;stroke-dasharray:none;stroke-opacity:1"
       id="p-p-1-63"
       width="78.197487"
       height="39.958057"
       x="734.42297"
       y="821.00995"
       inkscape:label="P63"><title
         id="title102">P63</title></rect><rect
       style="display:inline;fill:#000000;fill-opacity:1;stroke:none;stroke-width:8;stroke-dasharray:none;stroke-opacity:1"
       id="p-p-1-62"
       width="78.197487"
       height="39.958057"
       x="733.96289"
       y="879.58789"
       inkscape:label="P62"><title
         id="title101">P62</title></rect><rect
       style="display:inline;fill:#000000;fill-opacity:1;stroke:none;stroke-width:8;stroke-dasharray:none;stroke-opacity:1"
       id="p-p-1-61"
       width="78.197487"
       height="39.958057"
       x="734.40015"
       y="934.73615"
       inkscape:label="P61"><title
         id="title100">P61</title></rect><rect
       style="display:inline;fill:#000000;fill-opacity:1;stroke:none;stroke-width:8;stroke-dasharray:none;stroke-opacity:1"
       id="p-p-1-60"
       width="78.197487"
       height="39.958057"
       x="734.24426"
       y="991.16583"
       inkscape:label="P60"><title
         id="title99">P60</title></rect><rect
       style="display:inline;fill:#000000;fill-opacity:1;stroke:none;stroke-width:8;stroke-dasharray:none;stroke-opacity:1"
       id="p-p-1-59"
       width="78.197487"
       height="39.958057"
       x="735.67395"
       y="1047.7134"
       inkscape:label="P59"><title
         id="title98">P59</title></rect><rect
       style="display:inline;fill:#000000;fill-opacity:1;stroke:none;stroke-width:8;stroke-dasharray:none;stroke-opacity:1"
       id="p-p-1-58"
       width="78.197487"
       height="39.958057"
       x="734.53333"
       y="1103.9872"
       inkscape:label="P58"><title
         id="title97">P58</title></rect><rect
       style="display:inline;fill:#000000;fill-opacity:1;stroke:none;stroke-width:8;stroke-dasharray:none;stroke-opacity:1"
       id="p-p-1-57"
       width="78.197487"
       height="39.958057"
       x="734.8147"
       y="1161.8768"
       inkscape:label="P57"><title
         id="title96">P57</title></rect><rect
       style="display:inline;fill:#000000;fill-opacity:1;stroke:none;stroke-width:8;stroke-dasharray:none;stroke-opacity:1"
       id="p-p-1-56"
       width="78.197487"
       height="39.958057"
       x="734.55603"
       y="1218.0251"
       inkscape:label="P56"><title
         id="title95">P56</title></rect><rect
       style="display:inline;fill:#000000;fill-opacity:1;stroke:none;stroke-width:8;stroke-dasharray:none;stroke-opacity:1"
       id="p-p-1-55"
       width="78.197487"
       height="39.958057"
       x="732.96289"
       y="1274.5728"
       inkscape:label="P55"><title
         id="title94">P55</title></rect><rect
       style="display:inline;fill:#000000;fill-opacity:1;stroke:none;stroke-width:8;stroke-dasharray:none;stroke-opacity:1"
       id="p-p-1-54"
       width="78.197487"
       height="39.958057"
       x="733.84509"
       y="1332.0023"
       inkscape:label="P54"><title
         id="title93">P54</title></rect><rect
       style="display:inline;fill:#000000;fill-opacity:1;stroke:none;stroke-width:8;stroke-dasharray:none;stroke-opacity:1"
       id="p-p-1-53"
       width="78.197487"
       height="39.958057"
       x="734.55603"
       y="1389.147"
       inkscape:label="P53"><title
         id="title92">P53</title></rect><rect
       style="display:inline;fill:#000000;fill-opacity:1;stroke:none;stroke-width:8;stroke-dasharray:none;stroke-opacity:1"
       id="p-p-1-52"
       width="78.197487"
       height="39.958057"
       x="732.40344"
       y="1442.9448"
       inkscape:label="P52"><title
         id="title91">P52</title></rect><rect
       style="display:inline;fill:#000000;fill-opacity:1;stroke:none;stroke-width:8;stroke-dasharray:none;stroke-opacity:1"
       id="p-p-1-51"
       width="78.197487"
       height="39.958057"
       x="519.33801"
       y="1502.6459"
       inkscape:label="P51"><title
         id="title90">P51</title></rect><rect
       style="display:inline;fill:#000000;fill-opacity:1;stroke:none;stroke-width:8;stroke-dasharray:none;stroke-opacity:1"
       id="p-p-1-50"
       width="78.197487"
       height="39.958057"
       x="513.71216"
       y="1444.3779"
       inkscape:label="P50"><title
         id="title89">P50</title></rect><rect
       style="display:inline;fill:#000000;fill-opacity:1;stroke:none;stroke-width:8;stroke-dasharray:none;stroke-opacity:1"
       id="p-p-1-49"
       width="78.197487"
       height="39.958057"
       x="515.86475"
       y="1390.5801"
       inkscape:label="P49"><title
         id="title88">P49</title></rect><rect
       style="display:inline;fill:#000000;fill-opacity:1;stroke:none;stroke-width:8;stroke-dasharray:none;stroke-opacity:1"
       id="p-p-1-48"
       width="78.197487"
       height="39.958057"
       x="515.15381"
       y="1333.4354"
       inkscape:label="P48"><title
         id="title87">P48</title></rect><rect
       style="display:inline;fill:#000000;fill-opacity:1;stroke:none;stroke-width:8;stroke-dasharray:none;stroke-opacity:1"
       id="p-p-1-47"
       width="78.197487"
       height="39.958057"
       x="516.3493"
       y="1272.1871"
       inkscape:label="P47"><title
         id="title86">P47</title></rect><rect
       style="display:inline;fill:#000000;fill-opacity:1;stroke:none;stroke-width:8;stroke-dasharray:none;stroke-opacity:1"
       id="p-p-1-46"
       width="78.197487"
       height="39.958057"
       x="518.50189"
       y="1218.3893"
       inkscape:label="P46"><title
         id="title85">P46</title></rect><rect
       style="display:inline;fill:#000000;fill-opacity:1;stroke:none;stroke-width:8;stroke-dasharray:none;stroke-opacity:1"
       id="p-p-1-45"
       width="78.197487"
       height="39.958057"
       x="517.79095"
       y="1161.2446"
       inkscape:label="P45"><title
         id="title84">P45</title></rect><rect
       style="display:inline;fill:#000000;fill-opacity:1;stroke:none;stroke-width:8;stroke-dasharray:none;stroke-opacity:1"
       id="p-p-1-44"
       width="78.197487"
       height="39.958057"
       x="516.90875"
       y="1103.8151"
       inkscape:label="P44"><title
         id="title83">P44</title></rect><rect
       style="display:inline;fill:#000000;fill-opacity:1;stroke:none;stroke-width:8;stroke-dasharray:none;stroke-opacity:1"
       id="p-p-1-43"
       width="78.197487"
       height="39.958057"
       x="518.50189"
       y="1047.2675"
       inkscape:label="P43"><title
         id="title82">P43</title></rect><rect
       style="display:inline;fill:#000000;fill-opacity:1;stroke:none;stroke-width:8;stroke-dasharray:none;stroke-opacity:1"
       id="p-p-1-42"
       width="78.197487"
       height="39.958057"
       x="518.76056"
       y="991.1192"
       inkscape:label="P42"><title
         id="title81">P42</title></rect><rect
       style="display:inline;fill:#000000;fill-opacity:1;stroke:none;stroke-width:8;stroke-dasharray:none;stroke-opacity:1"
       id="p-p-1-41"
       width="78.197487"
       height="39.958057"
       x="518.47919"
       y="933.22955"
       inkscape:label="P41"><title
         id="title80">P41</title></rect><rect
       style="display:inline;fill:#000000;fill-opacity:1;stroke:none;stroke-width:8;stroke-dasharray:none;stroke-opacity:1"
       id="p-p-1-40"
       width="78.197487"
       height="39.958057"
       x="519.61981"
       y="876.95575"
       inkscape:label="P40"><title
         id="title79">P40</title></rect><rect
       style="display:inline;fill:#000000;fill-opacity:1;stroke:none;stroke-width:8;stroke-dasharray:none;stroke-opacity:1"
       id="p-p-1-39"
       width="78.197487"
       height="39.958057"
       x="518.19012"
       y="820.4082"
       inkscape:label="P39"><title
         id="title78">P39</title></rect><rect
       style="display:inline;fill:#000000;fill-opacity:1;stroke:none;stroke-width:8;stroke-dasharray:none;stroke-opacity:1"
       id="p-p-1-38"
       width="78.197487"
       height="39.958057"
       x="518.34601"
       y="763.97852"
       inkscape:label="P38"><title
         id="title77">P38</title></rect><rect
       style="display:inline;fill:#000000;fill-opacity:1;stroke:none;stroke-width:8;stroke-dasharray:none;stroke-opacity:1"
       id="p-p-1-37"
       width="78.197487"
       height="39.958057"
       x="517.90875"
       y="708.83026"
       inkscape:label="P37"><title
         id="title76">P37</title></rect><rect
       style="display:inline;fill:#000000;fill-opacity:1;stroke:none;stroke-width:8;stroke-dasharray:none;stroke-opacity:1"
       id="p-p-1-36"
       width="78.197487"
       height="39.958057"
       x="518.36884"
       y="650.25232"
       inkscape:label="P36"><title
         id="title75">P36</title></rect><rect
       style="display:inline;fill:#000000;fill-opacity:1;stroke:none;stroke-width:8;stroke-dasharray:none;stroke-opacity:1"
       id="p-p-1-35"
       width="78.197487"
       height="39.958057"
       x="516.26306"
       y="594.24475"
       inkscape:label="P35"><title
         id="title74">P35</title></rect><rect
       style="display:inline;fill:#000000;fill-opacity:1;stroke:none;stroke-width:8;stroke-dasharray:none;stroke-opacity:1"
       id="p-p-1-34"
       width="78.197487"
       height="39.958057"
       x="416.79135"
       y="592.25928"
       inkscape:label="P34"><title
         id="title73">P34</title></rect><rect
       style="display:inline;fill:#000000;fill-opacity:1;stroke:none;stroke-width:8;stroke-dasharray:none;stroke-opacity:1"
       id="p-p-1-33"
       width="78.197487"
       height="39.958057"
       x="418.74258"
       y="649.51917"
       inkscape:label="P33"><title
         id="title72">P33</title></rect><rect
       style="display:inline;fill:#000000;fill-opacity:1;stroke:none;stroke-width:8;stroke-dasharray:none;stroke-opacity:1"
       id="p-p-1-32"
       width="78.197487"
       height="39.958057"
       x="418.7587"
       y="704.80817"
       inkscape:label="P32"><title
         id="title71">P32</title></rect><rect
       style="display:inline;fill:#000000;fill-opacity:1;stroke:none;stroke-width:8;stroke-dasharray:none;stroke-opacity:1"
       id="p-p-1-31"
       width="78.197487"
       height="39.958057"
       x="420.03909"
       y="763.97571"
       inkscape:label="P31"><title
         id="title70">P31</title></rect><rect
       style="display:inline;fill:#000000;fill-opacity:1;stroke:none;stroke-width:8;stroke-dasharray:none;stroke-opacity:1"
       id="p-p-1-30"
       width="78.197487"
       height="39.958057"
       x="419.57901"
       y="822.55365"
       inkscape:label="P30"><title
         id="title69">P30</title></rect><rect
       style="display:inline;fill:#000000;fill-opacity:1;stroke:none;stroke-width:8;stroke-dasharray:none;stroke-opacity:1"
       id="p-p-1-29"
       width="78.197487"
       height="39.958057"
       x="420.01627"
       y="877.7019"
       inkscape:label="P29"><title
         id="title68">P29</title></rect><rect
       style="display:inline;fill:#000000;fill-opacity:1;stroke:none;stroke-width:8;stroke-dasharray:none;stroke-opacity:1"
       id="p-p-1-28"
       width="78.197487"
       height="39.958057"
       x="419.86038"
       y="934.13159"
       inkscape:label="P28"><title
         id="title67">P28</title></rect><rect
       style="display:inline;fill:#000000;fill-opacity:1;stroke:none;stroke-width:8;stroke-dasharray:none;stroke-opacity:1"
       id="p-p-1-27"
       width="78.197487"
       height="39.958057"
       x="421.29007"
       y="990.67914"
       inkscape:label="P27"><title
         id="title66">P27</title></rect><rect
       style="display:inline;fill:#000000;fill-opacity:1;stroke:none;stroke-width:8;stroke-dasharray:none;stroke-opacity:1"
       id="p-p-1-26"
       width="78.197487"
       height="39.958057"
       x="420.14944"
       y="1046.953"
       inkscape:label="P26"><title
         id="title65">P26</title></rect><rect
       style="display:inline;fill:#000000;fill-opacity:1;stroke:none;stroke-width:8;stroke-dasharray:none;stroke-opacity:1"
       id="p-p-1-25"
       width="78.197487"
       height="39.958057"
       x="420.43082"
       y="1104.8427"
       inkscape:label="P25"><title
         id="title64">P25</title></rect><rect
       style="display:inline;fill:#000000;fill-opacity:1;stroke:none;stroke-width:8;stroke-dasharray:none;stroke-opacity:1"
       id="p-p-1-24"
       width="78.197487"
       height="39.958057"
       x="420.17215"
       y="1160.991"
       inkscape:label="P24"><title
         id="title63">P24</title></rect><rect
       style="display:inline;fill:#000000;fill-opacity:1;stroke:none;stroke-width:8;stroke-dasharray:none;stroke-opacity:1"
       id="p-p-1-23"
       width="78.197487"
       height="39.958057"
       x="418.57901"
       y="1217.5386"
       inkscape:label="P23"><title
         id="title62">P23</title></rect><rect
       style="display:inline;fill:#000000;fill-opacity:1;stroke:none;stroke-width:8;stroke-dasharray:none;stroke-opacity:1"
       id="p-p-1-22"
       width="78.197487"
       height="39.958057"
       x="419.46121"
       y="1274.9681"
       inkscape:label="P22"><title
         id="title61">P22</title></rect><rect
       style="display:inline;fill:#000000;fill-opacity:1;stroke:none;stroke-width:8;stroke-dasharray:none;stroke-opacity:1"
       id="p-p-1-21"
       width="78.197487"
       height="39.958057"
       x="420.17215"
       y="1332.1128"
       inkscape:label="P21"><title
         id="title60">P21</title></rect><rect
       style="display:inline;fill:#000000;fill-opacity:1;stroke:none;stroke-width:8;stroke-dasharray:none;stroke-opacity:1"
       id="p-p-1-20"
       width="78.197487"
       height="39.958057"
       x="418.01956"
       y="1385.9106"
       inkscape:label="P20"><title
         id="title59">P20</title></rect><rect
       style="display:inline;fill:#000000;fill-opacity:1;stroke:none;stroke-width:8;stroke-dasharray:none;stroke-opacity:1"
       id="p-p-1-19"
       width="78.197487"
       height="39.958057"
       x="423.77731"
       y="1442.213"
       inkscape:label="P19"><title
         id="title58">P19</title></rect><rect
       style="display:inline;fill:#000000;fill-opacity:1;stroke:none;stroke-width:9.2435;stroke-dasharray:none;stroke-opacity:1"
       id="p-p-1-18"
       width="83.614555"
       height="49.889343"
       x="1492.6171"
       y="1626.7197"
       inkscape:label="P18"><title
         id="title57">P18</title></rect><rect
       style="display:inline;fill:#000000;fill-opacity:1;stroke:none;stroke-width:8;stroke-dasharray:none;stroke-opacity:1"
       id="p-p-1-17"
       width="84.156212"
       height="48.00246"
       x="1370.9265"
       y="1627.3148"
       inkscape:label="P17"><title
         id="title56">P17</title></rect><rect
       style="display:inline;fill:#000000;fill-opacity:1;stroke:none;stroke-width:8;stroke-dasharray:none;stroke-opacity:1"
       id="p-p-1-16"
       width="84.156212"
       height="48.00246"
       x="1249.5741"
       y="1626.1589"
       inkscape:label="P16"><title
         id="title55">P16</title></rect><rect
       style="display:inline;fill:#000000;fill-opacity:1;stroke:none;stroke-width:8;stroke-dasharray:none;stroke-opacity:1"
       id="p-p-1-15"
       width="84.156212"
       height="48.00246"
       x="1127.9312"
       y="1624.3331"
       inkscape:label="P15"><title
         id="title54">P15</title></rect><rect
       style="display:inline;fill:#000000;fill-opacity:1;stroke:none;stroke-width:8;stroke-dasharray:none;stroke-opacity:1"
       id="p-p-1-14"
       width="84.156212"
       height="48.00246"
       x="1010.0327"
       y="1625.2681"
       inkscape:label="P14"><title
         id="title53">P14</title></rect><rect
       style="display:inline;fill:#000000;fill-opacity:1;stroke:none;stroke-width:8;stroke-dasharray:none;stroke-opacity:1"
       id="p-p-1-13"
       width="84.156212"
       height="48.00246"
       x="888.88733"
       y="1627.5251"
       inkscape:label="P13"><title
         id="title52">P13</title></rect><rect
       style="display:inline;fill:#000000;fill-opacity:1;stroke:none;stroke-width:8;stroke-dasharray:none;stroke-opacity:1"
       id="p-p-1-12"
       width="84.156212"
       height="48.00246"
       x="771.94324"
       y="1626.203"
       inkscape:label="P12"><title
         id="title51">P12</title></rect><rect
       style="display:inline;fill:#000000;fill-opacity:1;stroke:none;stroke-width:8;stroke-dasharray:none;stroke-opacity:1"
       id="p-p-1-11"
       width="84.156212"
       height="48.00246"
       x="642.73938"
       y="1627.1984"
       inkscape:label="P11"><title
         id="title50">P11</title></rect><rect
       style="display:inline;fill:#000000;fill-opacity:1;stroke:none;stroke-width:8;stroke-dasharray:none;stroke-opacity:1"
       id="p-p-1-10"
       width="84.156212"
       height="48.00246"
       x="524.86438"
       y="1627.6213"
       inkscape:label="P10"><title
         id="title49">P10</title></rect><rect
       style="display:inline;fill:#000000;fill-opacity:1;stroke:none;stroke-width:8;stroke-dasharray:none;stroke-opacity:1"
       id="p-p-1-9"
       width="84.156212"
       height="48.00246"
       x="403.63675"
       y="1627.3958"
       inkscape:label="P9"><title
         id="title48">P9</title></rect><rect
       style="display:inline;fill:#000000;fill-opacity:1;stroke:none;stroke-width:8;stroke-dasharray:none;stroke-opacity:1"
       id="p-p-1-8"
       width="58.939728"
       height="91.751541"
       x="265.58813"
       y="996.53137"
       inkscape:label="P8"><title
         id="title47">P8</title></rect><rect
       style="display:inline;fill:#000000;fill-opacity:1;stroke:none;stroke-width:8;stroke-dasharray:none;stroke-opacity:1"
       id="p-p-1-7"
       width="58.939728"
       height="91.751541"
       x="266.82681"
       y="875.49078"
       inkscape:label="P7"><title
         id="title46">P7</title></rect><rect
       style="display:inline;fill:#000000;fill-opacity:1;stroke:none;stroke-width:8;stroke-dasharray:none;stroke-opacity:1"
       id="p-p-1-6"
       width="58.939728"
       height="91.751541"
       x="266.39514"
       y="756.57941"
       inkscape:label="P6"><title
         id="title45">P6</title></rect><rect
       style="display:inline;fill:#000000;fill-opacity:1;stroke:none;stroke-width:8;stroke-dasharray:none;stroke-opacity:1"
       id="p-p-1-5"
       width="58.939728"
       height="91.751541"
       x="263.07901"
       y="632.6322"
       inkscape:label="P5"><title
         id="title44">P5</title></rect><rect
       style="display:inline;fill:#000000;fill-opacity:1;stroke:none;stroke-width:8;stroke-dasharray:none;stroke-opacity:1"
       id="p-p-1-4"
       width="58.939728"
       height="91.751541"
       x="263.58578"
       y="511.35788"
       inkscape:label="P4"><title
         id="title43">P4</title></rect><rect
       style="display:inline;fill:#000000;fill-opacity:1;stroke:none;stroke-width:8;stroke-dasharray:none;stroke-opacity:1"
       id="p-p-1-3"
       width="58.939728"
       height="91.751541"
       x="262.2562"
       y="390.70355"
       inkscape:label="P3"><title
         id="title42">P3</title></rect><rect
       style="display:inline;fill:#000000;fill-opacity:1;stroke:none;stroke-width:8;stroke-dasharray:none;stroke-opacity:1"
       id="p-p-i-1-2"
       width="45.571957"
       height="79.599014"
       x="544.48456"
       y="310.32352"
       inkscape:label="P2"><title
         id="title40">P2</title></rect><rect
       style="display:inline;fill:#000000;fill-opacity:1;stroke:none;stroke-width:8;stroke-dasharray:none;stroke-opacity:1"
       id="p-p-i-1-1"
       width="47.394833"
       height="76.560883"
       x="606.289"
       y="308.83026"
       inkscape:label="P1"><title
         id="title41">P1</title></rect></g></svg>
